<?xml version="1.0" encoding="UTF-8" standalone="no"?>
<!DOCTYPE svg PUBLIC "-//W3C//DTD SVG 1.1//EN"
 "http://www.w3.org/Graphics/SVG/1.1/DTD/svg11.dtd">
<!-- Generated by graphviz version 12.1.2 (20240928.0832)
 -->
<!-- Title: projects Pages: 1 -->
<svg width="501pt" height="1160pt"
 viewBox="0.00 0.00 501.46 1160.40" xmlns="http://www.w3.org/2000/svg" xmlns:xlink="http://www.w3.org/1999/xlink">
<g id="graph0" class="graph" transform="scale(1 1) rotate(0) translate(4 1156.4)">
<title>projects</title>
<polygon fill="white" stroke="none" points="-4,4 -4,-1156.4 497.46,-1156.4 497.46,4 -4,4"/>
<!-- projects -->
<g id="node1" class="node">
<title>projects</title>
<polygon fill="#efefef" stroke="none" points="46.2,-604.6 46.2,-640.2 241.67,-640.2 241.67,-604.6 46.2,-604.6"/>
<polygon fill="none" stroke="black" points="46.2,-604.6 46.2,-640.2 241.67,-640.2 241.67,-604.6 46.2,-604.6"/>
<text text-anchor="start" x="53.2" y="-618" font-family="Arial Bold" font-size="18.00">projects</text>
<text text-anchor="start" x="110.18" y="-618" font-family="Arial" font-size="14.00">    </text>
<text text-anchor="start" x="141.3" y="-618" font-family="Arial" font-size="14.00" fill="#666666">[BASE TABLE]</text>
<polygon fill="none" stroke="black" points="46.2,-573.8 46.2,-604.6 241.67,-604.6 241.67,-573.8 46.2,-573.8"/>
<text text-anchor="start" x="53.2" y="-586" font-family="Arial" font-size="14.00">id </text>
<text text-anchor="start" x="67.99" y="-586" font-family="Arial" font-size="14.00" fill="#666666">[char(26)]</text>
<polygon fill="none" stroke="black" points="46.2,-543 46.2,-573.8 241.67,-573.8 241.67,-543 46.2,-543"/>
<text text-anchor="start" x="53.2" y="-555.2" font-family="Arial" font-size="14.00">user_id </text>
<text text-anchor="start" x="103.01" y="-555.2" font-family="Arial" font-size="14.00" fill="#666666">[char(26)]</text>
<polygon fill="none" stroke="black" points="46.2,-512.2 46.2,-543 241.67,-543 241.67,-512.2 46.2,-512.2"/>
<text text-anchor="start" x="53.2" y="-524.4" font-family="Arial" font-size="14.00">name </text>
<text text-anchor="start" x="92.11" y="-524.4" font-family="Arial" font-size="14.00" fill="#666666">[varchar(20)]</text>
<polygon fill="none" stroke="black" points="46.2,-481.4 46.2,-512.2 241.67,-512.2 241.67,-481.4 46.2,-481.4"/>
<text text-anchor="start" x="53.2" y="-493.6" font-family="Arial" font-size="14.00">color </text>
<text text-anchor="start" x="87.43" y="-493.6" font-family="Arial" font-size="14.00" fill="#666666">[char(7)]</text>
<polygon fill="none" stroke="black" points="46.2,-450.6 46.2,-481.4 241.67,-481.4 241.67,-450.6 46.2,-450.6"/>
<text text-anchor="start" x="53.2" y="-462.8" font-family="Arial" font-size="14.00">is_archived </text>
<text text-anchor="start" x="127.9" y="-462.8" font-family="Arial" font-size="14.00" fill="#666666">[tinyint(1)]</text>
<polygon fill="none" stroke="black" points="46.2,-419.8 46.2,-450.6 241.67,-450.6 241.67,-419.8 46.2,-419.8"/>
<text text-anchor="start" x="53.2" y="-432" font-family="Arial" font-size="14.00">created_at </text>
<text text-anchor="start" x="123.25" y="-432" font-family="Arial" font-size="14.00" fill="#666666">[datetime]</text>
<polygon fill="none" stroke="black" points="46.2,-389 46.2,-419.8 241.67,-419.8 241.67,-389 46.2,-389"/>
<text text-anchor="start" x="53.2" y="-401.2" font-family="Arial" font-size="14.00">updated_at </text>
<text text-anchor="start" x="127.16" y="-401.2" font-family="Arial" font-size="14.00" fill="#666666">[datetime]</text>
<polygon fill="none" stroke="black" stroke-width="3" points="44.7,-387.5 44.7,-641.7 243.17,-641.7 243.17,-387.5 44.7,-387.5"/>
</g>
<!-- users -->
<g id="node3" class="node">
<title>users</title>
<polygon fill="#efefef" stroke="none" points="56.19,-228 56.19,-263.6 231.68,-263.6 231.68,-228 56.19,-228"/>
<polygon fill="none" stroke="black" points="56.19,-228 56.19,-263.6 231.68,-263.6 231.68,-228 56.19,-228"/>
<text text-anchor="start" x="63.19" y="-241.4" font-family="Arial Bold" font-size="18.00">users</text>
<text text-anchor="start" x="100.19" y="-241.4" font-family="Arial" font-size="14.00">    </text>
<text text-anchor="start" x="131.3" y="-241.4" font-family="Arial" font-size="14.00" fill="#666666">[BASE TABLE]</text>
<polygon fill="none" stroke="black" points="56.19,-197.2 56.19,-228 231.68,-228 231.68,-197.2 56.19,-197.2"/>
<text text-anchor="start" x="63.19" y="-209.4" font-family="Arial" font-size="14.00">id </text>
<text text-anchor="start" x="77.98" y="-209.4" font-family="Arial" font-size="14.00" fill="#666666">[char(26)]</text>
<polygon fill="none" stroke="black" points="56.19,-166.4 56.19,-197.2 231.68,-197.2 231.68,-166.4 56.19,-166.4"/>
<text text-anchor="start" x="63.19" y="-178.6" font-family="Arial" font-size="14.00">name </text>
<text text-anchor="start" x="102.1" y="-178.6" font-family="Arial" font-size="14.00" fill="#666666">[varchar(15)]</text>
<polygon fill="none" stroke="black" points="56.19,-135.6 56.19,-166.4 231.68,-166.4 231.68,-135.6 56.19,-135.6"/>
<text text-anchor="start" x="63.19" y="-147.8" font-family="Arial" font-size="14.00">email </text>
<text text-anchor="start" x="100.54" y="-147.8" font-family="Arial" font-size="14.00" fill="#666666">[varchar(254)]</text>
<polygon fill="none" stroke="black" points="56.19,-104.8 56.19,-135.6 231.68,-135.6 231.68,-104.8 56.19,-104.8"/>
<text text-anchor="start" x="63.19" y="-117" font-family="Arial" font-size="14.00">password </text>
<text text-anchor="start" x="127" y="-117" font-family="Arial" font-size="14.00" fill="#666666">[char(60)]</text>
<polygon fill="none" stroke="black" points="56.19,-74 56.19,-104.8 231.68,-104.8 231.68,-74 56.19,-74"/>
<text text-anchor="start" x="63.19" y="-86.2" font-family="Arial" font-size="14.00">created_at </text>
<text text-anchor="start" x="133.24" y="-86.2" font-family="Arial" font-size="14.00" fill="#666666">[datetime]</text>
<polygon fill="none" stroke="black" points="56.19,-43.2 56.19,-74 231.68,-74 231.68,-43.2 56.19,-43.2"/>
<text text-anchor="start" x="63.19" y="-55.4" font-family="Arial" font-size="14.00">updated_at </text>
<text text-anchor="start" x="137.15" y="-55.4" font-family="Arial" font-size="14.00" fill="#666666">[datetime]</text>
</g>
<!-- projects&#45;&gt;users -->
<g id="edge2" class="edge">
<title>projects:user_id&#45;&gt;users:id</title>
<path fill="none" stroke="black" d="M252.5,-556.37C318.51,-528.03 306.1,-212.6 232.68,-212.6"/>
<polygon fill="black" stroke="black" points="252.79,-556.31 242.09,-553.93 247.57,-557.39 243.32,-558.26 243.32,-558.26 243.32,-558.26 247.57,-557.39 243.91,-562.74 252.79,-556.31"/>
<text text-anchor="start" x="249.67" y="-568.4" font-family="Arial" font-size="10.00">FOREIGN KEY (user_id) REFERENCES users (id)</text>
</g>
<!-- tasks -->
<g id="node2" class="node">
<title>tasks</title>
<polygon fill="#efefef" stroke="none" points="56.69,-1073.6 56.69,-1109.2 231.18,-1109.2 231.18,-1073.6 56.69,-1073.6"/>
<polygon fill="none" stroke="black" points="56.69,-1073.6 56.69,-1109.2 231.18,-1109.2 231.18,-1073.6 56.69,-1073.6"/>
<text text-anchor="start" x="63.69" y="-1087" font-family="Arial Bold" font-size="18.00">tasks</text>
<text text-anchor="start" x="99.69" y="-1087" font-family="Arial" font-size="14.00">    </text>
<text text-anchor="start" x="130.81" y="-1087" font-family="Arial" font-size="14.00" fill="#666666">[BASE TABLE]</text>
<polygon fill="none" stroke="black" points="56.69,-1042.8 56.69,-1073.6 231.18,-1073.6 231.18,-1042.8 56.69,-1042.8"/>
<text text-anchor="start" x="63.69" y="-1055" font-family="Arial" font-size="14.00">id </text>
<text text-anchor="start" x="78.48" y="-1055" font-family="Arial" font-size="14.00" fill="#666666">[char(26)]</text>
<polygon fill="none" stroke="black" points="56.69,-1012 56.69,-1042.8 231.18,-1042.8 231.18,-1012 56.69,-1012"/>
<text text-anchor="start" x="63.69" y="-1024.2" font-family="Arial" font-size="14.00">user_id </text>
<text text-anchor="start" x="113.5" y="-1024.2" font-family="Arial" font-size="14.00" fill="#666666">[char(26)]</text>
<polygon fill="none" stroke="black" points="56.69,-981.2 56.69,-1012 231.18,-1012 231.18,-981.2 56.69,-981.2"/>
<text text-anchor="start" x="63.69" y="-993.4" font-family="Arial" font-size="14.00">project_id </text>
<text text-anchor="start" x="128.28" y="-993.4" font-family="Arial" font-size="14.00" fill="#666666">[char(26)]</text>
<polygon fill="none" stroke="black" points="56.69,-950.4 56.69,-981.2 231.18,-981.2 231.18,-950.4 56.69,-950.4"/>
<text text-anchor="start" x="63.69" y="-962.6" font-family="Arial" font-size="14.00">name </text>
<text text-anchor="start" x="102.6" y="-962.6" font-family="Arial" font-size="14.00" fill="#666666">[varchar(80)]</text>
<polygon fill="none" stroke="black" points="56.69,-919.6 56.69,-950.4 231.18,-950.4 231.18,-919.6 56.69,-919.6"/>
<text text-anchor="start" x="63.69" y="-931.8" font-family="Arial" font-size="14.00">content </text>
<text text-anchor="start" x="113.5" y="-931.8" font-family="Arial" font-size="14.00" fill="#666666">[varchar(300)]</text>
<polygon fill="none" stroke="black" points="56.69,-888.8 56.69,-919.6 231.18,-919.6 231.18,-888.8 56.69,-888.8"/>
<text text-anchor="start" x="63.69" y="-901" font-family="Arial" font-size="14.00">priority </text>
<text text-anchor="start" x="109.59" y="-901" font-family="Arial" font-size="14.00" fill="#666666">[tinyint unsigned]</text>
<polygon fill="none" stroke="black" points="56.69,-858 56.69,-888.8 231.18,-888.8 231.18,-858 56.69,-858"/>
<text text-anchor="start" x="63.69" y="-870.2" font-family="Arial" font-size="14.00">due_on </text>
<text text-anchor="start" x="114.3" y="-870.2" font-family="Arial" font-size="14.00" fill="#666666">[date]</text>
<polygon fill="none" stroke="black" points="56.69,-827.2 56.69,-858 231.18,-858 231.18,-827.2 56.69,-827.2"/>
<text text-anchor="start" x="63.69" y="-839.4" font-family="Arial" font-size="14.00">completed_at </text>
<text text-anchor="start" x="151.63" y="-839.4" font-family="Arial" font-size="14.00" fill="#666666">[datetime]</text>
<polygon fill="none" stroke="black" points="56.69,-796.4 56.69,-827.2 231.18,-827.2 231.18,-796.4 56.69,-796.4"/>
<text text-anchor="start" x="63.69" y="-808.6" font-family="Arial" font-size="14.00">created_at </text>
<text text-anchor="start" x="133.74" y="-808.6" font-family="Arial" font-size="14.00" fill="#666666">[datetime]</text>
<polygon fill="none" stroke="black" points="56.69,-765.6 56.69,-796.4 231.18,-796.4 231.18,-765.6 56.69,-765.6"/>
<text text-anchor="start" x="63.69" y="-777.8" font-family="Arial" font-size="14.00">updated_at </text>
<text text-anchor="start" x="137.65" y="-777.8" font-family="Arial" font-size="14.00" fill="#666666">[datetime]</text>
</g>
<!-- tasks&#45;&gt;projects -->
<g id="edge1" class="edge">
<title>tasks:project_id&#45;&gt;projects:id</title>
<path fill="none" stroke="black" d="M242.42,-994.78C323.41,-965.39 329.69,-589.2 242.67,-589.2"/>
<polygon fill="black" stroke="black" points="242.35,-994.8 231.72,-992.11 237.1,-995.73 232.84,-996.48 232.84,-996.48 232.84,-996.48 237.1,-995.73 233.29,-1000.97 242.35,-994.8"/>
<text text-anchor="start" x="239.18" y="-1006.6" font-family="Arial" font-size="10.00">FOREIGN KEY (project_id) REFERENCES projects (id)</text>
</g>
</g>
</svg>
