<?xml version="1.0" encoding="UTF-8" standalone="no"?>
<!DOCTYPE svg PUBLIC "-//W3C//DTD SVG 1.1//EN"
 "http://www.w3.org/Graphics/SVG/1.1/DTD/svg11.dtd">
<!-- Generated by graphviz version 2.40.1 (20161225.0304)
 -->
<!-- Title: projects Pages: 1 -->
<svg width="708pt" height="1139pt"
 viewBox="0.00 0.00 708.00 1139.00" xmlns="http://www.w3.org/2000/svg" xmlns:xlink="http://www.w3.org/1999/xlink">
<g id="graph0" class="graph" transform="scale(1 1) rotate(0) translate(4 1135)">
<title>projects</title>
<polygon fill="#ffffff" stroke="transparent" points="-4,4 -4,-1135 704,-1135 704,4 -4,4"/>
<!-- projects -->
<g id="node1" class="node">
<title>projects</title>
<polygon fill="#efefef" stroke="transparent" points="240,-592.5 240,-627.5 444,-627.5 444,-592.5 240,-592.5"/>
<polygon fill="none" stroke="#000000" points="240,-592.5 240,-627.5 444,-627.5 444,-592.5 240,-592.5"/>
<text text-anchor="start" x="246.7124" y="-605.3" font-family="Arial Bold" font-size="18.00" fill="#000000">projects</text>
<text text-anchor="start" x="309.7196" y="-605.3" font-family="Arial" font-size="14.00" fill="#000000">    </text>
<text text-anchor="start" x="343.9244" y="-605.3" font-family="Arial" font-size="14.00" fill="#666666">[BASE TABLE]</text>
<polygon fill="none" stroke="#000000" points="240,-562.5 240,-592.5 444,-592.5 444,-562.5 240,-562.5"/>
<text text-anchor="start" x="247" y="-573.9" font-family="Arial" font-size="14.00" fill="#000000">id </text>
<text text-anchor="start" x="261.7798" y="-573.9" font-family="Arial" font-size="14.00" fill="#666666">[char(26)]</text>
<polygon fill="none" stroke="#000000" points="240,-532.5 240,-562.5 444,-562.5 444,-532.5 240,-532.5"/>
<text text-anchor="start" x="247" y="-543.9" font-family="Arial" font-size="14.00" fill="#000000">user_id </text>
<text text-anchor="start" x="296.7882" y="-543.9" font-family="Arial" font-size="14.00" fill="#666666">[char(26)]</text>
<polygon fill="none" stroke="#000000" points="240,-502.5 240,-532.5 444,-532.5 444,-502.5 240,-502.5"/>
<text text-anchor="start" x="247" y="-513.9" font-family="Arial" font-size="14.00" fill="#000000">name </text>
<text text-anchor="start" x="285.899" y="-513.9" font-family="Arial" font-size="14.00" fill="#666666">[varchar(20)]</text>
<polygon fill="none" stroke="#000000" points="240,-472.5 240,-502.5 444,-502.5 444,-472.5 240,-472.5"/>
<text text-anchor="start" x="247" y="-483.9" font-family="Arial" font-size="14.00" fill="#000000">color </text>
<text text-anchor="start" x="281.223" y="-483.9" font-family="Arial" font-size="14.00" fill="#666666">[char(7)]</text>
<polygon fill="none" stroke="#000000" points="240,-442.5 240,-472.5 444,-472.5 444,-442.5 240,-442.5"/>
<text text-anchor="start" x="247" y="-453.9" font-family="Arial" font-size="14.00" fill="#000000">is_archived </text>
<text text-anchor="start" x="321.6774" y="-453.9" font-family="Arial" font-size="14.00" fill="#666666">[tinyint(1)]</text>
<polygon fill="none" stroke="#000000" points="240,-412.5 240,-442.5 444,-442.5 444,-412.5 240,-412.5"/>
<text text-anchor="start" x="247" y="-423.9" font-family="Arial" font-size="14.00" fill="#000000">created_at </text>
<text text-anchor="start" x="317.028" y="-423.9" font-family="Arial" font-size="14.00" fill="#666666">[datetime]</text>
<polygon fill="none" stroke="#000000" points="240,-382.5 240,-412.5 444,-412.5 444,-382.5 240,-382.5"/>
<text text-anchor="start" x="247" y="-393.9" font-family="Arial" font-size="14.00" fill="#000000">updated_at </text>
<text text-anchor="start" x="320.9326" y="-393.9" font-family="Arial" font-size="14.00" fill="#666666">[datetime]</text>
<polygon fill="none" stroke="#000000" stroke-width="3" points="238.5,-381.5 238.5,-629.5 445.5,-629.5 445.5,-381.5 238.5,-381.5"/>
</g>
<!-- users -->
<g id="node3" class="node">
<title>users</title>
<polygon fill="#efefef" stroke="transparent" points="249,-222.5 249,-257.5 434,-257.5 434,-222.5 249,-222.5"/>
<polygon fill="none" stroke="#000000" points="249,-222.5 249,-257.5 434,-257.5 434,-222.5 249,-222.5"/>
<text text-anchor="start" x="255.7137" y="-235.3" font-family="Arial Bold" font-size="18.00" fill="#000000">users</text>
<text text-anchor="start" x="299.7183" y="-235.3" font-family="Arial" font-size="14.00" fill="#000000">    </text>
<text text-anchor="start" x="333.9231" y="-235.3" font-family="Arial" font-size="14.00" fill="#666666">[BASE TABLE]</text>
<polygon fill="none" stroke="#000000" points="249,-192.5 249,-222.5 434,-222.5 434,-192.5 249,-192.5"/>
<text text-anchor="start" x="256" y="-203.9" font-family="Arial" font-size="14.00" fill="#000000">id    </text>
<text text-anchor="start" x="301.094" y="-203.9" font-family="Arial" font-size="14.00" fill="#666666">[char(26)]</text>
<polygon fill="none" stroke="#000000" points="249,-162.5 249,-192.5 434,-192.5 434,-162.5 249,-162.5"/>
<text text-anchor="start" x="256" y="-173.9" font-family="Arial" font-size="14.00" fill="#000000">name    </text>
<text text-anchor="start" x="325.2132" y="-173.9" font-family="Arial" font-size="14.00" fill="#666666">[varchar(15)]</text>
<polygon fill="none" stroke="#000000" points="249,-132.5 249,-162.5 434,-162.5 434,-132.5 249,-132.5"/>
<text text-anchor="start" x="256" y="-143.9" font-family="Arial" font-size="14.00" fill="#000000">email    </text>
<text text-anchor="start" x="323.6438" y="-143.9" font-family="Arial" font-size="14.00" fill="#666666">[varchar(254)]</text>
<polygon fill="none" stroke="#000000" points="249,-102.5 249,-132.5 434,-132.5 434,-102.5 249,-102.5"/>
<text text-anchor="start" x="256" y="-113.9" font-family="Arial" font-size="14.00" fill="#000000">password    </text>
<text text-anchor="start" x="350.1024" y="-113.9" font-family="Arial" font-size="14.00" fill="#666666">[char(60)]</text>
<polygon fill="none" stroke="#000000" points="249,-72.5 249,-102.5 434,-102.5 434,-72.5 249,-72.5"/>
<text text-anchor="start" x="256" y="-83.9" font-family="Arial" font-size="14.00" fill="#000000">created_at    </text>
<text text-anchor="start" x="356.3422" y="-83.9" font-family="Arial" font-size="14.00" fill="#666666">[datetime]</text>
<polygon fill="none" stroke="#000000" points="249,-42.5 249,-72.5 434,-72.5 434,-42.5 249,-42.5"/>
<text text-anchor="start" x="256" y="-53.9" font-family="Arial" font-size="14.00" fill="#000000">updated_at    </text>
<text text-anchor="start" x="360.2468" y="-53.9" font-family="Arial" font-size="14.00" fill="#666666">[datetime]</text>
</g>
<!-- projects&#45;&gt;users -->
<g id="edge2" class="edge">
<title>projects:user_id&#45;&gt;users:id</title>
<path fill="none" stroke="#000000" d="M229.6131,-546.8779C149.1202,-536.7764 182.5214,-406.126 240,-337 296.0677,-269.5709 377.9323,-368.4291 434,-301 460.5687,-269.0474 475.5556,-207.5 434,-207.5"/>
<polygon fill="#000000" stroke="#000000" points="230.0179,-546.9021 239.7309,-551.992 235.0089,-547.201 240,-547.5 240,-547.5 240,-547.5 235.0089,-547.201 240.2691,-543.008 230.0179,-546.9021 230.0179,-546.9021"/>
<text text-anchor="start" x="6.945" y="-557.5" font-family="Arial" font-size="10.00" fill="#000000">FOREIGN KEY (user_id) REFERENCES users (id)</text>
</g>
<!-- tasks -->
<g id="node2" class="node">
<title>tasks</title>
<polygon fill="#efefef" stroke="transparent" points="244,-1052.5 244,-1087.5 439,-1087.5 439,-1052.5 244,-1052.5"/>
<polygon fill="none" stroke="#000000" points="244,-1052.5 244,-1087.5 439,-1087.5 439,-1052.5 244,-1052.5"/>
<text text-anchor="start" x="256.7118" y="-1065.3" font-family="Arial Bold" font-size="18.00" fill="#000000">tasks</text>
<text text-anchor="start" x="298.7202" y="-1065.3" font-family="Arial" font-size="14.00" fill="#000000">    </text>
<text text-anchor="start" x="332.925" y="-1065.3" font-family="Arial" font-size="14.00" fill="#666666">[BASE TABLE]</text>
<polygon fill="none" stroke="#000000" points="244,-1022.5 244,-1052.5 439,-1052.5 439,-1022.5 244,-1022.5"/>
<text text-anchor="start" x="251" y="-1033.9" font-family="Arial" font-size="14.00" fill="#000000">id    </text>
<text text-anchor="start" x="296.094" y="-1033.9" font-family="Arial" font-size="14.00" fill="#666666">[char(26)]</text>
<polygon fill="none" stroke="#000000" points="244,-992.5 244,-1022.5 439,-1022.5 439,-992.5 244,-992.5"/>
<text text-anchor="start" x="251" y="-1003.9" font-family="Arial" font-size="14.00" fill="#000000">user_id    </text>
<text text-anchor="start" x="331.1024" y="-1003.9" font-family="Arial" font-size="14.00" fill="#666666">[char(26)]</text>
<polygon fill="none" stroke="#000000" points="244,-962.5 244,-992.5 439,-992.5 439,-962.5 244,-962.5"/>
<text text-anchor="start" x="251" y="-973.9" font-family="Arial" font-size="14.00" fill="#000000">project_id    </text>
<text text-anchor="start" x="345.8822" y="-973.9" font-family="Arial" font-size="14.00" fill="#666666">[char(26)]</text>
<polygon fill="none" stroke="#000000" points="244,-932.5 244,-962.5 439,-962.5 439,-932.5 244,-932.5"/>
<text text-anchor="start" x="251" y="-943.9" font-family="Arial" font-size="14.00" fill="#000000">name    </text>
<text text-anchor="start" x="320.2132" y="-943.9" font-family="Arial" font-size="14.00" fill="#666666">[varchar(80)]</text>
<polygon fill="none" stroke="#000000" points="244,-902.5 244,-932.5 439,-932.5 439,-902.5 244,-902.5"/>
<text text-anchor="start" x="251" y="-913.9" font-family="Arial" font-size="14.00" fill="#000000">content    </text>
<text text-anchor="start" x="331.1164" y="-913.9" font-family="Arial" font-size="14.00" fill="#666666">[varchar(300)]</text>
<polygon fill="none" stroke="#000000" points="244,-872.5 244,-902.5 439,-902.5 439,-872.5 244,-872.5"/>
<text text-anchor="start" x="250.8857" y="-883.9" font-family="Arial" font-size="14.00" fill="#000000">priority    </text>
<text text-anchor="start" x="327.0807" y="-883.9" font-family="Arial" font-size="14.00" fill="#666666">[tinyint unsigned]</text>
<polygon fill="none" stroke="#000000" points="244,-842.5 244,-872.5 439,-872.5 439,-842.5 244,-842.5"/>
<text text-anchor="start" x="251" y="-853.9" font-family="Arial" font-size="14.00" fill="#000000">due_on    </text>
<text text-anchor="start" x="331.9004" y="-853.9" font-family="Arial" font-size="14.00" fill="#666666">[date]</text>
<polygon fill="none" stroke="#000000" points="244,-812.5 244,-842.5 439,-842.5 439,-812.5 244,-812.5"/>
<text text-anchor="start" x="251" y="-823.9" font-family="Arial" font-size="14.00" fill="#000000">completed_at    </text>
<text text-anchor="start" x="369.2314" y="-823.9" font-family="Arial" font-size="14.00" fill="#666666">[datetime]</text>
<polygon fill="none" stroke="#000000" points="244,-782.5 244,-812.5 439,-812.5 439,-782.5 244,-782.5"/>
<text text-anchor="start" x="251" y="-793.9" font-family="Arial" font-size="14.00" fill="#000000">created_at    </text>
<text text-anchor="start" x="351.3422" y="-793.9" font-family="Arial" font-size="14.00" fill="#666666">[datetime]</text>
<polygon fill="none" stroke="#000000" points="244,-752.5 244,-782.5 439,-782.5 439,-752.5 244,-752.5"/>
<text text-anchor="start" x="251" y="-763.9" font-family="Arial" font-size="14.00" fill="#000000">updated_at    </text>
<text text-anchor="start" x="355.2468" y="-763.9" font-family="Arial" font-size="14.00" fill="#666666">[datetime]</text>
</g>
<!-- tasks&#45;&gt;projects -->
<g id="edge1" class="edge">
<title>tasks:project_id&#45;&gt;projects:id</title>
<path fill="none" stroke="#000000" d="M449.0364,-977.0527C555.3599,-967.2454 512.9852,-798.5703 439,-710 381.3791,-641.0199 297.6209,-742.9801 240,-674 212.5045,-641.0841 197.1111,-577.5 240,-577.5"/>
<polygon fill="#000000" stroke="#000000" points="448.9901,-977.0547 438.7996,-973.0045 443.995,-977.2773 439,-977.5 439,-977.5 439,-977.5 443.995,-977.2773 439.2004,-981.9955 448.9901,-977.0547 448.9901,-977.0547"/>
<text text-anchor="start" x="446.388" y="-987.5" font-family="Arial" font-size="10.00" fill="#000000">FOREIGN KEY (project_id) REFERENCES projects (id)</text>
</g>
</g>
</svg>
