<?xml version="1.0" encoding="UTF-8" standalone="no"?>
<!DOCTYPE svg PUBLIC "-//W3C//DTD SVG 1.1//EN"
 "http://www.w3.org/Graphics/SVG/1.1/DTD/svg11.dtd">
<!-- Generated by graphviz version 2.40.1 (20161225.0304)
 -->
<!-- Title: simoomdb Pages: 1 -->
<svg width="1008pt" height="1500pt"
 viewBox="0.00 0.00 1008.00 1500.00" xmlns="http://www.w3.org/2000/svg" xmlns:xlink="http://www.w3.org/1999/xlink">
<g id="graph0" class="graph" transform="scale(1 1) rotate(0) translate(4 1496)">
<title>simoomdb</title>
<polygon fill="#ffffff" stroke="transparent" points="-4,4 -4,-1496 1004,-1496 1004,4 -4,4"/>
<!-- projects -->
<g id="node1" class="node">
<title>projects</title>
<polygon fill="#efefef" stroke="transparent" points="395,-589.5 395,-624.5 599,-624.5 599,-589.5 395,-589.5"/>
<polygon fill="none" stroke="#000000" points="395,-589.5 395,-624.5 599,-624.5 599,-589.5 395,-589.5"/>
<text text-anchor="start" x="401.7124" y="-602.3" font-family="Arial Bold" font-size="18.00" fill="#000000">projects</text>
<text text-anchor="start" x="464.7196" y="-602.3" font-family="Arial" font-size="14.00" fill="#000000">    </text>
<text text-anchor="start" x="498.9244" y="-602.3" font-family="Arial" font-size="14.00" fill="#666666">[BASE TABLE]</text>
<polygon fill="none" stroke="#000000" points="395,-559.5 395,-589.5 599,-589.5 599,-559.5 395,-559.5"/>
<text text-anchor="start" x="402" y="-570.9" font-family="Arial" font-size="14.00" fill="#000000">id    </text>
<text text-anchor="start" x="447.094" y="-570.9" font-family="Arial" font-size="14.00" fill="#666666">[char(26)]</text>
<polygon fill="none" stroke="#000000" points="395,-529.5 395,-559.5 599,-559.5 599,-529.5 395,-529.5"/>
<text text-anchor="start" x="402" y="-540.9" font-family="Arial" font-size="14.00" fill="#000000">user_id    </text>
<text text-anchor="start" x="482.1024" y="-540.9" font-family="Arial" font-size="14.00" fill="#666666">[char(26)]</text>
<polygon fill="none" stroke="#000000" points="395,-499.5 395,-529.5 599,-529.5 599,-499.5 395,-499.5"/>
<text text-anchor="start" x="402" y="-510.9" font-family="Arial" font-size="14.00" fill="#000000">name    </text>
<text text-anchor="start" x="471.2132" y="-510.9" font-family="Arial" font-size="14.00" fill="#666666">[varchar(20)]</text>
<polygon fill="none" stroke="#000000" points="395,-469.5 395,-499.5 599,-499.5 599,-469.5 395,-469.5"/>
<text text-anchor="start" x="402" y="-480.9" font-family="Arial" font-size="14.00" fill="#000000">color    </text>
<text text-anchor="start" x="466.5372" y="-480.9" font-family="Arial" font-size="14.00" fill="#666666">[char(7)]</text>
<polygon fill="none" stroke="#000000" points="395,-439.5 395,-469.5 599,-469.5 599,-439.5 395,-439.5"/>
<text text-anchor="start" x="402" y="-450.9" font-family="Arial" font-size="14.00" fill="#000000">is_archived    </text>
<text text-anchor="start" x="506.9916" y="-450.9" font-family="Arial" font-size="14.00" fill="#666666">[tinyint(1)]</text>
<polygon fill="none" stroke="#000000" points="395,-409.5 395,-439.5 599,-439.5 599,-409.5 395,-409.5"/>
<text text-anchor="start" x="402" y="-420.9" font-family="Arial" font-size="14.00" fill="#000000">created_at    </text>
<text text-anchor="start" x="502.3422" y="-420.9" font-family="Arial" font-size="14.00" fill="#666666">[datetime]</text>
<polygon fill="none" stroke="#000000" points="395,-379.5 395,-409.5 599,-409.5 599,-379.5 395,-379.5"/>
<text text-anchor="start" x="402" y="-390.9" font-family="Arial" font-size="14.00" fill="#000000">updated_at    </text>
<text text-anchor="start" x="506.2468" y="-390.9" font-family="Arial" font-size="14.00" fill="#666666">[datetime]</text>
</g>
<!-- users -->
<g id="node6" class="node">
<title>users</title>
<polygon fill="#efefef" stroke="transparent" points="490,-222.5 490,-257.5 675,-257.5 675,-222.5 490,-222.5"/>
<polygon fill="none" stroke="#000000" points="490,-222.5 490,-257.5 675,-257.5 675,-222.5 490,-222.5"/>
<text text-anchor="start" x="496.7137" y="-235.3" font-family="Arial Bold" font-size="18.00" fill="#000000">users</text>
<text text-anchor="start" x="540.7183" y="-235.3" font-family="Arial" font-size="14.00" fill="#000000">    </text>
<text text-anchor="start" x="574.9231" y="-235.3" font-family="Arial" font-size="14.00" fill="#666666">[BASE TABLE]</text>
<polygon fill="none" stroke="#000000" points="490,-192.5 490,-222.5 675,-222.5 675,-192.5 490,-192.5"/>
<text text-anchor="start" x="497" y="-203.9" font-family="Arial" font-size="14.00" fill="#000000">id    </text>
<text text-anchor="start" x="542.094" y="-203.9" font-family="Arial" font-size="14.00" fill="#666666">[char(26)]</text>
<polygon fill="none" stroke="#000000" points="490,-162.5 490,-192.5 675,-192.5 675,-162.5 490,-162.5"/>
<text text-anchor="start" x="497" y="-173.9" font-family="Arial" font-size="14.00" fill="#000000">name    </text>
<text text-anchor="start" x="566.2132" y="-173.9" font-family="Arial" font-size="14.00" fill="#666666">[varchar(15)]</text>
<polygon fill="none" stroke="#000000" points="490,-132.5 490,-162.5 675,-162.5 675,-132.5 490,-132.5"/>
<text text-anchor="start" x="497" y="-143.9" font-family="Arial" font-size="14.00" fill="#000000">email    </text>
<text text-anchor="start" x="564.6438" y="-143.9" font-family="Arial" font-size="14.00" fill="#666666">[varchar(254)]</text>
<polygon fill="none" stroke="#000000" points="490,-102.5 490,-132.5 675,-132.5 675,-102.5 490,-102.5"/>
<text text-anchor="start" x="497" y="-113.9" font-family="Arial" font-size="14.00" fill="#000000">password    </text>
<text text-anchor="start" x="591.1024" y="-113.9" font-family="Arial" font-size="14.00" fill="#666666">[char(60)]</text>
<polygon fill="none" stroke="#000000" points="490,-72.5 490,-102.5 675,-102.5 675,-72.5 490,-72.5"/>
<text text-anchor="start" x="497" y="-83.9" font-family="Arial" font-size="14.00" fill="#000000">created_at    </text>
<text text-anchor="start" x="597.3422" y="-83.9" font-family="Arial" font-size="14.00" fill="#666666">[datetime]</text>
<polygon fill="none" stroke="#000000" points="490,-42.5 490,-72.5 675,-72.5 675,-42.5 490,-42.5"/>
<text text-anchor="start" x="497" y="-53.9" font-family="Arial" font-size="14.00" fill="#000000">updated_at    </text>
<text text-anchor="start" x="601.2468" y="-53.9" font-family="Arial" font-size="14.00" fill="#666666">[datetime]</text>
</g>
<!-- projects&#45;&gt;users -->
<g id="edge1" class="edge">
<title>projects:user_id&#45;&gt;users:id</title>
<path fill="none" stroke="#000000" d="M609.2171,-543.9036C688.214,-534.2167 650.9159,-408.8207 599,-337 569.1121,-295.653 519.8879,-342.347 490,-301 465.6556,-267.3219 448.4444,-207.5 490,-207.5"/>
<polygon fill="#000000" stroke="#000000" points="608.983,-543.9172 598.7377,-540.0076 603.9915,-544.2086 599,-544.5 599,-544.5 599,-544.5 603.9915,-544.2086 599.2623,-548.9924 608.983,-543.9172 608.983,-543.9172"/>
<text text-anchor="start" x="545.945" y="-528.5" font-family="Arial" font-size="10.00" fill="#000000">FOREIGN KEY (user_id) REFERENCES users (id)</text>
</g>
<!-- steps -->
<g id="node2" class="node">
<title>steps</title>
<polygon fill="#efefef" stroke="transparent" points="240,-1413.5 240,-1448.5 433,-1448.5 433,-1413.5 240,-1413.5"/>
<polygon fill="none" stroke="#000000" points="240,-1413.5 240,-1448.5 433,-1448.5 433,-1413.5 240,-1413.5"/>
<text text-anchor="start" x="251.2087" y="-1426.3" font-family="Arial Bold" font-size="18.00" fill="#000000">steps</text>
<text text-anchor="start" x="294.2233" y="-1426.3" font-family="Arial" font-size="14.00" fill="#000000">    </text>
<text text-anchor="start" x="328.4281" y="-1426.3" font-family="Arial" font-size="14.00" fill="#666666">[BASE TABLE]</text>
<polygon fill="none" stroke="#000000" points="240,-1383.5 240,-1413.5 433,-1413.5 433,-1383.5 240,-1383.5"/>
<text text-anchor="start" x="247" y="-1394.9" font-family="Arial" font-size="14.00" fill="#000000">id    </text>
<text text-anchor="start" x="292.094" y="-1394.9" font-family="Arial" font-size="14.00" fill="#666666">[char(26)]</text>
<polygon fill="none" stroke="#000000" points="240,-1353.5 240,-1383.5 433,-1383.5 433,-1353.5 240,-1353.5"/>
<text text-anchor="start" x="247" y="-1364.9" font-family="Arial" font-size="14.00" fill="#000000">user_id    </text>
<text text-anchor="start" x="327.1024" y="-1364.9" font-family="Arial" font-size="14.00" fill="#666666">[char(26)]</text>
<polygon fill="none" stroke="#000000" points="240,-1323.5 240,-1353.5 433,-1353.5 433,-1323.5 240,-1323.5"/>
<text text-anchor="start" x="247" y="-1334.9" font-family="Arial" font-size="14.00" fill="#000000">task_id    </text>
<text text-anchor="start" x="325.5498" y="-1334.9" font-family="Arial" font-size="14.00" fill="#666666">[char(26)]</text>
<polygon fill="none" stroke="#000000" points="240,-1293.5 240,-1323.5 433,-1323.5 433,-1293.5 240,-1293.5"/>
<text text-anchor="start" x="247" y="-1304.9" font-family="Arial" font-size="14.00" fill="#000000">title    </text>
<text text-anchor="start" x="302.9818" y="-1304.9" font-family="Arial" font-size="14.00" fill="#666666">[varchar(80)]</text>
<polygon fill="none" stroke="#000000" points="240,-1263.5 240,-1293.5 433,-1293.5 433,-1263.5 240,-1263.5"/>
<text text-anchor="start" x="246.6543" y="-1274.9" font-family="Arial" font-size="14.00" fill="#000000">completed_at    </text>
<text text-anchor="start" x="364.8857" y="-1274.9" font-family="Arial" font-size="14.00" fill="#666666">[datetime]</text>
<polygon fill="none" stroke="#000000" points="240,-1233.5 240,-1263.5 433,-1263.5 433,-1233.5 240,-1233.5"/>
<text text-anchor="start" x="247" y="-1244.9" font-family="Arial" font-size="14.00" fill="#000000">created_at    </text>
<text text-anchor="start" x="347.3422" y="-1244.9" font-family="Arial" font-size="14.00" fill="#666666">[datetime]</text>
<polygon fill="none" stroke="#000000" points="240,-1203.5 240,-1233.5 433,-1233.5 433,-1203.5 240,-1203.5"/>
<text text-anchor="start" x="247" y="-1214.9" font-family="Arial" font-size="14.00" fill="#000000">updated_at    </text>
<text text-anchor="start" x="351.2468" y="-1214.9" font-family="Arial" font-size="14.00" fill="#666666">[datetime]</text>
</g>
<!-- tasks -->
<g id="node4" class="node">
<title>tasks</title>
<polygon fill="#efefef" stroke="transparent" points="441,-1046.5 441,-1081.5 636,-1081.5 636,-1046.5 441,-1046.5"/>
<polygon fill="none" stroke="#000000" points="441,-1046.5 441,-1081.5 636,-1081.5 636,-1046.5 441,-1046.5"/>
<text text-anchor="start" x="453.7118" y="-1059.3" font-family="Arial Bold" font-size="18.00" fill="#000000">tasks</text>
<text text-anchor="start" x="495.7202" y="-1059.3" font-family="Arial" font-size="14.00" fill="#000000">    </text>
<text text-anchor="start" x="529.925" y="-1059.3" font-family="Arial" font-size="14.00" fill="#666666">[BASE TABLE]</text>
<polygon fill="none" stroke="#000000" points="441,-1016.5 441,-1046.5 636,-1046.5 636,-1016.5 441,-1016.5"/>
<text text-anchor="start" x="448" y="-1027.9" font-family="Arial" font-size="14.00" fill="#000000">id    </text>
<text text-anchor="start" x="493.094" y="-1027.9" font-family="Arial" font-size="14.00" fill="#666666">[char(26)]</text>
<polygon fill="none" stroke="#000000" points="441,-986.5 441,-1016.5 636,-1016.5 636,-986.5 441,-986.5"/>
<text text-anchor="start" x="448" y="-997.9" font-family="Arial" font-size="14.00" fill="#000000">user_id    </text>
<text text-anchor="start" x="528.1024" y="-997.9" font-family="Arial" font-size="14.00" fill="#666666">[char(26)]</text>
<polygon fill="none" stroke="#000000" points="441,-956.5 441,-986.5 636,-986.5 636,-956.5 441,-956.5"/>
<text text-anchor="start" x="448" y="-967.9" font-family="Arial" font-size="14.00" fill="#000000">project_id    </text>
<text text-anchor="start" x="542.8822" y="-967.9" font-family="Arial" font-size="14.00" fill="#666666">[char(26)]</text>
<polygon fill="none" stroke="#000000" points="441,-926.5 441,-956.5 636,-956.5 636,-926.5 441,-926.5"/>
<text text-anchor="start" x="448" y="-937.9" font-family="Arial" font-size="14.00" fill="#000000">title    </text>
<text text-anchor="start" x="503.9818" y="-937.9" font-family="Arial" font-size="14.00" fill="#666666">[varchar(80)]</text>
<polygon fill="none" stroke="#000000" points="441,-896.5 441,-926.5 636,-926.5 636,-896.5 441,-896.5"/>
<text text-anchor="start" x="448" y="-907.9" font-family="Arial" font-size="14.00" fill="#000000">content    </text>
<text text-anchor="start" x="528.1164" y="-907.9" font-family="Arial" font-size="14.00" fill="#666666">[varchar(300)]</text>
<polygon fill="none" stroke="#000000" points="441,-866.5 441,-896.5 636,-896.5 636,-866.5 441,-866.5"/>
<text text-anchor="start" x="447.8857" y="-877.9" font-family="Arial" font-size="14.00" fill="#000000">priority    </text>
<text text-anchor="start" x="524.0807" y="-877.9" font-family="Arial" font-size="14.00" fill="#666666">[tinyint unsigned]</text>
<polygon fill="none" stroke="#000000" points="441,-836.5 441,-866.5 636,-866.5 636,-836.5 441,-836.5"/>
<text text-anchor="start" x="448" y="-847.9" font-family="Arial" font-size="14.00" fill="#000000">due_on    </text>
<text text-anchor="start" x="528.9004" y="-847.9" font-family="Arial" font-size="14.00" fill="#666666">[date]</text>
<polygon fill="none" stroke="#000000" points="441,-806.5 441,-836.5 636,-836.5 636,-806.5 441,-806.5"/>
<text text-anchor="start" x="448" y="-817.9" font-family="Arial" font-size="14.00" fill="#000000">completed_at    </text>
<text text-anchor="start" x="566.2314" y="-817.9" font-family="Arial" font-size="14.00" fill="#666666">[datetime]</text>
<polygon fill="none" stroke="#000000" points="441,-776.5 441,-806.5 636,-806.5 636,-776.5 441,-776.5"/>
<text text-anchor="start" x="448" y="-787.9" font-family="Arial" font-size="14.00" fill="#000000">created_at    </text>
<text text-anchor="start" x="548.3422" y="-787.9" font-family="Arial" font-size="14.00" fill="#666666">[datetime]</text>
<polygon fill="none" stroke="#000000" points="441,-746.5 441,-776.5 636,-776.5 636,-746.5 441,-746.5"/>
<text text-anchor="start" x="448" y="-757.9" font-family="Arial" font-size="14.00" fill="#000000">updated_at    </text>
<text text-anchor="start" x="552.2468" y="-757.9" font-family="Arial" font-size="14.00" fill="#666666">[datetime]</text>
</g>
<!-- steps&#45;&gt;tasks -->
<g id="edge2" class="edge">
<title>steps:task_id&#45;&gt;tasks:id</title>
<path fill="none" stroke="#000000" d="M440.1574,-1331.214C456.8572,-1284.7237 410.0097,-1031.5 441,-1031.5"/>
<polygon fill="#000000" stroke="#000000" points="440.0079,-1331.3662 429.7898,-1335.3465 436.5039,-1334.9331 433,-1338.5 433,-1338.5 433,-1338.5 436.5039,-1334.9331 436.2102,-1341.6535 440.0079,-1331.3662 440.0079,-1331.3662"/>
<text text-anchor="start" x="321.554" y="-1322.5" font-family="Arial" font-size="10.00" fill="#000000">FOREIGN KEY (task_id) REFERENCES tasks (id)</text>
</g>
<!-- steps&#45;&gt;users -->
<g id="edge3" class="edge">
<title>steps:user_id&#45;&gt;users:id</title>
<path fill="none" stroke="#000000" d="M229.9953,-1367.9798C154.4117,-1359.5157 234.4934,-1249.4485 240,-1161 267.2225,-723.7447 51.8981,-207.5 490,-207.5"/>
<polygon fill="#000000" stroke="#000000" points="230.0135,-1367.9806 239.7663,-1372.9939 235.0067,-1368.2403 240,-1368.5 240,-1368.5 240,-1368.5 235.0067,-1368.2403 240.2337,-1364.0061 230.0135,-1367.9806 230.0135,-1367.9806"/>
<text text-anchor="start" x="6.945" y="-1378.5" font-family="Arial" font-size="10.00" fill="#000000">FOREIGN KEY (user_id) REFERENCES users (id)</text>
</g>
<!-- tags -->
<g id="node3" class="node">
<title>tags</title>
<polygon fill="#efefef" stroke="transparent" points="742,-559.5 742,-594.5 921,-594.5 921,-559.5 742,-559.5"/>
<polygon fill="none" stroke="#000000" points="742,-559.5 742,-594.5 921,-594.5 921,-559.5 742,-559.5"/>
<text text-anchor="start" x="750.7087" y="-572.3" font-family="Arial Bold" font-size="18.00" fill="#000000">tags</text>
<text text-anchor="start" x="784.7233" y="-572.3" font-family="Arial" font-size="14.00" fill="#000000">    </text>
<text text-anchor="start" x="818.9281" y="-572.3" font-family="Arial" font-size="14.00" fill="#666666">[BASE TABLE]</text>
<polygon fill="none" stroke="#000000" points="742,-529.5 742,-559.5 921,-559.5 921,-529.5 742,-529.5"/>
<text text-anchor="start" x="749" y="-540.9" font-family="Arial" font-size="14.00" fill="#000000">id    </text>
<text text-anchor="start" x="794.094" y="-540.9" font-family="Arial" font-size="14.00" fill="#666666">[char(26)]</text>
<polygon fill="none" stroke="#000000" points="742,-499.5 742,-529.5 921,-529.5 921,-499.5 742,-499.5"/>
<text text-anchor="start" x="749" y="-510.9" font-family="Arial" font-size="14.00" fill="#000000">user_id    </text>
<text text-anchor="start" x="829.1024" y="-510.9" font-family="Arial" font-size="14.00" fill="#666666">[char(26)]</text>
<polygon fill="none" stroke="#000000" points="742,-469.5 742,-499.5 921,-499.5 921,-469.5 742,-469.5"/>
<text text-anchor="start" x="749" y="-480.9" font-family="Arial" font-size="14.00" fill="#000000">name    </text>
<text text-anchor="start" x="818.2132" y="-480.9" font-family="Arial" font-size="14.00" fill="#666666">[varchar(20)]</text>
<polygon fill="none" stroke="#000000" points="742,-439.5 742,-469.5 921,-469.5 921,-439.5 742,-439.5"/>
<text text-anchor="start" x="749" y="-450.9" font-family="Arial" font-size="14.00" fill="#000000">created_at    </text>
<text text-anchor="start" x="849.3422" y="-450.9" font-family="Arial" font-size="14.00" fill="#666666">[datetime]</text>
<polygon fill="none" stroke="#000000" points="742,-409.5 742,-439.5 921,-439.5 921,-409.5 742,-409.5"/>
<text text-anchor="start" x="748.6466" y="-420.9" font-family="Arial" font-size="14.00" fill="#000000">updated_at    </text>
<text text-anchor="start" x="852.8934" y="-420.9" font-family="Arial" font-size="14.00" fill="#666666">[datetime]</text>
</g>
<!-- tags&#45;&gt;users -->
<g id="edge4" class="edge">
<title>tags:user_id&#45;&gt;users:id</title>
<path fill="none" stroke="#000000" d="M731.6742,-513.8709C613.2954,-498.524 810.9737,-207.5 675,-207.5"/>
<polygon fill="#000000" stroke="#000000" points="732.0185,-513.8918 741.7263,-518.9917 737.0093,-514.1959 742,-514.5 742,-514.5 742,-514.5 737.0093,-514.1959 742.2737,-510.0083 732.0185,-513.8918 732.0185,-513.8918"/>
<text text-anchor="start" x="508.945" y="-498.5" font-family="Arial" font-size="10.00" fill="#000000">FOREIGN KEY (user_id) REFERENCES users (id)</text>
</g>
<!-- tasks&#45;&gt;projects -->
<g id="edge5" class="edge">
<title>tasks:project_id&#45;&gt;projects:id</title>
<path fill="none" stroke="#000000" d="M430.9688,-971.057C324.7581,-961.3418 369.0287,-794.2144 441,-704 485.9155,-647.6994 554.0845,-724.3006 599,-668 624.9156,-635.5154 640.5556,-574.5 599,-574.5"/>
<polygon fill="#000000" stroke="#000000" points="431.0097,-971.0587 440.8014,-975.9956 436.0049,-971.2793 441,-971.5 441,-971.5 441,-971.5 436.0049,-971.2793 441.1986,-967.0044 431.0097,-971.0587 431.0097,-971.0587"/>
<text text-anchor="start" x="187.388" y="-981.5" font-family="Arial" font-size="10.00" fill="#000000">FOREIGN KEY (project_id) REFERENCES projects (id)</text>
</g>
<!-- tasks&#45;&gt;users -->
<g id="edge6" class="edge">
<title>tasks:user_id&#45;&gt;users:id</title>
<path fill="none" stroke="#000000" d="M640.3896,-992.3084C662.7872,-903.8985 695.6804,-207.5 675,-207.5"/>
<polygon fill="#000000" stroke="#000000" points="640.3096,-992.4762 631.9393,-999.5607 638.1548,-996.9881 636,-1001.5 636,-1001.5 636,-1001.5 638.1548,-996.9881 640.0607,-1003.4393 640.3096,-992.4762 640.3096,-992.4762"/>
<text text-anchor="start" x="642.945" y="-1011.5" font-family="Arial" font-size="10.00" fill="#000000">FOREIGN KEY (user_id) REFERENCES users (id)</text>
</g>
<!-- tasks_tags -->
<g id="node5" class="node">
<title>tasks_tags</title>
<polygon fill="#efefef" stroke="transparent" points="544,-1338.5 544,-1373.5 771,-1373.5 771,-1338.5 544,-1338.5"/>
<polygon fill="none" stroke="#000000" points="544,-1338.5 544,-1373.5 771,-1373.5 771,-1338.5 544,-1338.5"/>
<text text-anchor="start" x="550.7014" y="-1351.3" font-family="Arial Bold" font-size="18.00" fill="#000000">tasks_tags</text>
<text text-anchor="start" x="636.7306" y="-1351.3" font-family="Arial" font-size="14.00" fill="#000000">    </text>
<text text-anchor="start" x="670.9354" y="-1351.3" font-family="Arial" font-size="14.00" fill="#666666">[BASE TABLE]</text>
<polygon fill="none" stroke="#000000" points="544,-1308.5 544,-1338.5 771,-1338.5 771,-1308.5 544,-1308.5"/>
<text text-anchor="start" x="551" y="-1319.9" font-family="Arial" font-size="14.00" fill="#000000">task_id    </text>
<text text-anchor="start" x="629.5498" y="-1319.9" font-family="Arial" font-size="14.00" fill="#666666">[char(26)]</text>
<polygon fill="none" stroke="#000000" points="544,-1278.5 544,-1308.5 771,-1308.5 771,-1278.5 544,-1278.5"/>
<text text-anchor="start" x="551" y="-1289.9" font-family="Arial" font-size="14.00" fill="#000000">tag_id    </text>
<text text-anchor="start" x="623.3324" y="-1289.9" font-family="Arial" font-size="14.00" fill="#666666">[char(26)]</text>
</g>
<!-- tasks_tags&#45;&gt;tags -->
<g id="edge7" class="edge">
<title>tasks_tags:tag_id&#45;&gt;tags:id</title>
<path fill="none" stroke="#000000" d="M781.0143,-1292.4777C922.2526,-1261.6621 579.0095,-544.5 742,-544.5"/>
<polygon fill="#000000" stroke="#000000" points="780.9483,-1292.4843 770.543,-1289.0233 775.9741,-1292.9922 771,-1293.5 771,-1293.5 771,-1293.5 775.9741,-1292.9922 771.457,-1297.9767 780.9483,-1292.4843 780.9483,-1292.4843"/>
<text text-anchor="start" x="778.495" y="-1303.5" font-family="Arial" font-size="10.00" fill="#000000">FOREIGN KEY (tag_id) REFERENCES tags (id)</text>
</g>
<!-- tasks_tags&#45;&gt;tasks -->
<g id="edge8" class="edge">
<title>tasks_tags:task_id&#45;&gt;tasks:id</title>
<path fill="none" stroke="#000000" d="M534.0689,-1321.9928C510.2022,-1313.3055 532.1496,-1268.8682 544,-1236 565.7327,-1175.7226 614.2673,-1185.2774 636,-1125 650.0945,-1085.9077 677.5556,-1031.5 636,-1031.5"/>
<polygon fill="#000000" stroke="#000000" points="534.1132,-1321.9994 543.3247,-1327.9491 539.0566,-1322.7497 544,-1323.5 544,-1323.5 544,-1323.5 539.0566,-1322.7497 544.6753,-1319.0509 534.1132,-1321.9994 534.1132,-1321.9994"/>
<text text-anchor="start" x="373.304" y="-1307.5" font-family="Arial" font-size="10.00" fill="#000000">FOREIGN KEY (task_id) REFERENCES tasks (id)</text>
</g>
</g>
</svg>
