<?xml version="1.0" encoding="UTF-8" standalone="no"?>
<!DOCTYPE svg PUBLIC "-//W3C//DTD SVG 1.1//EN"
 "http://www.w3.org/Graphics/SVG/1.1/DTD/svg11.dtd">
<!-- Generated by graphviz version 12.1.2 (20240928.0832)
 -->
<!-- Title: simoomdb Pages: 1 -->
<svg width="978pt" height="1528pt"
 viewBox="0.00 0.00 977.70 1528.00" xmlns="http://www.w3.org/2000/svg" xmlns:xlink="http://www.w3.org/1999/xlink">
<g id="graph0" class="graph" transform="scale(1 1) rotate(0) translate(4 1524)">
<title>simoomdb</title>
<polygon fill="white" stroke="none" points="-4,4 -4,-1524 973.7,-1524 973.7,4 -4,4"/>
<!-- projects -->
<g id="node1" class="node">
<title>projects</title>
<polygon fill="#efefef" stroke="none" points="385.67,-601.6 385.67,-637.2 581.14,-637.2 581.14,-601.6 385.67,-601.6"/>
<polygon fill="none" stroke="black" points="385.67,-601.6 385.67,-637.2 581.14,-637.2 581.14,-601.6 385.67,-601.6"/>
<text text-anchor="start" x="392.67" y="-615" font-family="Arial Bold" font-size="18.00">projects</text>
<text text-anchor="start" x="449.65" y="-615" font-family="Arial" font-size="14.00">    </text>
<text text-anchor="start" x="480.76" y="-615" font-family="Arial" font-size="14.00" fill="#666666">[BASE TABLE]</text>
<polygon fill="none" stroke="black" points="385.67,-570.8 385.67,-601.6 581.14,-601.6 581.14,-570.8 385.67,-570.8"/>
<text text-anchor="start" x="392.67" y="-583" font-family="Arial" font-size="14.00">id </text>
<text text-anchor="start" x="407.45" y="-583" font-family="Arial" font-size="14.00" fill="#666666">[char(26)]</text>
<polygon fill="none" stroke="black" points="385.67,-540 385.67,-570.8 581.14,-570.8 581.14,-540 385.67,-540"/>
<text text-anchor="start" x="392.67" y="-552.2" font-family="Arial" font-size="14.00">user_id </text>
<text text-anchor="start" x="442.47" y="-552.2" font-family="Arial" font-size="14.00" fill="#666666">[char(26)]</text>
<polygon fill="none" stroke="black" points="385.67,-509.2 385.67,-540 581.14,-540 581.14,-509.2 385.67,-509.2"/>
<text text-anchor="start" x="392.67" y="-521.4" font-family="Arial" font-size="14.00">name </text>
<text text-anchor="start" x="431.58" y="-521.4" font-family="Arial" font-size="14.00" fill="#666666">[varchar(20)]</text>
<polygon fill="none" stroke="black" points="385.67,-478.4 385.67,-509.2 581.14,-509.2 581.14,-478.4 385.67,-478.4"/>
<text text-anchor="start" x="392.67" y="-490.6" font-family="Arial" font-size="14.00">color </text>
<text text-anchor="start" x="426.9" y="-490.6" font-family="Arial" font-size="14.00" fill="#666666">[char(7)]</text>
<polygon fill="none" stroke="black" points="385.67,-447.6 385.67,-478.4 581.14,-478.4 581.14,-447.6 385.67,-447.6"/>
<text text-anchor="start" x="392.67" y="-459.8" font-family="Arial" font-size="14.00">is_archived </text>
<text text-anchor="start" x="467.37" y="-459.8" font-family="Arial" font-size="14.00" fill="#666666">[tinyint(1)]</text>
<polygon fill="none" stroke="black" points="385.67,-416.8 385.67,-447.6 581.14,-447.6 581.14,-416.8 385.67,-416.8"/>
<text text-anchor="start" x="392.67" y="-429" font-family="Arial" font-size="14.00">created_at </text>
<text text-anchor="start" x="462.72" y="-429" font-family="Arial" font-size="14.00" fill="#666666">[datetime]</text>
<polygon fill="none" stroke="black" points="385.67,-386 385.67,-416.8 581.14,-416.8 581.14,-386 385.67,-386"/>
<text text-anchor="start" x="392.67" y="-398.2" font-family="Arial" font-size="14.00">updated_at </text>
<text text-anchor="start" x="466.63" y="-398.2" font-family="Arial" font-size="14.00" fill="#666666">[datetime]</text>
</g>
<!-- users -->
<g id="node6" class="node">
<title>users</title>
<polygon fill="#efefef" stroke="none" points="479.66,-228 479.66,-263.6 655.14,-263.6 655.14,-228 479.66,-228"/>
<polygon fill="none" stroke="black" points="479.66,-228 479.66,-263.6 655.14,-263.6 655.14,-228 479.66,-228"/>
<text text-anchor="start" x="486.66" y="-241.4" font-family="Arial Bold" font-size="18.00">users</text>
<text text-anchor="start" x="523.65" y="-241.4" font-family="Arial" font-size="14.00">    </text>
<text text-anchor="start" x="554.77" y="-241.4" font-family="Arial" font-size="14.00" fill="#666666">[BASE TABLE]</text>
<polygon fill="none" stroke="black" points="479.66,-197.2 479.66,-228 655.14,-228 655.14,-197.2 479.66,-197.2"/>
<text text-anchor="start" x="486.66" y="-209.4" font-family="Arial" font-size="14.00">id </text>
<text text-anchor="start" x="501.45" y="-209.4" font-family="Arial" font-size="14.00" fill="#666666">[char(26)]</text>
<polygon fill="none" stroke="black" points="479.66,-166.4 479.66,-197.2 655.14,-197.2 655.14,-166.4 479.66,-166.4"/>
<text text-anchor="start" x="486.66" y="-178.6" font-family="Arial" font-size="14.00">name </text>
<text text-anchor="start" x="525.57" y="-178.6" font-family="Arial" font-size="14.00" fill="#666666">[varchar(15)]</text>
<polygon fill="none" stroke="black" points="479.66,-135.6 479.66,-166.4 655.14,-166.4 655.14,-135.6 479.66,-135.6"/>
<text text-anchor="start" x="486.66" y="-147.8" font-family="Arial" font-size="14.00">email </text>
<text text-anchor="start" x="524.01" y="-147.8" font-family="Arial" font-size="14.00" fill="#666666">[varchar(254)]</text>
<polygon fill="none" stroke="black" points="479.66,-104.8 479.66,-135.6 655.14,-135.6 655.14,-104.8 479.66,-104.8"/>
<text text-anchor="start" x="486.66" y="-117" font-family="Arial" font-size="14.00">password </text>
<text text-anchor="start" x="550.47" y="-117" font-family="Arial" font-size="14.00" fill="#666666">[char(60)]</text>
<polygon fill="none" stroke="black" points="479.66,-74 479.66,-104.8 655.14,-104.8 655.14,-74 479.66,-74"/>
<text text-anchor="start" x="486.66" y="-86.2" font-family="Arial" font-size="14.00">created_at </text>
<text text-anchor="start" x="556.71" y="-86.2" font-family="Arial" font-size="14.00" fill="#666666">[datetime]</text>
<polygon fill="none" stroke="black" points="479.66,-43.2 479.66,-74 655.14,-74 655.14,-43.2 479.66,-43.2"/>
<text text-anchor="start" x="486.66" y="-55.4" font-family="Arial" font-size="14.00">updated_at </text>
<text text-anchor="start" x="560.62" y="-55.4" font-family="Arial" font-size="14.00" fill="#666666">[datetime]</text>
</g>
<!-- projects&#45;&gt;users -->
<g id="edge1" class="edge">
<title>projects:user_id&#45;&gt;users:id</title>
<path fill="none" stroke="black" d="M591.99,-552.36C626.08,-529.03 606.35,-378.32 581.14,-342.8 553.44,-303.78 507.48,-345.74 479.66,-306.8 455.32,-272.73 436.79,-212.6 478.66,-212.6"/>
<polygon fill="black" stroke="black" points="592.01,-552.35 581.13,-551 586.91,-553.93 582.78,-555.2 582.78,-555.2 582.78,-555.2 586.91,-553.93 583.78,-559.6 592.01,-552.35"/>
<text text-anchor="start" x="589.14" y="-565.4" font-family="Arial" font-size="10.00">FOREIGN KEY (user_id) REFERENCES users (id)</text>
</g>
<!-- steps -->
<g id="node2" class="node">
<title>steps</title>
<polygon fill="#efefef" stroke="none" points="241.16,-1441.2 241.16,-1476.8 415.65,-1476.8 415.65,-1441.2 241.16,-1441.2"/>
<polygon fill="none" stroke="black" points="241.16,-1441.2 241.16,-1476.8 415.65,-1476.8 415.65,-1441.2 241.16,-1441.2"/>
<text text-anchor="start" x="248.16" y="-1454.6" font-family="Arial Bold" font-size="18.00">steps</text>
<text text-anchor="start" x="284.16" y="-1454.6" font-family="Arial" font-size="14.00">    </text>
<text text-anchor="start" x="315.27" y="-1454.6" font-family="Arial" font-size="14.00" fill="#666666">[BASE TABLE]</text>
<polygon fill="none" stroke="black" points="241.16,-1410.4 241.16,-1441.2 415.65,-1441.2 415.65,-1410.4 241.16,-1410.4"/>
<text text-anchor="start" x="248.16" y="-1422.6" font-family="Arial" font-size="14.00">id </text>
<text text-anchor="start" x="262.94" y="-1422.6" font-family="Arial" font-size="14.00" fill="#666666">[char(26)]</text>
<polygon fill="none" stroke="black" points="241.16,-1379.6 241.16,-1410.4 415.65,-1410.4 415.65,-1379.6 241.16,-1379.6"/>
<text text-anchor="start" x="248.16" y="-1391.8" font-family="Arial" font-size="14.00">user_id </text>
<text text-anchor="start" x="297.96" y="-1391.8" font-family="Arial" font-size="14.00" fill="#666666">[char(26)]</text>
<polygon fill="none" stroke="black" points="241.16,-1348.8 241.16,-1379.6 415.65,-1379.6 415.65,-1348.8 241.16,-1348.8"/>
<text text-anchor="start" x="248.16" y="-1361" font-family="Arial" font-size="14.00">task_id </text>
<text text-anchor="start" x="296.41" y="-1361" font-family="Arial" font-size="14.00" fill="#666666">[char(26)]</text>
<polygon fill="none" stroke="black" points="241.16,-1318 241.16,-1348.8 415.65,-1348.8 415.65,-1318 241.16,-1318"/>
<text text-anchor="start" x="248.16" y="-1330.2" font-family="Arial" font-size="14.00">name </text>
<text text-anchor="start" x="287.07" y="-1330.2" font-family="Arial" font-size="14.00" fill="#666666">[varchar(80)]</text>
<polygon fill="none" stroke="black" points="241.16,-1287.2 241.16,-1318 415.65,-1318 415.65,-1287.2 241.16,-1287.2"/>
<text text-anchor="start" x="248.16" y="-1299.4" font-family="Arial" font-size="14.00">completed_at </text>
<text text-anchor="start" x="336.1" y="-1299.4" font-family="Arial" font-size="14.00" fill="#666666">[datetime]</text>
<polygon fill="none" stroke="black" points="241.16,-1256.4 241.16,-1287.2 415.65,-1287.2 415.65,-1256.4 241.16,-1256.4"/>
<text text-anchor="start" x="248.16" y="-1268.6" font-family="Arial" font-size="14.00">created_at </text>
<text text-anchor="start" x="318.21" y="-1268.6" font-family="Arial" font-size="14.00" fill="#666666">[datetime]</text>
<polygon fill="none" stroke="black" points="241.16,-1225.6 241.16,-1256.4 415.65,-1256.4 415.65,-1225.6 241.16,-1225.6"/>
<text text-anchor="start" x="248.16" y="-1237.8" font-family="Arial" font-size="14.00">updated_at </text>
<text text-anchor="start" x="322.12" y="-1237.8" font-family="Arial" font-size="14.00" fill="#666666">[datetime]</text>
</g>
<!-- tasks -->
<g id="node4" class="node">
<title>tasks</title>
<polygon fill="#efefef" stroke="none" points="437.16,-1067.6 437.16,-1103.2 611.65,-1103.2 611.65,-1067.6 437.16,-1067.6"/>
<polygon fill="none" stroke="black" points="437.16,-1067.6 437.16,-1103.2 611.65,-1103.2 611.65,-1067.6 437.16,-1067.6"/>
<text text-anchor="start" x="444.16" y="-1081" font-family="Arial Bold" font-size="18.00">tasks</text>
<text text-anchor="start" x="480.16" y="-1081" font-family="Arial" font-size="14.00">    </text>
<text text-anchor="start" x="511.27" y="-1081" font-family="Arial" font-size="14.00" fill="#666666">[BASE TABLE]</text>
<polygon fill="none" stroke="black" points="437.16,-1036.8 437.16,-1067.6 611.65,-1067.6 611.65,-1036.8 437.16,-1036.8"/>
<text text-anchor="start" x="444.16" y="-1049" font-family="Arial" font-size="14.00">id </text>
<text text-anchor="start" x="458.94" y="-1049" font-family="Arial" font-size="14.00" fill="#666666">[char(26)]</text>
<polygon fill="none" stroke="black" points="437.16,-1006 437.16,-1036.8 611.65,-1036.8 611.65,-1006 437.16,-1006"/>
<text text-anchor="start" x="444.16" y="-1018.2" font-family="Arial" font-size="14.00">user_id </text>
<text text-anchor="start" x="493.96" y="-1018.2" font-family="Arial" font-size="14.00" fill="#666666">[char(26)]</text>
<polygon fill="none" stroke="black" points="437.16,-975.2 437.16,-1006 611.65,-1006 611.65,-975.2 437.16,-975.2"/>
<text text-anchor="start" x="444.16" y="-987.4" font-family="Arial" font-size="14.00">project_id </text>
<text text-anchor="start" x="508.75" y="-987.4" font-family="Arial" font-size="14.00" fill="#666666">[char(26)]</text>
<polygon fill="none" stroke="black" points="437.16,-944.4 437.16,-975.2 611.65,-975.2 611.65,-944.4 437.16,-944.4"/>
<text text-anchor="start" x="444.16" y="-956.6" font-family="Arial" font-size="14.00">name </text>
<text text-anchor="start" x="483.07" y="-956.6" font-family="Arial" font-size="14.00" fill="#666666">[varchar(80)]</text>
<polygon fill="none" stroke="black" points="437.16,-913.6 437.16,-944.4 611.65,-944.4 611.65,-913.6 437.16,-913.6"/>
<text text-anchor="start" x="444.16" y="-925.8" font-family="Arial" font-size="14.00">content </text>
<text text-anchor="start" x="493.97" y="-925.8" font-family="Arial" font-size="14.00" fill="#666666">[varchar(300)]</text>
<polygon fill="none" stroke="black" points="437.16,-882.8 437.16,-913.6 611.65,-913.6 611.65,-882.8 437.16,-882.8"/>
<text text-anchor="start" x="444.16" y="-895" font-family="Arial" font-size="14.00">priority </text>
<text text-anchor="start" x="490.05" y="-895" font-family="Arial" font-size="14.00" fill="#666666">[tinyint unsigned]</text>
<polygon fill="none" stroke="black" points="437.16,-852 437.16,-882.8 611.65,-882.8 611.65,-852 437.16,-852"/>
<text text-anchor="start" x="444.16" y="-864.2" font-family="Arial" font-size="14.00">due_on </text>
<text text-anchor="start" x="494.76" y="-864.2" font-family="Arial" font-size="14.00" fill="#666666">[date]</text>
<polygon fill="none" stroke="black" points="437.16,-821.2 437.16,-852 611.65,-852 611.65,-821.2 437.16,-821.2"/>
<text text-anchor="start" x="444.16" y="-833.4" font-family="Arial" font-size="14.00">completed_at </text>
<text text-anchor="start" x="532.1" y="-833.4" font-family="Arial" font-size="14.00" fill="#666666">[datetime]</text>
<polygon fill="none" stroke="black" points="437.16,-790.4 437.16,-821.2 611.65,-821.2 611.65,-790.4 437.16,-790.4"/>
<text text-anchor="start" x="444.16" y="-802.6" font-family="Arial" font-size="14.00">created_at </text>
<text text-anchor="start" x="514.21" y="-802.6" font-family="Arial" font-size="14.00" fill="#666666">[datetime]</text>
<polygon fill="none" stroke="black" points="437.16,-759.6 437.16,-790.4 611.65,-790.4 611.65,-759.6 437.16,-759.6"/>
<text text-anchor="start" x="444.16" y="-771.8" font-family="Arial" font-size="14.00">updated_at </text>
<text text-anchor="start" x="518.12" y="-771.8" font-family="Arial" font-size="14.00" fill="#666666">[datetime]</text>
</g>
<!-- steps&#45;&gt;tasks -->
<g id="edge2" class="edge">
<title>steps:task_id&#45;&gt;tasks:id</title>
<path fill="none" stroke="black" d="M426.82,-1363.56C542.24,-1347.96 300.88,-1052.2 436.16,-1052.2"/>
<polygon fill="black" stroke="black" points="426.96,-1363.55 416.7,-1359.69 421.64,-1363.89 417.31,-1364.16 417.31,-1364.16 417.31,-1364.16 421.64,-1363.89 417.26,-1368.67 426.96,-1363.55"/>
<text text-anchor="start" x="423.65" y="-1374.2" font-family="Arial" font-size="10.00">FOREIGN KEY (task_id) REFERENCES tasks (id)</text>
</g>
<!-- steps&#45;&gt;users -->
<g id="edge3" class="edge">
<title>steps:user_id&#45;&gt;users:id</title>
<path fill="none" stroke="black" d="M229.91,-1394.47C152.58,-1385.8 235.98,-1273.05 241.16,-1182.4 266.47,-739.36 34.9,-212.6 478.66,-212.6"/>
<polygon fill="black" stroke="black" points="229.84,-1394.46 239.59,-1399.48 235.16,-1394.74 239.49,-1394.97 239.49,-1394.97 239.49,-1394.97 235.16,-1394.74 240.06,-1390.49 229.84,-1394.46"/>
<text text-anchor="start" x="7" y="-1405" font-family="Arial" font-size="10.00">FOREIGN KEY (user_id) REFERENCES users (id)</text>
</g>
<!-- tags -->
<g id="node3" class="node">
<title>tags</title>
<polygon fill="#efefef" stroke="none" points="723.66,-570.8 723.66,-606.4 891.14,-606.4 891.14,-570.8 723.66,-570.8"/>
<polygon fill="none" stroke="black" points="723.66,-570.8 723.66,-606.4 891.14,-606.4 891.14,-570.8 723.66,-570.8"/>
<text text-anchor="start" x="730.66" y="-584.2" font-family="Arial Bold" font-size="18.00">tags</text>
<text text-anchor="start" x="759.65" y="-584.2" font-family="Arial" font-size="14.00">    </text>
<text text-anchor="start" x="790.77" y="-584.2" font-family="Arial" font-size="14.00" fill="#666666">[BASE TABLE]</text>
<polygon fill="none" stroke="black" points="723.66,-540 723.66,-570.8 891.14,-570.8 891.14,-540 723.66,-540"/>
<text text-anchor="start" x="730.66" y="-552.2" font-family="Arial" font-size="14.00">id </text>
<text text-anchor="start" x="745.45" y="-552.2" font-family="Arial" font-size="14.00" fill="#666666">[char(26)]</text>
<polygon fill="none" stroke="black" points="723.66,-509.2 723.66,-540 891.14,-540 891.14,-509.2 723.66,-509.2"/>
<text text-anchor="start" x="730.66" y="-521.4" font-family="Arial" font-size="14.00">user_id </text>
<text text-anchor="start" x="780.47" y="-521.4" font-family="Arial" font-size="14.00" fill="#666666">[char(26)]</text>
<polygon fill="none" stroke="black" points="723.66,-478.4 723.66,-509.2 891.14,-509.2 891.14,-478.4 723.66,-478.4"/>
<text text-anchor="start" x="730.66" y="-490.6" font-family="Arial" font-size="14.00">name </text>
<text text-anchor="start" x="769.57" y="-490.6" font-family="Arial" font-size="14.00" fill="#666666">[varchar(20)]</text>
<polygon fill="none" stroke="black" points="723.66,-447.6 723.66,-478.4 891.14,-478.4 891.14,-447.6 723.66,-447.6"/>
<text text-anchor="start" x="730.66" y="-459.8" font-family="Arial" font-size="14.00">created_at </text>
<text text-anchor="start" x="800.71" y="-459.8" font-family="Arial" font-size="14.00" fill="#666666">[datetime]</text>
<polygon fill="none" stroke="black" points="723.66,-416.8 723.66,-447.6 891.14,-447.6 891.14,-416.8 723.66,-416.8"/>
<text text-anchor="start" x="730.66" y="-429" font-family="Arial" font-size="14.00">updated_at </text>
<text text-anchor="start" x="804.62" y="-429" font-family="Arial" font-size="14.00" fill="#666666">[datetime]</text>
</g>
<!-- tags&#45;&gt;users -->
<g id="edge4" class="edge">
<title>tags:user_id&#45;&gt;users:id</title>
<path fill="none" stroke="black" d="M712.54,-524.01C591.67,-508.96 794.33,-212.6 656.14,-212.6"/>
<polygon fill="black" stroke="black" points="712.34,-524 722.06,-529.07 717.67,-524.31 721.99,-524.56 721.99,-524.56 721.99,-524.56 717.67,-524.31 722.59,-520.09 712.34,-524"/>
<text text-anchor="start" x="549.54" y="-508.6" font-family="Arial" font-size="10.00">FOREIGN KEY (user_id) REFERENCES users (id)</text>
</g>
<!-- tasks&#45;&gt;projects -->
<g id="edge5" class="edge">
<title>tasks:project_id&#45;&gt;projects:id</title>
<path fill="none" stroke="black" d="M425.88,-990.15C317.11,-980.22 364.19,-809.51 437.16,-716.4 477.84,-664.48 540.27,-732.18 581.14,-680.4 607.08,-647.54 624.01,-586.2 582.14,-586.2"/>
<polygon fill="black" stroke="black" points="425.83,-990.15 435.63,-995.08 431.16,-990.38 435.49,-990.57 435.49,-990.57 435.49,-990.57 431.16,-990.38 436.02,-986.09 425.83,-990.15"/>
<text text-anchor="start" x="181.88" y="-1000.6" font-family="Arial" font-size="10.00">FOREIGN KEY (project_id) REFERENCES projects (id)</text>
</g>
<!-- tasks&#45;&gt;users -->
<g id="edge6" class="edge">
<title>tasks:user_id&#45;&gt;users:id</title>
<path fill="none" stroke="black" d="M617.16,-1012.04C640.4,-921.98 677.21,-212.6 656.14,-212.6"/>
<polygon fill="black" stroke="black" points="617.14,-1012.09 608.74,-1019.14 614.82,-1016.9 612.94,-1020.8 612.94,-1020.8 612.94,-1020.8 614.82,-1016.9 616.84,-1023.05 617.14,-1012.09"/>
<text text-anchor="start" x="619.65" y="-1031.4" font-family="Arial" font-size="10.00">FOREIGN KEY (user_id) REFERENCES users (id)</text>
</g>
<!-- tasks_tags -->
<g id="node5" class="node">
<title>tasks_tags</title>
<polygon fill="#efefef" stroke="none" points="527.16,-1379.6 527.16,-1415.2 739.64,-1415.2 739.64,-1379.6 527.16,-1379.6"/>
<polygon fill="none" stroke="black" points="527.16,-1379.6 527.16,-1415.2 739.64,-1415.2 739.64,-1379.6 527.16,-1379.6"/>
<text text-anchor="start" x="534.16" y="-1393" font-family="Arial Bold" font-size="18.00">tasks_tags</text>
<text text-anchor="start" x="608.15" y="-1393" font-family="Arial" font-size="14.00">    </text>
<text text-anchor="start" x="639.27" y="-1393" font-family="Arial" font-size="14.00" fill="#666666">[BASE TABLE]</text>
<polygon fill="none" stroke="black" points="527.16,-1348.8 527.16,-1379.6 739.64,-1379.6 739.64,-1348.8 527.16,-1348.8"/>
<text text-anchor="start" x="534.16" y="-1361" font-family="Arial" font-size="14.00">task_id </text>
<text text-anchor="start" x="582.41" y="-1361" font-family="Arial" font-size="14.00" fill="#666666">[char(26)]</text>
<polygon fill="none" stroke="black" points="527.16,-1318 527.16,-1348.8 739.64,-1348.8 739.64,-1318 527.16,-1318"/>
<text text-anchor="start" x="534.16" y="-1330.2" font-family="Arial" font-size="14.00">tag_id </text>
<text text-anchor="start" x="576.19" y="-1330.2" font-family="Arial" font-size="14.00" fill="#666666">[char(26)]</text>
<polygon fill="none" stroke="black" points="527.16,-1287.2 527.16,-1318 739.64,-1318 739.64,-1287.2 527.16,-1287.2"/>
<text text-anchor="start" x="534.16" y="-1299.4" font-family="Arial" font-size="14.00">created_at </text>
<text text-anchor="start" x="604.21" y="-1299.4" font-family="Arial" font-size="14.00" fill="#666666">[datetime]</text>
</g>
<!-- tasks_tags&#45;&gt;tags -->
<g id="edge7" class="edge">
<title>tasks_tags:tag_id&#45;&gt;tags:id</title>
<path fill="none" stroke="black" d="M750.62,-1332.43C898.88,-1301.82 553.27,-555.4 722.66,-555.4"/>
<polygon fill="black" stroke="black" points="750.93,-1332.4 740.54,-1328.89 745.62,-1332.92 741.31,-1333.34 741.31,-1333.34 741.31,-1333.34 745.62,-1332.92 741.41,-1337.85 750.93,-1332.4"/>
<text text-anchor="start" x="747.64" y="-1343.4" font-family="Arial" font-size="10.00">FOREIGN KEY (tag_id) REFERENCES tags (id)</text>
</g>
<!-- tasks_tags&#45;&gt;tasks -->
<g id="edge8" class="edge">
<title>tasks_tags:task_id&#45;&gt;tasks:id</title>
<path fill="none" stroke="black" d="M516.17,-1363.19C477.65,-1354.43 509.62,-1290.47 527.16,-1244 547.42,-1190.32 591.32,-1200.05 611.65,-1146.4 626.48,-1107.25 654.52,-1052.2 612.65,-1052.2"/>
<polygon fill="black" stroke="black" points="515.88,-1363.16 525.37,-1368.64 521.19,-1363.7 525.49,-1364.13 525.49,-1364.13 525.49,-1364.13 521.19,-1363.7 526.28,-1359.69 515.88,-1363.16"/>
<text text-anchor="start" x="473.68" y="-1348.2" font-family="Arial" font-size="10.00">FOREIGN KEY (task_id) REFERENCES tasks (id)</text>
</g>
</g>
</svg>
