<?xml version="1.0" encoding="UTF-8" standalone="no"?>
<!DOCTYPE svg PUBLIC "-//W3C//DTD SVG 1.1//EN"
 "http://www.w3.org/Graphics/SVG/1.1/DTD/svg11.dtd">
<!-- Generated by graphviz version 12.1.2 (20240928.0832)
 -->
<!-- Title: steps Pages: 1 -->
<svg width="663pt" height="818pt"
 viewBox="0.00 0.00 662.58 817.60" xmlns="http://www.w3.org/2000/svg" xmlns:xlink="http://www.w3.org/1999/xlink">
<g id="graph0" class="graph" transform="scale(1 1) rotate(0) translate(4 813.6)">
<title>steps</title>
<polygon fill="white" stroke="none" points="-4,4 -4,-813.6 658.58,-813.6 658.58,4 -4,4"/>
<!-- steps -->
<g id="node1" class="node">
<title>steps</title>
<polygon fill="#efefef" stroke="none" points="241.16,-727.8 241.16,-763.4 415.65,-763.4 415.65,-727.8 241.16,-727.8"/>
<polygon fill="none" stroke="black" points="241.16,-727.8 241.16,-763.4 415.65,-763.4 415.65,-727.8 241.16,-727.8"/>
<text text-anchor="start" x="248.16" y="-741.2" font-family="Arial Bold" font-size="18.00">steps</text>
<text text-anchor="start" x="284.16" y="-741.2" font-family="Arial" font-size="14.00">    </text>
<text text-anchor="start" x="315.27" y="-741.2" font-family="Arial" font-size="14.00" fill="#666666">[BASE TABLE]</text>
<polygon fill="none" stroke="black" points="241.16,-697 241.16,-727.8 415.65,-727.8 415.65,-697 241.16,-697"/>
<text text-anchor="start" x="248.16" y="-709.2" font-family="Arial" font-size="14.00">id </text>
<text text-anchor="start" x="262.94" y="-709.2" font-family="Arial" font-size="14.00" fill="#666666">[char(26)]</text>
<polygon fill="none" stroke="black" points="241.16,-666.2 241.16,-697 415.65,-697 415.65,-666.2 241.16,-666.2"/>
<text text-anchor="start" x="248.16" y="-678.4" font-family="Arial" font-size="14.00">user_id </text>
<text text-anchor="start" x="297.96" y="-678.4" font-family="Arial" font-size="14.00" fill="#666666">[char(26)]</text>
<polygon fill="none" stroke="black" points="241.16,-635.4 241.16,-666.2 415.65,-666.2 415.65,-635.4 241.16,-635.4"/>
<text text-anchor="start" x="248.16" y="-647.6" font-family="Arial" font-size="14.00">task_id </text>
<text text-anchor="start" x="296.41" y="-647.6" font-family="Arial" font-size="14.00" fill="#666666">[char(26)]</text>
<polygon fill="none" stroke="black" points="241.16,-604.6 241.16,-635.4 415.65,-635.4 415.65,-604.6 241.16,-604.6"/>
<text text-anchor="start" x="248.16" y="-616.8" font-family="Arial" font-size="14.00">name </text>
<text text-anchor="start" x="287.07" y="-616.8" font-family="Arial" font-size="14.00" fill="#666666">[varchar(80)]</text>
<polygon fill="none" stroke="black" points="241.16,-573.8 241.16,-604.6 415.65,-604.6 415.65,-573.8 241.16,-573.8"/>
<text text-anchor="start" x="248.16" y="-586" font-family="Arial" font-size="14.00">completed_at </text>
<text text-anchor="start" x="336.1" y="-586" font-family="Arial" font-size="14.00" fill="#666666">[datetime]</text>
<polygon fill="none" stroke="black" points="241.16,-543 241.16,-573.8 415.65,-573.8 415.65,-543 241.16,-543"/>
<text text-anchor="start" x="248.16" y="-555.2" font-family="Arial" font-size="14.00">created_at </text>
<text text-anchor="start" x="318.21" y="-555.2" font-family="Arial" font-size="14.00" fill="#666666">[datetime]</text>
<polygon fill="none" stroke="black" points="241.16,-512.2 241.16,-543 415.65,-543 415.65,-512.2 241.16,-512.2"/>
<text text-anchor="start" x="248.16" y="-524.4" font-family="Arial" font-size="14.00">updated_at </text>
<text text-anchor="start" x="322.12" y="-524.4" font-family="Arial" font-size="14.00" fill="#666666">[datetime]</text>
<polygon fill="none" stroke="black" stroke-width="3" points="239.66,-510.7 239.66,-764.9 417.15,-764.9 417.15,-510.7 239.66,-510.7"/>
</g>
<!-- users -->
<g id="node2" class="node">
<title>users</title>
<polygon fill="#efefef" stroke="none" points="101.66,-289.6 101.66,-325.2 277.14,-325.2 277.14,-289.6 101.66,-289.6"/>
<polygon fill="none" stroke="black" points="101.66,-289.6 101.66,-325.2 277.14,-325.2 277.14,-289.6 101.66,-289.6"/>
<text text-anchor="start" x="108.66" y="-303" font-family="Arial Bold" font-size="18.00">users</text>
<text text-anchor="start" x="145.65" y="-303" font-family="Arial" font-size="14.00">    </text>
<text text-anchor="start" x="176.77" y="-303" font-family="Arial" font-size="14.00" fill="#666666">[BASE TABLE]</text>
<polygon fill="none" stroke="black" points="101.66,-258.8 101.66,-289.6 277.14,-289.6 277.14,-258.8 101.66,-258.8"/>
<text text-anchor="start" x="108.66" y="-271" font-family="Arial" font-size="14.00">id </text>
<text text-anchor="start" x="123.45" y="-271" font-family="Arial" font-size="14.00" fill="#666666">[char(26)]</text>
<polygon fill="none" stroke="black" points="101.66,-228 101.66,-258.8 277.14,-258.8 277.14,-228 101.66,-228"/>
<text text-anchor="start" x="108.66" y="-240.2" font-family="Arial" font-size="14.00">name </text>
<text text-anchor="start" x="147.57" y="-240.2" font-family="Arial" font-size="14.00" fill="#666666">[varchar(15)]</text>
<polygon fill="none" stroke="black" points="101.66,-197.2 101.66,-228 277.14,-228 277.14,-197.2 101.66,-197.2"/>
<text text-anchor="start" x="108.66" y="-209.4" font-family="Arial" font-size="14.00">email </text>
<text text-anchor="start" x="146.01" y="-209.4" font-family="Arial" font-size="14.00" fill="#666666">[varchar(254)]</text>
<polygon fill="none" stroke="black" points="101.66,-166.4 101.66,-197.2 277.14,-197.2 277.14,-166.4 101.66,-166.4"/>
<text text-anchor="start" x="108.66" y="-178.6" font-family="Arial" font-size="14.00">password </text>
<text text-anchor="start" x="172.47" y="-178.6" font-family="Arial" font-size="14.00" fill="#666666">[char(60)]</text>
<polygon fill="none" stroke="black" points="101.66,-135.6 101.66,-166.4 277.14,-166.4 277.14,-135.6 101.66,-135.6"/>
<text text-anchor="start" x="108.66" y="-147.8" font-family="Arial" font-size="14.00">created_at </text>
<text text-anchor="start" x="178.71" y="-147.8" font-family="Arial" font-size="14.00" fill="#666666">[datetime]</text>
<polygon fill="none" stroke="black" points="101.66,-104.8 101.66,-135.6 277.14,-135.6 277.14,-104.8 101.66,-104.8"/>
<text text-anchor="start" x="108.66" y="-117" font-family="Arial" font-size="14.00">updated_at </text>
<text text-anchor="start" x="182.62" y="-117" font-family="Arial" font-size="14.00" fill="#666666">[datetime]</text>
</g>
<!-- steps&#45;&gt;users -->
<g id="edge1" class="edge">
<title>steps:user_id&#45;&gt;users:id</title>
<path fill="none" stroke="black" d="M230.2,-681.11C150.17,-672.63 224.73,-556.79 241.16,-466 249.39,-420.51 268.78,-413.87 277.14,-368.4 284.72,-327.22 320.01,-274.2 278.14,-274.2"/>
<polygon fill="black" stroke="black" points="229.84,-681.09 239.6,-686.08 235.16,-681.35 239.49,-681.57 239.49,-681.57 239.49,-681.57 235.16,-681.35 240.05,-677.09 229.84,-681.09"/>
<text text-anchor="start" x="7" y="-691.6" font-family="Arial" font-size="10.00">FOREIGN KEY (user_id) REFERENCES users (id)</text>
</g>
<!-- tasks -->
<g id="node3" class="node">
<title>tasks</title>
<polygon fill="#efefef" stroke="none" points="381.16,-351.2 381.16,-386.8 555.65,-386.8 555.65,-351.2 381.16,-351.2"/>
<polygon fill="none" stroke="black" points="381.16,-351.2 381.16,-386.8 555.65,-386.8 555.65,-351.2 381.16,-351.2"/>
<text text-anchor="start" x="388.16" y="-364.6" font-family="Arial Bold" font-size="18.00">tasks</text>
<text text-anchor="start" x="424.16" y="-364.6" font-family="Arial" font-size="14.00">    </text>
<text text-anchor="start" x="455.27" y="-364.6" font-family="Arial" font-size="14.00" fill="#666666">[BASE TABLE]</text>
<polygon fill="none" stroke="black" points="381.16,-320.4 381.16,-351.2 555.65,-351.2 555.65,-320.4 381.16,-320.4"/>
<text text-anchor="start" x="388.16" y="-332.6" font-family="Arial" font-size="14.00">id </text>
<text text-anchor="start" x="402.94" y="-332.6" font-family="Arial" font-size="14.00" fill="#666666">[char(26)]</text>
<polygon fill="none" stroke="black" points="381.16,-289.6 381.16,-320.4 555.65,-320.4 555.65,-289.6 381.16,-289.6"/>
<text text-anchor="start" x="388.16" y="-301.8" font-family="Arial" font-size="14.00">user_id </text>
<text text-anchor="start" x="437.96" y="-301.8" font-family="Arial" font-size="14.00" fill="#666666">[char(26)]</text>
<polygon fill="none" stroke="black" points="381.16,-258.8 381.16,-289.6 555.65,-289.6 555.65,-258.8 381.16,-258.8"/>
<text text-anchor="start" x="388.16" y="-271" font-family="Arial" font-size="14.00">project_id </text>
<text text-anchor="start" x="452.75" y="-271" font-family="Arial" font-size="14.00" fill="#666666">[char(26)]</text>
<polygon fill="none" stroke="black" points="381.16,-228 381.16,-258.8 555.65,-258.8 555.65,-228 381.16,-228"/>
<text text-anchor="start" x="388.16" y="-240.2" font-family="Arial" font-size="14.00">name </text>
<text text-anchor="start" x="427.07" y="-240.2" font-family="Arial" font-size="14.00" fill="#666666">[varchar(80)]</text>
<polygon fill="none" stroke="black" points="381.16,-197.2 381.16,-228 555.65,-228 555.65,-197.2 381.16,-197.2"/>
<text text-anchor="start" x="388.16" y="-209.4" font-family="Arial" font-size="14.00">content </text>
<text text-anchor="start" x="437.97" y="-209.4" font-family="Arial" font-size="14.00" fill="#666666">[varchar(300)]</text>
<polygon fill="none" stroke="black" points="381.16,-166.4 381.16,-197.2 555.65,-197.2 555.65,-166.4 381.16,-166.4"/>
<text text-anchor="start" x="388.16" y="-178.6" font-family="Arial" font-size="14.00">priority </text>
<text text-anchor="start" x="434.05" y="-178.6" font-family="Arial" font-size="14.00" fill="#666666">[tinyint unsigned]</text>
<polygon fill="none" stroke="black" points="381.16,-135.6 381.16,-166.4 555.65,-166.4 555.65,-135.6 381.16,-135.6"/>
<text text-anchor="start" x="388.16" y="-147.8" font-family="Arial" font-size="14.00">due_on </text>
<text text-anchor="start" x="438.76" y="-147.8" font-family="Arial" font-size="14.00" fill="#666666">[date]</text>
<polygon fill="none" stroke="black" points="381.16,-104.8 381.16,-135.6 555.65,-135.6 555.65,-104.8 381.16,-104.8"/>
<text text-anchor="start" x="388.16" y="-117" font-family="Arial" font-size="14.00">completed_at </text>
<text text-anchor="start" x="476.1" y="-117" font-family="Arial" font-size="14.00" fill="#666666">[datetime]</text>
<polygon fill="none" stroke="black" points="381.16,-74 381.16,-104.8 555.65,-104.8 555.65,-74 381.16,-74"/>
<text text-anchor="start" x="388.16" y="-86.2" font-family="Arial" font-size="14.00">created_at </text>
<text text-anchor="start" x="458.21" y="-86.2" font-family="Arial" font-size="14.00" fill="#666666">[datetime]</text>
<polygon fill="none" stroke="black" points="381.16,-43.2 381.16,-74 555.65,-74 555.65,-43.2 381.16,-43.2"/>
<text text-anchor="start" x="388.16" y="-55.4" font-family="Arial" font-size="14.00">updated_at </text>
<text text-anchor="start" x="462.12" y="-55.4" font-family="Arial" font-size="14.00" fill="#666666">[datetime]</text>
</g>
<!-- steps&#45;&gt;tasks -->
<g id="edge2" class="edge">
<title>steps:task_id&#45;&gt;tasks:id</title>
<path fill="none" stroke="black" d="M426.92,-650.15C494.12,-641.1 445.08,-538.71 415.65,-466 407.33,-445.46 389.53,-450.52 381.16,-430 365.34,-391.23 338.29,-335.8 380.16,-335.8"/>
<polygon fill="black" stroke="black" points="426.96,-650.15 416.7,-646.29 421.64,-650.49 417.31,-650.76 417.31,-650.76 417.31,-650.76 421.64,-650.49 417.26,-655.27 426.96,-650.15"/>
<text text-anchor="start" x="423.65" y="-660.8" font-family="Arial" font-size="10.00">FOREIGN KEY (task_id) REFERENCES tasks (id)</text>
</g>
</g>
</svg>
