<?xml version="1.0" encoding="UTF-8" standalone="no"?>
<!DOCTYPE svg PUBLIC "-//W3C//DTD SVG 1.1//EN"
 "http://www.w3.org/Graphics/SVG/1.1/DTD/svg11.dtd">
<!-- Generated by graphviz version 2.40.1 (20161225.0304)
 -->
<!-- Title: steps Pages: 1 -->
<svg width="669pt" height="802pt"
 viewBox="0.00 0.00 669.00 802.00" xmlns="http://www.w3.org/2000/svg" xmlns:xlink="http://www.w3.org/1999/xlink">
<g id="graph0" class="graph" transform="scale(1 1) rotate(0) translate(4 798)">
<title>steps</title>
<polygon fill="#ffffff" stroke="transparent" points="-4,4 -4,-798 665,-798 665,4 -4,4"/>
<!-- steps -->
<g id="node1" class="node">
<title>steps</title>
<polygon fill="#efefef" stroke="transparent" points="240,-712.5 240,-747.5 424,-747.5 424,-712.5 240,-712.5"/>
<polygon fill="none" stroke="#000000" points="240,-712.5 240,-747.5 424,-747.5 424,-712.5 240,-712.5"/>
<text text-anchor="start" x="246.7087" y="-725.3" font-family="Arial Bold" font-size="18.00" fill="#000000">steps</text>
<text text-anchor="start" x="289.7233" y="-725.3" font-family="Arial" font-size="14.00" fill="#000000">    </text>
<text text-anchor="start" x="323.9281" y="-725.3" font-family="Arial" font-size="14.00" fill="#666666">[BASE TABLE]</text>
<polygon fill="none" stroke="#000000" points="240,-682.5 240,-712.5 424,-712.5 424,-682.5 240,-682.5"/>
<text text-anchor="start" x="247" y="-693.9" font-family="Arial" font-size="14.00" fill="#000000">id </text>
<text text-anchor="start" x="261.7798" y="-693.9" font-family="Arial" font-size="14.00" fill="#666666">[char(26)]</text>
<polygon fill="none" stroke="#000000" points="240,-652.5 240,-682.5 424,-682.5 424,-652.5 240,-652.5"/>
<text text-anchor="start" x="247" y="-663.9" font-family="Arial" font-size="14.00" fill="#000000">user_id </text>
<text text-anchor="start" x="296.7882" y="-663.9" font-family="Arial" font-size="14.00" fill="#666666">[char(26)]</text>
<polygon fill="none" stroke="#000000" points="240,-622.5 240,-652.5 424,-652.5 424,-622.5 240,-622.5"/>
<text text-anchor="start" x="247" y="-633.9" font-family="Arial" font-size="14.00" fill="#000000">task_id </text>
<text text-anchor="start" x="295.2356" y="-633.9" font-family="Arial" font-size="14.00" fill="#666666">[char(26)]</text>
<polygon fill="none" stroke="#000000" points="240,-592.5 240,-622.5 424,-622.5 424,-592.5 240,-592.5"/>
<text text-anchor="start" x="247" y="-603.9" font-family="Arial" font-size="14.00" fill="#000000">name </text>
<text text-anchor="start" x="285.899" y="-603.9" font-family="Arial" font-size="14.00" fill="#666666">[varchar(80)]</text>
<polygon fill="none" stroke="#000000" points="240,-562.5 240,-592.5 424,-592.5 424,-562.5 240,-562.5"/>
<text text-anchor="start" x="247" y="-573.9" font-family="Arial" font-size="14.00" fill="#000000">completed_at </text>
<text text-anchor="start" x="334.9172" y="-573.9" font-family="Arial" font-size="14.00" fill="#666666">[datetime]</text>
<polygon fill="none" stroke="#000000" points="240,-532.5 240,-562.5 424,-562.5 424,-532.5 240,-532.5"/>
<text text-anchor="start" x="247" y="-543.9" font-family="Arial" font-size="14.00" fill="#000000">created_at </text>
<text text-anchor="start" x="317.028" y="-543.9" font-family="Arial" font-size="14.00" fill="#666666">[datetime]</text>
<polygon fill="none" stroke="#000000" points="240,-502.5 240,-532.5 424,-532.5 424,-502.5 240,-502.5"/>
<text text-anchor="start" x="247" y="-513.9" font-family="Arial" font-size="14.00" fill="#000000">updated_at </text>
<text text-anchor="start" x="320.9326" y="-513.9" font-family="Arial" font-size="14.00" fill="#666666">[datetime]</text>
<polygon fill="none" stroke="#000000" stroke-width="3" points="238.5,-501.5 238.5,-749.5 425.5,-749.5 425.5,-501.5 238.5,-501.5"/>
</g>
<!-- users -->
<g id="node2" class="node">
<title>users</title>
<polygon fill="#efefef" stroke="transparent" points="92,-282.5 92,-317.5 277,-317.5 277,-282.5 92,-282.5"/>
<polygon fill="none" stroke="#000000" points="92,-282.5 92,-317.5 277,-317.5 277,-282.5 92,-282.5"/>
<text text-anchor="start" x="98.7137" y="-295.3" font-family="Arial Bold" font-size="18.00" fill="#000000">users</text>
<text text-anchor="start" x="142.7183" y="-295.3" font-family="Arial" font-size="14.00" fill="#000000">    </text>
<text text-anchor="start" x="176.9231" y="-295.3" font-family="Arial" font-size="14.00" fill="#666666">[BASE TABLE]</text>
<polygon fill="none" stroke="#000000" points="92,-252.5 92,-282.5 277,-282.5 277,-252.5 92,-252.5"/>
<text text-anchor="start" x="99" y="-263.9" font-family="Arial" font-size="14.00" fill="#000000">id    </text>
<text text-anchor="start" x="144.094" y="-263.9" font-family="Arial" font-size="14.00" fill="#666666">[char(30)]</text>
<polygon fill="none" stroke="#000000" points="92,-222.5 92,-252.5 277,-252.5 277,-222.5 92,-222.5"/>
<text text-anchor="start" x="99" y="-233.9" font-family="Arial" font-size="14.00" fill="#000000">name    </text>
<text text-anchor="start" x="168.2132" y="-233.9" font-family="Arial" font-size="14.00" fill="#666666">[varchar(15)]</text>
<polygon fill="none" stroke="#000000" points="92,-192.5 92,-222.5 277,-222.5 277,-192.5 92,-192.5"/>
<text text-anchor="start" x="99" y="-203.9" font-family="Arial" font-size="14.00" fill="#000000">email    </text>
<text text-anchor="start" x="166.6438" y="-203.9" font-family="Arial" font-size="14.00" fill="#666666">[varchar(254)]</text>
<polygon fill="none" stroke="#000000" points="92,-162.5 92,-192.5 277,-192.5 277,-162.5 92,-162.5"/>
<text text-anchor="start" x="99" y="-173.9" font-family="Arial" font-size="14.00" fill="#000000">password    </text>
<text text-anchor="start" x="193.1024" y="-173.9" font-family="Arial" font-size="14.00" fill="#666666">[char(60)]</text>
<polygon fill="none" stroke="#000000" points="92,-132.5 92,-162.5 277,-162.5 277,-132.5 92,-132.5"/>
<text text-anchor="start" x="99" y="-143.9" font-family="Arial" font-size="14.00" fill="#000000">created_at    </text>
<text text-anchor="start" x="199.3422" y="-143.9" font-family="Arial" font-size="14.00" fill="#666666">[datetime]</text>
<polygon fill="none" stroke="#000000" points="92,-102.5 92,-132.5 277,-132.5 277,-102.5 92,-102.5"/>
<text text-anchor="start" x="99" y="-113.9" font-family="Arial" font-size="14.00" fill="#000000">updated_at    </text>
<text text-anchor="start" x="203.2468" y="-113.9" font-family="Arial" font-size="14.00" fill="#666666">[datetime]</text>
</g>
<!-- steps&#45;&gt;users -->
<g id="edge1" class="edge">
<title>steps:user_id&#45;&gt;users:id</title>
<path fill="none" stroke="#000000" d="M229.801,-666.9661C152.3261,-658.2809 223.5571,-545.3845 240,-457 248.3633,-412.0454 268.6367,-405.9546 277,-361 284.6005,-320.1454 318.5556,-267.5 277,-267.5"/>
<polygon fill="#000000" stroke="#000000" points="230.0137,-666.9771 239.7647,-671.9938 235.0068,-667.2386 240,-667.5 240,-667.5 240,-667.5 235.0068,-667.2386 240.2353,-663.0062 230.0137,-666.9771 230.0137,-666.9771"/>
<text text-anchor="start" x="6.945" y="-677.5" font-family="Arial" font-size="10.00" fill="#000000">FOREIGN KEY (user_id) REFERENCES users (id)</text>
</g>
<!-- tasks -->
<g id="node3" class="node">
<title>tasks</title>
<polygon fill="#efefef" stroke="transparent" points="381,-342.5 381,-377.5 576,-377.5 576,-342.5 381,-342.5"/>
<polygon fill="none" stroke="#000000" points="381,-342.5 381,-377.5 576,-377.5 576,-342.5 381,-342.5"/>
<text text-anchor="start" x="393.7118" y="-355.3" font-family="Arial Bold" font-size="18.00" fill="#000000">tasks</text>
<text text-anchor="start" x="435.7202" y="-355.3" font-family="Arial" font-size="14.00" fill="#000000">    </text>
<text text-anchor="start" x="469.925" y="-355.3" font-family="Arial" font-size="14.00" fill="#666666">[BASE TABLE]</text>
<polygon fill="none" stroke="#000000" points="381,-312.5 381,-342.5 576,-342.5 576,-312.5 381,-312.5"/>
<text text-anchor="start" x="388" y="-323.9" font-family="Arial" font-size="14.00" fill="#000000">id    </text>
<text text-anchor="start" x="433.094" y="-323.9" font-family="Arial" font-size="14.00" fill="#666666">[char(26)]</text>
<polygon fill="none" stroke="#000000" points="381,-282.5 381,-312.5 576,-312.5 576,-282.5 381,-282.5"/>
<text text-anchor="start" x="388" y="-293.9" font-family="Arial" font-size="14.00" fill="#000000">user_id    </text>
<text text-anchor="start" x="468.1024" y="-293.9" font-family="Arial" font-size="14.00" fill="#666666">[char(26)]</text>
<polygon fill="none" stroke="#000000" points="381,-252.5 381,-282.5 576,-282.5 576,-252.5 381,-252.5"/>
<text text-anchor="start" x="388" y="-263.9" font-family="Arial" font-size="14.00" fill="#000000">project_id    </text>
<text text-anchor="start" x="482.8822" y="-263.9" font-family="Arial" font-size="14.00" fill="#666666">[char(26)]</text>
<polygon fill="none" stroke="#000000" points="381,-222.5 381,-252.5 576,-252.5 576,-222.5 381,-222.5"/>
<text text-anchor="start" x="388" y="-233.9" font-family="Arial" font-size="14.00" fill="#000000">name    </text>
<text text-anchor="start" x="457.2132" y="-233.9" font-family="Arial" font-size="14.00" fill="#666666">[varchar(80)]</text>
<polygon fill="none" stroke="#000000" points="381,-192.5 381,-222.5 576,-222.5 576,-192.5 381,-192.5"/>
<text text-anchor="start" x="388" y="-203.9" font-family="Arial" font-size="14.00" fill="#000000">content    </text>
<text text-anchor="start" x="468.1164" y="-203.9" font-family="Arial" font-size="14.00" fill="#666666">[varchar(300)]</text>
<polygon fill="none" stroke="#000000" points="381,-162.5 381,-192.5 576,-192.5 576,-162.5 381,-162.5"/>
<text text-anchor="start" x="387.8857" y="-173.9" font-family="Arial" font-size="14.00" fill="#000000">priority    </text>
<text text-anchor="start" x="464.0807" y="-173.9" font-family="Arial" font-size="14.00" fill="#666666">[tinyint unsigned]</text>
<polygon fill="none" stroke="#000000" points="381,-132.5 381,-162.5 576,-162.5 576,-132.5 381,-132.5"/>
<text text-anchor="start" x="388" y="-143.9" font-family="Arial" font-size="14.00" fill="#000000">due_on    </text>
<text text-anchor="start" x="468.9004" y="-143.9" font-family="Arial" font-size="14.00" fill="#666666">[date]</text>
<polygon fill="none" stroke="#000000" points="381,-102.5 381,-132.5 576,-132.5 576,-102.5 381,-102.5"/>
<text text-anchor="start" x="388" y="-113.9" font-family="Arial" font-size="14.00" fill="#000000">completed_at    </text>
<text text-anchor="start" x="506.2314" y="-113.9" font-family="Arial" font-size="14.00" fill="#666666">[datetime]</text>
<polygon fill="none" stroke="#000000" points="381,-72.5 381,-102.5 576,-102.5 576,-72.5 381,-72.5"/>
<text text-anchor="start" x="388" y="-83.9" font-family="Arial" font-size="14.00" fill="#000000">created_at    </text>
<text text-anchor="start" x="488.3422" y="-83.9" font-family="Arial" font-size="14.00" fill="#666666">[datetime]</text>
<polygon fill="none" stroke="#000000" points="381,-42.5 381,-72.5 576,-72.5 576,-42.5 381,-42.5"/>
<text text-anchor="start" x="388" y="-53.9" font-family="Arial" font-size="14.00" fill="#000000">updated_at    </text>
<text text-anchor="start" x="492.2468" y="-53.9" font-family="Arial" font-size="14.00" fill="#666666">[datetime]</text>
</g>
<!-- steps&#45;&gt;tasks -->
<g id="edge2" class="edge">
<title>steps:task_id&#45;&gt;tasks:id</title>
<path fill="none" stroke="#000000" d="M434.058,-636.8603C500.0893,-627.8846 456.4189,-526.4219 424,-457 413.4539,-434.4165 391.5461,-443.5835 381,-421 363.417,-383.3476 339.4444,-327.5 381,-327.5"/>
<polygon fill="#000000" stroke="#000000" points="433.9798,-636.8651 423.7143,-633.0091 428.9899,-637.1826 424,-637.5 424,-637.5 424,-637.5 428.9899,-637.1826 424.2857,-641.9909 433.9798,-636.8651 433.9798,-636.8651"/>
<text text-anchor="start" x="431.054" y="-647.5" font-family="Arial" font-size="10.00" fill="#000000">FOREIGN KEY (task_id) REFERENCES tasks (id)</text>
</g>
</g>
</svg>
