<?xml version="1.0" encoding="UTF-8" standalone="no"?>
<!DOCTYPE svg PUBLIC "-//W3C//DTD SVG 1.1//EN"
 "http://www.w3.org/Graphics/SVG/1.1/DTD/svg11.dtd">
<!-- Generated by graphviz version 12.1.2 (20240928.0832)
 -->
<!-- Title: tags Pages: 1 -->
<svg width="494pt" height="883pt"
 viewBox="0.00 0.00 493.74 883.20" xmlns="http://www.w3.org/2000/svg" xmlns:xlink="http://www.w3.org/1999/xlink">
<g id="graph0" class="graph" transform="scale(1 1) rotate(0) translate(4 879.2)">
<title>tags</title>
<polygon fill="white" stroke="none" points="-4,4 -4,-879.2 489.74,-879.2 489.74,4 -4,4"/>
<!-- tags -->
<g id="node1" class="node">
<title>tags</title>
<polygon fill="#efefef" stroke="none" points="65.7,-543 65.7,-578.6 233.18,-578.6 233.18,-543 65.7,-543"/>
<polygon fill="none" stroke="black" points="65.7,-543 65.7,-578.6 233.18,-578.6 233.18,-543 65.7,-543"/>
<text text-anchor="start" x="72.7" y="-556.4" font-family="Arial Bold" font-size="18.00">tags</text>
<text text-anchor="start" x="101.7" y="-556.4" font-family="Arial" font-size="14.00">    </text>
<text text-anchor="start" x="132.81" y="-556.4" font-family="Arial" font-size="14.00" fill="#666666">[BASE TABLE]</text>
<polygon fill="none" stroke="black" points="65.7,-512.2 65.7,-543 233.18,-543 233.18,-512.2 65.7,-512.2"/>
<text text-anchor="start" x="72.7" y="-524.4" font-family="Arial" font-size="14.00">id </text>
<text text-anchor="start" x="87.49" y="-524.4" font-family="Arial" font-size="14.00" fill="#666666">[char(26)]</text>
<polygon fill="none" stroke="black" points="65.7,-481.4 65.7,-512.2 233.18,-512.2 233.18,-481.4 65.7,-481.4"/>
<text text-anchor="start" x="72.7" y="-493.6" font-family="Arial" font-size="14.00">user_id </text>
<text text-anchor="start" x="122.51" y="-493.6" font-family="Arial" font-size="14.00" fill="#666666">[char(26)]</text>
<polygon fill="none" stroke="black" points="65.7,-450.6 65.7,-481.4 233.18,-481.4 233.18,-450.6 65.7,-450.6"/>
<text text-anchor="start" x="72.7" y="-462.8" font-family="Arial" font-size="14.00">name </text>
<text text-anchor="start" x="111.61" y="-462.8" font-family="Arial" font-size="14.00" fill="#666666">[varchar(20)]</text>
<polygon fill="none" stroke="black" points="65.7,-419.8 65.7,-450.6 233.18,-450.6 233.18,-419.8 65.7,-419.8"/>
<text text-anchor="start" x="72.7" y="-432" font-family="Arial" font-size="14.00">created_at </text>
<text text-anchor="start" x="142.75" y="-432" font-family="Arial" font-size="14.00" fill="#666666">[datetime]</text>
<polygon fill="none" stroke="black" points="65.7,-389 65.7,-419.8 233.18,-419.8 233.18,-389 65.7,-389"/>
<text text-anchor="start" x="72.7" y="-401.2" font-family="Arial" font-size="14.00">updated_at </text>
<text text-anchor="start" x="146.66" y="-401.2" font-family="Arial" font-size="14.00" fill="#666666">[datetime]</text>
<polygon fill="none" stroke="black" stroke-width="3" points="64.2,-387.5 64.2,-580.1 234.68,-580.1 234.68,-387.5 64.2,-387.5"/>
</g>
<!-- users -->
<g id="node3" class="node">
<title>users</title>
<polygon fill="#efefef" stroke="none" points="61.7,-228 61.7,-263.6 237.18,-263.6 237.18,-228 61.7,-228"/>
<polygon fill="none" stroke="black" points="61.7,-228 61.7,-263.6 237.18,-263.6 237.18,-228 61.7,-228"/>
<text text-anchor="start" x="68.7" y="-241.4" font-family="Arial Bold" font-size="18.00">users</text>
<text text-anchor="start" x="105.69" y="-241.4" font-family="Arial" font-size="14.00">    </text>
<text text-anchor="start" x="136.81" y="-241.4" font-family="Arial" font-size="14.00" fill="#666666">[BASE TABLE]</text>
<polygon fill="none" stroke="black" points="61.7,-197.2 61.7,-228 237.18,-228 237.18,-197.2 61.7,-197.2"/>
<text text-anchor="start" x="68.7" y="-209.4" font-family="Arial" font-size="14.00">id </text>
<text text-anchor="start" x="83.49" y="-209.4" font-family="Arial" font-size="14.00" fill="#666666">[char(26)]</text>
<polygon fill="none" stroke="black" points="61.7,-166.4 61.7,-197.2 237.18,-197.2 237.18,-166.4 61.7,-166.4"/>
<text text-anchor="start" x="68.7" y="-178.6" font-family="Arial" font-size="14.00">name </text>
<text text-anchor="start" x="107.61" y="-178.6" font-family="Arial" font-size="14.00" fill="#666666">[varchar(15)]</text>
<polygon fill="none" stroke="black" points="61.7,-135.6 61.7,-166.4 237.18,-166.4 237.18,-135.6 61.7,-135.6"/>
<text text-anchor="start" x="68.7" y="-147.8" font-family="Arial" font-size="14.00">email </text>
<text text-anchor="start" x="106.05" y="-147.8" font-family="Arial" font-size="14.00" fill="#666666">[varchar(254)]</text>
<polygon fill="none" stroke="black" points="61.7,-104.8 61.7,-135.6 237.18,-135.6 237.18,-104.8 61.7,-104.8"/>
<text text-anchor="start" x="68.7" y="-117" font-family="Arial" font-size="14.00">password </text>
<text text-anchor="start" x="132.51" y="-117" font-family="Arial" font-size="14.00" fill="#666666">[char(60)]</text>
<polygon fill="none" stroke="black" points="61.7,-74 61.7,-104.8 237.18,-104.8 237.18,-74 61.7,-74"/>
<text text-anchor="start" x="68.7" y="-86.2" font-family="Arial" font-size="14.00">created_at </text>
<text text-anchor="start" x="138.75" y="-86.2" font-family="Arial" font-size="14.00" fill="#666666">[datetime]</text>
<polygon fill="none" stroke="black" points="61.7,-43.2 61.7,-74 237.18,-74 237.18,-43.2 61.7,-43.2"/>
<text text-anchor="start" x="68.7" y="-55.4" font-family="Arial" font-size="14.00">updated_at </text>
<text text-anchor="start" x="142.66" y="-55.4" font-family="Arial" font-size="14.00" fill="#666666">[datetime]</text>
</g>
<!-- tags&#45;&gt;users -->
<g id="edge2" class="edge">
<title>tags:user_id&#45;&gt;users:id</title>
<path fill="none" stroke="black" d="M244.27,-496.17C360.63,-481.47 361.05,-212.6 238.18,-212.6"/>
<polygon fill="black" stroke="black" points="244.5,-496.16 234.24,-492.29 239.17,-496.49 234.85,-496.76 234.85,-496.76 234.85,-496.76 239.17,-496.49 234.8,-501.27 244.5,-496.16"/>
<text text-anchor="start" x="241.18" y="-506.8" font-family="Arial" font-size="10.00">FOREIGN KEY (user_id) REFERENCES users (id)</text>
</g>
<!-- tasks_tags -->
<g id="node2" class="node">
<title>tasks_tags</title>
<polygon fill="#efefef" stroke="none" points="43.2,-796.4 43.2,-832 255.68,-832 255.68,-796.4 43.2,-796.4"/>
<polygon fill="none" stroke="black" points="43.2,-796.4 43.2,-832 255.68,-832 255.68,-796.4 43.2,-796.4"/>
<text text-anchor="start" x="50.2" y="-809.8" font-family="Arial Bold" font-size="18.00">tasks_tags</text>
<text text-anchor="start" x="124.2" y="-809.8" font-family="Arial" font-size="14.00">    </text>
<text text-anchor="start" x="155.31" y="-809.8" font-family="Arial" font-size="14.00" fill="#666666">[BASE TABLE]</text>
<polygon fill="none" stroke="black" points="43.2,-765.6 43.2,-796.4 255.68,-796.4 255.68,-765.6 43.2,-765.6"/>
<text text-anchor="start" x="50.2" y="-777.8" font-family="Arial" font-size="14.00">task_id </text>
<text text-anchor="start" x="98.45" y="-777.8" font-family="Arial" font-size="14.00" fill="#666666">[char(26)]</text>
<polygon fill="none" stroke="black" points="43.2,-734.8 43.2,-765.6 255.68,-765.6 255.68,-734.8 43.2,-734.8"/>
<text text-anchor="start" x="50.2" y="-747" font-family="Arial" font-size="14.00">tag_id </text>
<text text-anchor="start" x="92.23" y="-747" font-family="Arial" font-size="14.00" fill="#666666">[char(26)]</text>
<polygon fill="none" stroke="black" points="43.2,-704 43.2,-734.8 255.68,-734.8 255.68,-704 43.2,-704"/>
<text text-anchor="start" x="50.2" y="-716.2" font-family="Arial" font-size="14.00">created_at </text>
<text text-anchor="start" x="120.25" y="-716.2" font-family="Arial" font-size="14.00" fill="#666666">[datetime]</text>
</g>
<!-- tasks_tags&#45;&gt;tags -->
<g id="edge1" class="edge">
<title>tasks_tags:tag_id&#45;&gt;tags:id</title>
<path fill="none" stroke="black" d="M266.99,-749.35C354.4,-734.4 330.03,-527.6 234.18,-527.6"/>
<polygon fill="black" stroke="black" points="266.98,-749.35 256.65,-745.69 261.67,-749.79 257.35,-750.14 257.35,-750.14 257.35,-750.14 261.67,-749.79 257.39,-754.66 266.98,-749.35"/>
<text text-anchor="start" x="263.68" y="-760.2" font-family="Arial" font-size="10.00">FOREIGN KEY (tag_id) REFERENCES tags (id)</text>
</g>
</g>
</svg>
