<?xml version="1.0" encoding="UTF-8" standalone="no"?>
<!DOCTYPE svg PUBLIC "-//W3C//DTD SVG 1.1//EN"
 "http://www.w3.org/Graphics/SVG/1.1/DTD/svg11.dtd">
<!-- Generated by graphviz version 2.40.1 (20161225.0304)
 -->
<!-- Title: tags Pages: 1 -->
<svg width="565pt" height="839pt"
 viewBox="0.00 0.00 565.00 839.00" xmlns="http://www.w3.org/2000/svg" xmlns:xlink="http://www.w3.org/1999/xlink">
<g id="graph0" class="graph" transform="scale(1 1) rotate(0) translate(4 835)">
<title>tags</title>
<polygon fill="#ffffff" stroke="transparent" points="-4,4 -4,-835 561,-835 561,4 -4,4"/>
<!-- tags -->
<g id="node1" class="node">
<title>tags</title>
<polygon fill="#efefef" stroke="transparent" points="240,-532.5 240,-567.5 415,-567.5 415,-532.5 240,-532.5"/>
<polygon fill="none" stroke="#000000" points="240,-532.5 240,-567.5 415,-567.5 415,-532.5 240,-532.5"/>
<text text-anchor="start" x="246.7087" y="-545.3" font-family="Arial Bold" font-size="18.00" fill="#000000">tags</text>
<text text-anchor="start" x="280.7233" y="-545.3" font-family="Arial" font-size="14.00" fill="#000000">    </text>
<text text-anchor="start" x="314.9281" y="-545.3" font-family="Arial" font-size="14.00" fill="#666666">[BASE TABLE]</text>
<polygon fill="none" stroke="#000000" points="240,-502.5 240,-532.5 415,-532.5 415,-502.5 240,-502.5"/>
<text text-anchor="start" x="247" y="-513.9" font-family="Arial" font-size="14.00" fill="#000000">id </text>
<text text-anchor="start" x="261.7798" y="-513.9" font-family="Arial" font-size="14.00" fill="#666666">[char(26)]</text>
<polygon fill="none" stroke="#000000" points="240,-472.5 240,-502.5 415,-502.5 415,-472.5 240,-472.5"/>
<text text-anchor="start" x="247" y="-483.9" font-family="Arial" font-size="14.00" fill="#000000">user_id </text>
<text text-anchor="start" x="296.7882" y="-483.9" font-family="Arial" font-size="14.00" fill="#666666">[char(26)]</text>
<polygon fill="none" stroke="#000000" points="240,-442.5 240,-472.5 415,-472.5 415,-442.5 240,-442.5"/>
<text text-anchor="start" x="247" y="-453.9" font-family="Arial" font-size="14.00" fill="#000000">name </text>
<text text-anchor="start" x="285.899" y="-453.9" font-family="Arial" font-size="14.00" fill="#666666">[varchar(20)]</text>
<polygon fill="none" stroke="#000000" points="240,-412.5 240,-442.5 415,-442.5 415,-412.5 240,-412.5"/>
<text text-anchor="start" x="247" y="-423.9" font-family="Arial" font-size="14.00" fill="#000000">created_at </text>
<text text-anchor="start" x="317.028" y="-423.9" font-family="Arial" font-size="14.00" fill="#666666">[datetime]</text>
<polygon fill="none" stroke="#000000" points="240,-382.5 240,-412.5 415,-412.5 415,-382.5 240,-382.5"/>
<text text-anchor="start" x="247" y="-393.9" font-family="Arial" font-size="14.00" fill="#000000">updated_at </text>
<text text-anchor="start" x="320.9326" y="-393.9" font-family="Arial" font-size="14.00" fill="#666666">[datetime]</text>
<polygon fill="none" stroke="#000000" stroke-width="3" points="238,-381.5 238,-569.5 416,-569.5 416,-381.5 238,-381.5"/>
</g>
<!-- users -->
<g id="node3" class="node">
<title>users</title>
<polygon fill="#efefef" stroke="transparent" points="235,-222.5 235,-257.5 420,-257.5 420,-222.5 235,-222.5"/>
<polygon fill="none" stroke="#000000" points="235,-222.5 235,-257.5 420,-257.5 420,-222.5 235,-222.5"/>
<text text-anchor="start" x="241.7137" y="-235.3" font-family="Arial Bold" font-size="18.00" fill="#000000">users</text>
<text text-anchor="start" x="285.7183" y="-235.3" font-family="Arial" font-size="14.00" fill="#000000">    </text>
<text text-anchor="start" x="319.9231" y="-235.3" font-family="Arial" font-size="14.00" fill="#666666">[BASE TABLE]</text>
<polygon fill="none" stroke="#000000" points="235,-192.5 235,-222.5 420,-222.5 420,-192.5 235,-192.5"/>
<text text-anchor="start" x="242" y="-203.9" font-family="Arial" font-size="14.00" fill="#000000">id    </text>
<text text-anchor="start" x="287.094" y="-203.9" font-family="Arial" font-size="14.00" fill="#666666">[char(26)]</text>
<polygon fill="none" stroke="#000000" points="235,-162.5 235,-192.5 420,-192.5 420,-162.5 235,-162.5"/>
<text text-anchor="start" x="242" y="-173.9" font-family="Arial" font-size="14.00" fill="#000000">name    </text>
<text text-anchor="start" x="311.2132" y="-173.9" font-family="Arial" font-size="14.00" fill="#666666">[varchar(15)]</text>
<polygon fill="none" stroke="#000000" points="235,-132.5 235,-162.5 420,-162.5 420,-132.5 235,-132.5"/>
<text text-anchor="start" x="242" y="-143.9" font-family="Arial" font-size="14.00" fill="#000000">email    </text>
<text text-anchor="start" x="309.6438" y="-143.9" font-family="Arial" font-size="14.00" fill="#666666">[varchar(254)]</text>
<polygon fill="none" stroke="#000000" points="235,-102.5 235,-132.5 420,-132.5 420,-102.5 235,-102.5"/>
<text text-anchor="start" x="242" y="-113.9" font-family="Arial" font-size="14.00" fill="#000000">password    </text>
<text text-anchor="start" x="336.1024" y="-113.9" font-family="Arial" font-size="14.00" fill="#666666">[char(60)]</text>
<polygon fill="none" stroke="#000000" points="235,-72.5 235,-102.5 420,-102.5 420,-72.5 235,-72.5"/>
<text text-anchor="start" x="242" y="-83.9" font-family="Arial" font-size="14.00" fill="#000000">created_at    </text>
<text text-anchor="start" x="342.3422" y="-83.9" font-family="Arial" font-size="14.00" fill="#666666">[datetime]</text>
<polygon fill="none" stroke="#000000" points="235,-42.5 235,-72.5 420,-72.5 420,-42.5 235,-42.5"/>
<text text-anchor="start" x="242" y="-53.9" font-family="Arial" font-size="14.00" fill="#000000">updated_at    </text>
<text text-anchor="start" x="346.2468" y="-53.9" font-family="Arial" font-size="14.00" fill="#666666">[datetime]</text>
</g>
<!-- tags&#45;&gt;users -->
<g id="edge2" class="edge">
<title>tags:user_id&#45;&gt;users:id</title>
<path fill="none" stroke="#000000" d="M229.7131,-486.839C115.3563,-471.8652 114.0606,-207.5 235,-207.5"/>
<polygon fill="#000000" stroke="#000000" points="230.0206,-486.8587 239.7114,-491.9907 235.0103,-487.1793 240,-487.5 240,-487.5 240,-487.5 235.0103,-487.1793 240.2886,-483.0093 230.0206,-486.8587 230.0206,-486.8587"/>
<text text-anchor="start" x="6.945" y="-497.5" font-family="Arial" font-size="10.00" fill="#000000">FOREIGN KEY (user_id) REFERENCES users (id)</text>
</g>
<!-- tasks_tags -->
<g id="node2" class="node">
<title>tasks_tags</title>
<polygon fill="#efefef" stroke="transparent" points="214,-752.5 214,-787.5 441,-787.5 441,-752.5 214,-752.5"/>
<polygon fill="none" stroke="#000000" points="214,-752.5 214,-787.5 441,-787.5 441,-752.5 214,-752.5"/>
<text text-anchor="start" x="220.7014" y="-765.3" font-family="Arial Bold" font-size="18.00" fill="#000000">tasks_tags</text>
<text text-anchor="start" x="306.7306" y="-765.3" font-family="Arial" font-size="14.00" fill="#000000">    </text>
<text text-anchor="start" x="340.9354" y="-765.3" font-family="Arial" font-size="14.00" fill="#666666">[BASE TABLE]</text>
<polygon fill="none" stroke="#000000" points="214,-722.5 214,-752.5 441,-752.5 441,-722.5 214,-722.5"/>
<text text-anchor="start" x="221" y="-733.9" font-family="Arial" font-size="14.00" fill="#000000">task_id    </text>
<text text-anchor="start" x="299.5498" y="-733.9" font-family="Arial" font-size="14.00" fill="#666666">[char(26)]</text>
<polygon fill="none" stroke="#000000" points="214,-692.5 214,-722.5 441,-722.5 441,-692.5 214,-692.5"/>
<text text-anchor="start" x="221" y="-703.9" font-family="Arial" font-size="14.00" fill="#000000">tag_id    </text>
<text text-anchor="start" x="293.3324" y="-703.9" font-family="Arial" font-size="14.00" fill="#666666">[char(26)]</text>
</g>
<!-- tasks_tags&#45;&gt;tags -->
<g id="edge1" class="edge">
<title>tasks_tags:tag_id&#45;&gt;tags:id</title>
<path fill="none" stroke="#000000" d="M327.0515,-682.4944C318.8615,-642.8024 259.9217,-658.4672 240,-614 222.4648,-574.8596 197.1111,-517.5 240,-517.5"/>
<polygon fill="#000000" stroke="#000000" points="327.0561,-682.5446 323.5201,-692.9247 327.5281,-687.5223 328,-692.5 328,-692.5 328,-692.5 327.5281,-687.5223 332.4799,-692.0753 327.0561,-682.5446 327.0561,-682.5446"/>
<text text-anchor="start" x="335.495" y="-702.5" font-family="Arial" font-size="10.00" fill="#000000">FOREIGN KEY (tag_id) REFERENCES tags (id)</text>
</g>
</g>
</svg>
