<?xml version="1.0" encoding="UTF-8" standalone="no"?>
<!DOCTYPE svg PUBLIC "-//W3C//DTD SVG 1.1//EN"
 "http://www.w3.org/Graphics/SVG/1.1/DTD/svg11.dtd">
<!-- Generated by graphviz version 2.40.1 (20161225.0304)
 -->
<!-- Title: tags Pages: 1 -->
<svg width="507pt" height="869pt"
 viewBox="0.00 0.00 506.50 869.00" xmlns="http://www.w3.org/2000/svg" xmlns:xlink="http://www.w3.org/1999/xlink">
<g id="graph0" class="graph" transform="scale(1 1) rotate(0) translate(4 865)">
<title>tags</title>
<polygon fill="#ffffff" stroke="transparent" points="-4,4 -4,-865 502.5,-865 502.5,4 -4,4"/>
<!-- tags -->
<g id="node1" class="node">
<title>tags</title>
<polygon fill="#efefef" stroke="transparent" points="255,-532.5 255,-567.5 430,-567.5 430,-532.5 255,-532.5"/>
<polygon fill="none" stroke="#000000" points="255,-532.5 255,-567.5 430,-567.5 430,-532.5 255,-532.5"/>
<text text-anchor="start" x="261.7087" y="-545.3" font-family="Arial Bold" font-size="18.00" fill="#000000">tags</text>
<text text-anchor="start" x="295.7233" y="-545.3" font-family="Arial" font-size="14.00" fill="#000000">    </text>
<text text-anchor="start" x="329.9281" y="-545.3" font-family="Arial" font-size="14.00" fill="#666666">[BASE TABLE]</text>
<polygon fill="none" stroke="#000000" points="255,-502.5 255,-532.5 430,-532.5 430,-502.5 255,-502.5"/>
<text text-anchor="start" x="262" y="-513.9" font-family="Arial" font-size="14.00" fill="#000000">id </text>
<text text-anchor="start" x="276.7798" y="-513.9" font-family="Arial" font-size="14.00" fill="#666666">[char(26)]</text>
<polygon fill="none" stroke="#000000" points="255,-472.5 255,-502.5 430,-502.5 430,-472.5 255,-472.5"/>
<text text-anchor="start" x="262" y="-483.9" font-family="Arial" font-size="14.00" fill="#000000">user_id </text>
<text text-anchor="start" x="311.7882" y="-483.9" font-family="Arial" font-size="14.00" fill="#666666">[char(26)]</text>
<polygon fill="none" stroke="#000000" points="255,-442.5 255,-472.5 430,-472.5 430,-442.5 255,-442.5"/>
<text text-anchor="start" x="262" y="-453.9" font-family="Arial" font-size="14.00" fill="#000000">name </text>
<text text-anchor="start" x="300.899" y="-453.9" font-family="Arial" font-size="14.00" fill="#666666">[varchar(20)]</text>
<polygon fill="none" stroke="#000000" points="255,-412.5 255,-442.5 430,-442.5 430,-412.5 255,-412.5"/>
<text text-anchor="start" x="262" y="-423.9" font-family="Arial" font-size="14.00" fill="#000000">created_at </text>
<text text-anchor="start" x="332.028" y="-423.9" font-family="Arial" font-size="14.00" fill="#666666">[datetime]</text>
<polygon fill="none" stroke="#000000" points="255,-382.5 255,-412.5 430,-412.5 430,-382.5 255,-382.5"/>
<text text-anchor="start" x="262" y="-393.9" font-family="Arial" font-size="14.00" fill="#000000">updated_at </text>
<text text-anchor="start" x="335.9326" y="-393.9" font-family="Arial" font-size="14.00" fill="#666666">[datetime]</text>
<polygon fill="none" stroke="#000000" stroke-width="3" points="253,-381.5 253,-569.5 431,-569.5 431,-381.5 253,-381.5"/>
</g>
<!-- users -->
<g id="node3" class="node">
<title>users</title>
<polygon fill="#efefef" stroke="transparent" points="250,-222.5 250,-257.5 435,-257.5 435,-222.5 250,-222.5"/>
<polygon fill="none" stroke="#000000" points="250,-222.5 250,-257.5 435,-257.5 435,-222.5 250,-222.5"/>
<text text-anchor="start" x="256.7137" y="-235.3" font-family="Arial Bold" font-size="18.00" fill="#000000">users</text>
<text text-anchor="start" x="300.7183" y="-235.3" font-family="Arial" font-size="14.00" fill="#000000">    </text>
<text text-anchor="start" x="334.9231" y="-235.3" font-family="Arial" font-size="14.00" fill="#666666">[BASE TABLE]</text>
<polygon fill="none" stroke="#000000" points="250,-192.5 250,-222.5 435,-222.5 435,-192.5 250,-192.5"/>
<text text-anchor="start" x="257" y="-203.9" font-family="Arial" font-size="14.00" fill="#000000">id    </text>
<text text-anchor="start" x="302.094" y="-203.9" font-family="Arial" font-size="14.00" fill="#666666">[char(30)]</text>
<polygon fill="none" stroke="#000000" points="250,-162.5 250,-192.5 435,-192.5 435,-162.5 250,-162.5"/>
<text text-anchor="start" x="257" y="-173.9" font-family="Arial" font-size="14.00" fill="#000000">name    </text>
<text text-anchor="start" x="326.2132" y="-173.9" font-family="Arial" font-size="14.00" fill="#666666">[varchar(15)]</text>
<polygon fill="none" stroke="#000000" points="250,-132.5 250,-162.5 435,-162.5 435,-132.5 250,-132.5"/>
<text text-anchor="start" x="257" y="-143.9" font-family="Arial" font-size="14.00" fill="#000000">email    </text>
<text text-anchor="start" x="324.6438" y="-143.9" font-family="Arial" font-size="14.00" fill="#666666">[varchar(254)]</text>
<polygon fill="none" stroke="#000000" points="250,-102.5 250,-132.5 435,-132.5 435,-102.5 250,-102.5"/>
<text text-anchor="start" x="257" y="-113.9" font-family="Arial" font-size="14.00" fill="#000000">password    </text>
<text text-anchor="start" x="351.1024" y="-113.9" font-family="Arial" font-size="14.00" fill="#666666">[char(60)]</text>
<polygon fill="none" stroke="#000000" points="250,-72.5 250,-102.5 435,-102.5 435,-72.5 250,-72.5"/>
<text text-anchor="start" x="257" y="-83.9" font-family="Arial" font-size="14.00" fill="#000000">created_at    </text>
<text text-anchor="start" x="357.3422" y="-83.9" font-family="Arial" font-size="14.00" fill="#666666">[datetime]</text>
<polygon fill="none" stroke="#000000" points="250,-42.5 250,-72.5 435,-72.5 435,-42.5 250,-42.5"/>
<text text-anchor="start" x="257" y="-53.9" font-family="Arial" font-size="14.00" fill="#000000">updated_at    </text>
<text text-anchor="start" x="361.2468" y="-53.9" font-family="Arial" font-size="14.00" fill="#666666">[datetime]</text>
</g>
<!-- tags&#45;&gt;users -->
<g id="edge2" class="edge">
<title>tags:user_id&#45;&gt;users:id</title>
<path fill="none" stroke="#000000" d="M244.7131,-486.839C130.3563,-471.8652 129.0606,-207.5 250,-207.5"/>
<polygon fill="#000000" stroke="#000000" points="245.0206,-486.8587 254.7114,-491.9907 250.0103,-487.1793 255,-487.5 255,-487.5 255,-487.5 250.0103,-487.1793 255.2886,-483.0093 245.0206,-486.8587 245.0206,-486.8587"/>
<text text-anchor="start" x="21.945" y="-497.5" font-family="Arial" font-size="10.00" fill="#000000">FOREIGN KEY (user_id) REFERENCES users (id)</text>
</g>
<!-- tasks_tags -->
<g id="node2" class="node">
<title>tasks_tags</title>
<polygon fill="#efefef" stroke="transparent" points="229,-782.5 229,-817.5 456,-817.5 456,-782.5 229,-782.5"/>
<polygon fill="none" stroke="#000000" points="229,-782.5 229,-817.5 456,-817.5 456,-782.5 229,-782.5"/>
<text text-anchor="start" x="235.7014" y="-795.3" font-family="Arial Bold" font-size="18.00" fill="#000000">tasks_tags</text>
<text text-anchor="start" x="321.7306" y="-795.3" font-family="Arial" font-size="14.00" fill="#000000">    </text>
<text text-anchor="start" x="355.9354" y="-795.3" font-family="Arial" font-size="14.00" fill="#666666">[BASE TABLE]</text>
<polygon fill="none" stroke="#000000" points="229,-752.5 229,-782.5 456,-782.5 456,-752.5 229,-752.5"/>
<text text-anchor="start" x="236" y="-763.9" font-family="Arial" font-size="14.00" fill="#000000">task_id    </text>
<text text-anchor="start" x="314.5498" y="-763.9" font-family="Arial" font-size="14.00" fill="#666666">[char(26)]</text>
<polygon fill="none" stroke="#000000" points="229,-722.5 229,-752.5 456,-752.5 456,-722.5 229,-722.5"/>
<text text-anchor="start" x="236" y="-733.9" font-family="Arial" font-size="14.00" fill="#000000">tag_id    </text>
<text text-anchor="start" x="308.3324" y="-733.9" font-family="Arial" font-size="14.00" fill="#666666">[char(26)]</text>
<polygon fill="none" stroke="#000000" points="229,-692.5 229,-722.5 456,-722.5 456,-692.5 229,-692.5"/>
<text text-anchor="start" x="236" y="-703.9" font-family="Arial" font-size="14.00" fill="#000000">created_at    </text>
<text text-anchor="start" x="336.3422" y="-703.9" font-family="Arial" font-size="14.00" fill="#666666">[datetime]</text>
</g>
<!-- tasks_tags&#45;&gt;tags -->
<g id="edge1" class="edge">
<title>tasks_tags:tag_id&#45;&gt;tags:id</title>
<path fill="none" stroke="#000000" d="M218.8123,-736.6591C132.5153,-721.8888 160.0993,-517.5 255,-517.5"/>
<polygon fill="#000000" stroke="#000000" points="219.0339,-736.6773 228.6298,-741.9847 224.0169,-737.0886 229,-737.5 229,-737.5 229,-737.5 224.0169,-737.0886 229.3702,-733.0153 219.0339,-736.6773 219.0339,-736.6773"/>
<text text-anchor="start" x="7.495" y="-747.5" font-family="Arial" font-size="10.00" fill="#000000">FOREIGN KEY (tag_id) REFERENCES tags (id)</text>
</g>
</g>
</svg>
