<?xml version="1.0" encoding="UTF-8" standalone="no"?>
<!DOCTYPE svg PUBLIC "-//W3C//DTD SVG 1.1//EN"
 "http://www.w3.org/Graphics/SVG/1.1/DTD/svg11.dtd">
<!-- Generated by graphviz version 2.40.1 (20161225.0304)
 -->
<!-- Title: tasks Pages: 1 -->
<svg width="692pt" height="1169pt"
 viewBox="0.00 0.00 692.00 1169.00" xmlns="http://www.w3.org/2000/svg" xmlns:xlink="http://www.w3.org/1999/xlink">
<g id="graph0" class="graph" transform="scale(1 1) rotate(0) translate(4 1165)">
<title>tasks</title>
<polygon fill="#ffffff" stroke="transparent" points="-4,4 -4,-1165 688,-1165 688,4 -4,4"/>
<!-- tasks -->
<g id="node1" class="node">
<title>tasks</title>
<polygon fill="#efefef" stroke="transparent" points="240,-712.5 240,-747.5 423,-747.5 423,-712.5 240,-712.5"/>
<polygon fill="none" stroke="#000000" points="240,-712.5 240,-747.5 423,-747.5 423,-712.5 240,-712.5"/>
<text text-anchor="start" x="246.7118" y="-725.3" font-family="Arial Bold" font-size="18.00" fill="#000000">tasks</text>
<text text-anchor="start" x="288.7202" y="-725.3" font-family="Arial" font-size="14.00" fill="#000000">    </text>
<text text-anchor="start" x="322.925" y="-725.3" font-family="Arial" font-size="14.00" fill="#666666">[BASE TABLE]</text>
<polygon fill="none" stroke="#000000" points="240,-682.5 240,-712.5 423,-712.5 423,-682.5 240,-682.5"/>
<text text-anchor="start" x="247" y="-693.9" font-family="Arial" font-size="14.00" fill="#000000">id </text>
<text text-anchor="start" x="261.7798" y="-693.9" font-family="Arial" font-size="14.00" fill="#666666">[char(26)]</text>
<polygon fill="none" stroke="#000000" points="240,-652.5 240,-682.5 423,-682.5 423,-652.5 240,-652.5"/>
<text text-anchor="start" x="247" y="-663.9" font-family="Arial" font-size="14.00" fill="#000000">user_id </text>
<text text-anchor="start" x="296.7882" y="-663.9" font-family="Arial" font-size="14.00" fill="#666666">[char(26)]</text>
<polygon fill="none" stroke="#000000" points="240,-622.5 240,-652.5 423,-652.5 423,-622.5 240,-622.5"/>
<text text-anchor="start" x="247" y="-633.9" font-family="Arial" font-size="14.00" fill="#000000">project_id </text>
<text text-anchor="start" x="311.568" y="-633.9" font-family="Arial" font-size="14.00" fill="#666666">[char(26)]</text>
<polygon fill="none" stroke="#000000" points="240,-592.5 240,-622.5 423,-622.5 423,-592.5 240,-592.5"/>
<text text-anchor="start" x="247" y="-603.9" font-family="Arial" font-size="14.00" fill="#000000">title </text>
<text text-anchor="start" x="272.6676" y="-603.9" font-family="Arial" font-size="14.00" fill="#666666">[varchar(80)]</text>
<polygon fill="none" stroke="#000000" points="240,-562.5 240,-592.5 423,-592.5 423,-562.5 240,-562.5"/>
<text text-anchor="start" x="247" y="-573.9" font-family="Arial" font-size="14.00" fill="#000000">content </text>
<text text-anchor="start" x="296.8022" y="-573.9" font-family="Arial" font-size="14.00" fill="#666666">[varchar(300)]</text>
<polygon fill="none" stroke="#000000" points="240,-532.5 240,-562.5 423,-562.5 423,-532.5 240,-532.5"/>
<text text-anchor="start" x="247" y="-543.9" font-family="Arial" font-size="14.00" fill="#000000">priority </text>
<text text-anchor="start" x="292.8808" y="-543.9" font-family="Arial" font-size="14.00" fill="#666666">[tinyint unsigned]</text>
<polygon fill="none" stroke="#000000" points="240,-502.5 240,-532.5 423,-532.5 423,-502.5 240,-502.5"/>
<text text-anchor="start" x="247" y="-513.9" font-family="Arial" font-size="14.00" fill="#000000">due_on </text>
<text text-anchor="start" x="297.5862" y="-513.9" font-family="Arial" font-size="14.00" fill="#666666">[date]</text>
<polygon fill="none" stroke="#000000" points="240,-472.5 240,-502.5 423,-502.5 423,-472.5 240,-472.5"/>
<text text-anchor="start" x="247" y="-483.9" font-family="Arial" font-size="14.00" fill="#000000">completed_at </text>
<text text-anchor="start" x="334.9172" y="-483.9" font-family="Arial" font-size="14.00" fill="#666666">[datetime]</text>
<polygon fill="none" stroke="#000000" points="240,-442.5 240,-472.5 423,-472.5 423,-442.5 240,-442.5"/>
<text text-anchor="start" x="247" y="-453.9" font-family="Arial" font-size="14.00" fill="#000000">created_at </text>
<text text-anchor="start" x="317.028" y="-453.9" font-family="Arial" font-size="14.00" fill="#666666">[datetime]</text>
<polygon fill="none" stroke="#000000" points="240,-412.5 240,-442.5 423,-442.5 423,-412.5 240,-412.5"/>
<text text-anchor="start" x="247" y="-423.9" font-family="Arial" font-size="14.00" fill="#000000">updated_at </text>
<text text-anchor="start" x="320.9326" y="-423.9" font-family="Arial" font-size="14.00" fill="#666666">[datetime]</text>
<polygon fill="none" stroke="#000000" stroke-width="3" points="238,-411.5 238,-749.5 424,-749.5 424,-411.5 238,-411.5"/>
</g>
<!-- users -->
<g id="node4" class="node">
<title>users</title>
<polygon fill="#efefef" stroke="transparent" points="90,-237.5 90,-272.5 275,-272.5 275,-237.5 90,-237.5"/>
<polygon fill="none" stroke="#000000" points="90,-237.5 90,-272.5 275,-272.5 275,-237.5 90,-237.5"/>
<text text-anchor="start" x="96.7137" y="-250.3" font-family="Arial Bold" font-size="18.00" fill="#000000">users</text>
<text text-anchor="start" x="140.7183" y="-250.3" font-family="Arial" font-size="14.00" fill="#000000">    </text>
<text text-anchor="start" x="174.9231" y="-250.3" font-family="Arial" font-size="14.00" fill="#666666">[BASE TABLE]</text>
<polygon fill="none" stroke="#000000" points="90,-207.5 90,-237.5 275,-237.5 275,-207.5 90,-207.5"/>
<text text-anchor="start" x="97" y="-218.9" font-family="Arial" font-size="14.00" fill="#000000">id    </text>
<text text-anchor="start" x="142.094" y="-218.9" font-family="Arial" font-size="14.00" fill="#666666">[char(26)]</text>
<polygon fill="none" stroke="#000000" points="90,-177.5 90,-207.5 275,-207.5 275,-177.5 90,-177.5"/>
<text text-anchor="start" x="97" y="-188.9" font-family="Arial" font-size="14.00" fill="#000000">name    </text>
<text text-anchor="start" x="166.2132" y="-188.9" font-family="Arial" font-size="14.00" fill="#666666">[varchar(15)]</text>
<polygon fill="none" stroke="#000000" points="90,-147.5 90,-177.5 275,-177.5 275,-147.5 90,-147.5"/>
<text text-anchor="start" x="97" y="-158.9" font-family="Arial" font-size="14.00" fill="#000000">email    </text>
<text text-anchor="start" x="164.6438" y="-158.9" font-family="Arial" font-size="14.00" fill="#666666">[varchar(254)]</text>
<polygon fill="none" stroke="#000000" points="90,-117.5 90,-147.5 275,-147.5 275,-117.5 90,-117.5"/>
<text text-anchor="start" x="97" y="-128.9" font-family="Arial" font-size="14.00" fill="#000000">password    </text>
<text text-anchor="start" x="191.1024" y="-128.9" font-family="Arial" font-size="14.00" fill="#666666">[char(60)]</text>
<polygon fill="none" stroke="#000000" points="90,-87.5 90,-117.5 275,-117.5 275,-87.5 90,-87.5"/>
<text text-anchor="start" x="97" y="-98.9" font-family="Arial" font-size="14.00" fill="#000000">created_at    </text>
<text text-anchor="start" x="197.3422" y="-98.9" font-family="Arial" font-size="14.00" fill="#666666">[datetime]</text>
<polygon fill="none" stroke="#000000" points="90,-57.5 90,-87.5 275,-87.5 275,-57.5 90,-57.5"/>
<text text-anchor="start" x="97" y="-68.9" font-family="Arial" font-size="14.00" fill="#000000">updated_at    </text>
<text text-anchor="start" x="201.2468" y="-68.9" font-family="Arial" font-size="14.00" fill="#666666">[datetime]</text>
</g>
<!-- tasks&#45;&gt;users -->
<g id="edge3" class="edge">
<title>tasks:user_id&#45;&gt;users:id</title>
<path fill="none" stroke="#000000" d="M229.905,-667.1433C111.3633,-658.4118 201.482,-491.1983 240,-367 248.1432,-340.7428 266.8568,-342.2572 275,-316 287.3094,-276.3094 316.5556,-222.5 275,-222.5"/>
<polygon fill="#000000" stroke="#000000" points="230.0062,-667.1468 239.8411,-671.9972 235.0031,-667.3234 240,-667.5 240,-667.5 240,-667.5 235.0031,-667.3234 240.1589,-663.0028 230.0062,-667.1468 230.0062,-667.1468"/>
<text text-anchor="start" x="6.945" y="-677.5" font-family="Arial" font-size="10.00" fill="#000000">FOREIGN KEY (user_id) REFERENCES users (id)</text>
</g>
<!-- projects -->
<g id="node5" class="node">
<title>projects</title>
<polygon fill="#efefef" stroke="transparent" points="379,-252.5 379,-287.5 583,-287.5 583,-252.5 379,-252.5"/>
<polygon fill="none" stroke="#000000" points="379,-252.5 379,-287.5 583,-287.5 583,-252.5 379,-252.5"/>
<text text-anchor="start" x="385.7124" y="-265.3" font-family="Arial Bold" font-size="18.00" fill="#000000">projects</text>
<text text-anchor="start" x="448.7196" y="-265.3" font-family="Arial" font-size="14.00" fill="#000000">    </text>
<text text-anchor="start" x="482.9244" y="-265.3" font-family="Arial" font-size="14.00" fill="#666666">[BASE TABLE]</text>
<polygon fill="none" stroke="#000000" points="379,-222.5 379,-252.5 583,-252.5 583,-222.5 379,-222.5"/>
<text text-anchor="start" x="386" y="-233.9" font-family="Arial" font-size="14.00" fill="#000000">id    </text>
<text text-anchor="start" x="431.094" y="-233.9" font-family="Arial" font-size="14.00" fill="#666666">[char(26)]</text>
<polygon fill="none" stroke="#000000" points="379,-192.5 379,-222.5 583,-222.5 583,-192.5 379,-192.5"/>
<text text-anchor="start" x="386" y="-203.9" font-family="Arial" font-size="14.00" fill="#000000">user_id    </text>
<text text-anchor="start" x="466.1024" y="-203.9" font-family="Arial" font-size="14.00" fill="#666666">[char(26)]</text>
<polygon fill="none" stroke="#000000" points="379,-162.5 379,-192.5 583,-192.5 583,-162.5 379,-162.5"/>
<text text-anchor="start" x="386" y="-173.9" font-family="Arial" font-size="14.00" fill="#000000">name    </text>
<text text-anchor="start" x="455.2132" y="-173.9" font-family="Arial" font-size="14.00" fill="#666666">[varchar(20)]</text>
<polygon fill="none" stroke="#000000" points="379,-132.5 379,-162.5 583,-162.5 583,-132.5 379,-132.5"/>
<text text-anchor="start" x="386" y="-143.9" font-family="Arial" font-size="14.00" fill="#000000">color    </text>
<text text-anchor="start" x="450.5372" y="-143.9" font-family="Arial" font-size="14.00" fill="#666666">[char(7)]</text>
<polygon fill="none" stroke="#000000" points="379,-102.5 379,-132.5 583,-132.5 583,-102.5 379,-102.5"/>
<text text-anchor="start" x="386" y="-113.9" font-family="Arial" font-size="14.00" fill="#000000">is_archived    </text>
<text text-anchor="start" x="490.9916" y="-113.9" font-family="Arial" font-size="14.00" fill="#666666">[tinyint(1)]</text>
<polygon fill="none" stroke="#000000" points="379,-72.5 379,-102.5 583,-102.5 583,-72.5 379,-72.5"/>
<text text-anchor="start" x="386" y="-83.9" font-family="Arial" font-size="14.00" fill="#000000">created_at    </text>
<text text-anchor="start" x="486.3422" y="-83.9" font-family="Arial" font-size="14.00" fill="#666666">[datetime]</text>
<polygon fill="none" stroke="#000000" points="379,-42.5 379,-72.5 583,-72.5 583,-42.5 379,-42.5"/>
<text text-anchor="start" x="386" y="-53.9" font-family="Arial" font-size="14.00" fill="#000000">updated_at    </text>
<text text-anchor="start" x="490.2468" y="-53.9" font-family="Arial" font-size="14.00" fill="#666666">[datetime]</text>
</g>
<!-- tasks&#45;&gt;projects -->
<g id="edge4" class="edge">
<title>tasks:project_id&#45;&gt;projects:id</title>
<path fill="none" stroke="#000000" d="M433.085,-637.0886C539.2093,-628.0618 472.9745,-472.4583 423,-367 412.1799,-344.167 389.8201,-353.833 379,-331 361.2047,-293.4475 337.4444,-237.5 379,-237.5"/>
<polygon fill="#000000" stroke="#000000" points="432.9917,-637.0923 422.8166,-633.0037 427.9958,-637.2962 423,-637.5 423,-637.5 423,-637.5 427.9958,-637.2962 423.1834,-641.9963 432.9917,-637.0923 432.9917,-637.0923"/>
<text text-anchor="start" x="430.388" y="-647.5" font-family="Arial" font-size="10.00" fill="#000000">FOREIGN KEY (project_id) REFERENCES projects (id)</text>
</g>
<!-- steps -->
<g id="node2" class="node">
<title>steps</title>
<polygon fill="#efefef" stroke="transparent" points="78,-1082.5 78,-1117.5 271,-1117.5 271,-1082.5 78,-1082.5"/>
<polygon fill="none" stroke="#000000" points="78,-1082.5 78,-1117.5 271,-1117.5 271,-1082.5 78,-1082.5"/>
<text text-anchor="start" x="89.2087" y="-1095.3" font-family="Arial Bold" font-size="18.00" fill="#000000">steps</text>
<text text-anchor="start" x="132.2233" y="-1095.3" font-family="Arial" font-size="14.00" fill="#000000">    </text>
<text text-anchor="start" x="166.4281" y="-1095.3" font-family="Arial" font-size="14.00" fill="#666666">[BASE TABLE]</text>
<polygon fill="none" stroke="#000000" points="78,-1052.5 78,-1082.5 271,-1082.5 271,-1052.5 78,-1052.5"/>
<text text-anchor="start" x="85" y="-1063.9" font-family="Arial" font-size="14.00" fill="#000000">id    </text>
<text text-anchor="start" x="130.094" y="-1063.9" font-family="Arial" font-size="14.00" fill="#666666">[char(26)]</text>
<polygon fill="none" stroke="#000000" points="78,-1022.5 78,-1052.5 271,-1052.5 271,-1022.5 78,-1022.5"/>
<text text-anchor="start" x="85" y="-1033.9" font-family="Arial" font-size="14.00" fill="#000000">user_id    </text>
<text text-anchor="start" x="165.1024" y="-1033.9" font-family="Arial" font-size="14.00" fill="#666666">[char(26)]</text>
<polygon fill="none" stroke="#000000" points="78,-992.5 78,-1022.5 271,-1022.5 271,-992.5 78,-992.5"/>
<text text-anchor="start" x="85" y="-1003.9" font-family="Arial" font-size="14.00" fill="#000000">task_id    </text>
<text text-anchor="start" x="163.5498" y="-1003.9" font-family="Arial" font-size="14.00" fill="#666666">[char(26)]</text>
<polygon fill="none" stroke="#000000" points="78,-962.5 78,-992.5 271,-992.5 271,-962.5 78,-962.5"/>
<text text-anchor="start" x="85" y="-973.9" font-family="Arial" font-size="14.00" fill="#000000">title    </text>
<text text-anchor="start" x="140.9818" y="-973.9" font-family="Arial" font-size="14.00" fill="#666666">[varchar(80)]</text>
<polygon fill="none" stroke="#000000" points="78,-932.5 78,-962.5 271,-962.5 271,-932.5 78,-932.5"/>
<text text-anchor="start" x="84.6543" y="-943.9" font-family="Arial" font-size="14.00" fill="#000000">completed_at    </text>
<text text-anchor="start" x="202.8857" y="-943.9" font-family="Arial" font-size="14.00" fill="#666666">[datetime]</text>
<polygon fill="none" stroke="#000000" points="78,-902.5 78,-932.5 271,-932.5 271,-902.5 78,-902.5"/>
<text text-anchor="start" x="85" y="-913.9" font-family="Arial" font-size="14.00" fill="#000000">created_at    </text>
<text text-anchor="start" x="185.3422" y="-913.9" font-family="Arial" font-size="14.00" fill="#666666">[datetime]</text>
<polygon fill="none" stroke="#000000" points="78,-872.5 78,-902.5 271,-902.5 271,-872.5 78,-872.5"/>
<text text-anchor="start" x="85" y="-883.9" font-family="Arial" font-size="14.00" fill="#000000">updated_at    </text>
<text text-anchor="start" x="189.2468" y="-883.9" font-family="Arial" font-size="14.00" fill="#666666">[datetime]</text>
</g>
<!-- steps&#45;&gt;tasks -->
<g id="edge1" class="edge">
<title>steps:task_id&#45;&gt;tasks:id</title>
<path fill="none" stroke="#000000" d="M281.2506,-1006.8312C345.1196,-997.8579 297.1677,-900.4907 271,-830 263.6518,-810.2053 247.3482,-813.7947 240,-794 225.074,-753.7922 197.1111,-697.5 240,-697.5"/>
<polygon fill="#000000" stroke="#000000" points="280.9788,-1006.8488 270.707,-1003.0095 275.9894,-1007.1744 271,-1007.5 271,-1007.5 271,-1007.5 275.9894,-1007.1744 271.293,-1011.9905 280.9788,-1006.8488 280.9788,-1006.8488"/>
<text text-anchor="start" x="278.054" y="-1017.5" font-family="Arial" font-size="10.00" fill="#000000">FOREIGN KEY (task_id) REFERENCES tasks (id)</text>
</g>
<!-- tasks_tags -->
<g id="node3" class="node">
<title>tasks_tags</title>
<polygon fill="#efefef" stroke="transparent" points="375,-1022.5 375,-1057.5 602,-1057.5 602,-1022.5 375,-1022.5"/>
<polygon fill="none" stroke="#000000" points="375,-1022.5 375,-1057.5 602,-1057.5 602,-1022.5 375,-1022.5"/>
<text text-anchor="start" x="381.7014" y="-1035.3" font-family="Arial Bold" font-size="18.00" fill="#000000">tasks_tags</text>
<text text-anchor="start" x="467.7306" y="-1035.3" font-family="Arial" font-size="14.00" fill="#000000">    </text>
<text text-anchor="start" x="501.9354" y="-1035.3" font-family="Arial" font-size="14.00" fill="#666666">[BASE TABLE]</text>
<polygon fill="none" stroke="#000000" points="375,-992.5 375,-1022.5 602,-1022.5 602,-992.5 375,-992.5"/>
<text text-anchor="start" x="382" y="-1003.9" font-family="Arial" font-size="14.00" fill="#000000">task_id    </text>
<text text-anchor="start" x="460.5498" y="-1003.9" font-family="Arial" font-size="14.00" fill="#666666">[char(26)]</text>
<polygon fill="none" stroke="#000000" points="375,-962.5 375,-992.5 602,-992.5 602,-962.5 375,-962.5"/>
<text text-anchor="start" x="382" y="-973.9" font-family="Arial" font-size="14.00" fill="#000000">tag_id    </text>
<text text-anchor="start" x="454.3324" y="-973.9" font-family="Arial" font-size="14.00" fill="#666666">[char(26)]</text>
<polygon fill="none" stroke="#000000" points="375,-932.5 375,-962.5 602,-962.5 602,-932.5 375,-932.5"/>
<text text-anchor="start" x="382" y="-943.9" font-family="Arial" font-size="14.00" fill="#000000">created_at    </text>
<text text-anchor="start" x="482.3422" y="-943.9" font-family="Arial" font-size="14.00" fill="#666666">[datetime]</text>
</g>
<!-- tasks_tags&#45;&gt;tasks -->
<g id="edge2" class="edge">
<title>tasks_tags:task_id&#45;&gt;tasks:id</title>
<path fill="none" stroke="#000000" d="M364.9919,-1006.6874C286.7607,-992.804 420.2783,-805.5295 423,-794 432.8538,-752.2584 465.8889,-697.5 423,-697.5"/>
<polygon fill="#000000" stroke="#000000" points="365.0328,-1006.6906 374.6358,-1011.9852 370.0164,-1007.0953 375,-1007.5 375,-1007.5 375,-1007.5 370.0164,-1007.0953 375.3642,-1003.0148 365.0328,-1006.6906 365.0328,-1006.6906"/>
<text text-anchor="start" x="322.804" y="-991.5" font-family="Arial" font-size="10.00" fill="#000000">FOREIGN KEY (task_id) REFERENCES tasks (id)</text>
</g>
</g>
</svg>
