<?xml version="1.0" encoding="UTF-8" standalone="no"?>
<!DOCTYPE svg PUBLIC "-//W3C//DTD SVG 1.1//EN"
 "http://www.w3.org/Graphics/SVG/1.1/DTD/svg11.dtd">
<!-- Generated by graphviz version 2.40.1 (20161225.0304)
 -->
<!-- Title: tasks_tags Pages: 1 -->
<svg width="701pt" height="682pt"
 viewBox="0.00 0.00 701.00 682.00" xmlns="http://www.w3.org/2000/svg" xmlns:xlink="http://www.w3.org/1999/xlink">
<g id="graph0" class="graph" transform="scale(1 1) rotate(0) translate(4 678)">
<title>tasks_tags</title>
<polygon fill="#ffffff" stroke="transparent" points="-4,4 -4,-678 697,-678 697,4 -4,4"/>
<!-- tasks_tags -->
<g id="node1" class="node">
<title>tasks_tags</title>
<polygon fill="#efefef" stroke="transparent" points="237,-592.5 237,-627.5 464,-627.5 464,-592.5 237,-592.5"/>
<polygon fill="none" stroke="#000000" points="237,-592.5 237,-627.5 464,-627.5 464,-592.5 237,-592.5"/>
<text text-anchor="start" x="243.7014" y="-605.3" font-family="Arial Bold" font-size="18.00" fill="#000000">tasks_tags</text>
<text text-anchor="start" x="329.7306" y="-605.3" font-family="Arial" font-size="14.00" fill="#000000">    </text>
<text text-anchor="start" x="363.9354" y="-605.3" font-family="Arial" font-size="14.00" fill="#666666">[BASE TABLE]</text>
<polygon fill="none" stroke="#000000" points="237,-562.5 237,-592.5 464,-592.5 464,-562.5 237,-562.5"/>
<text text-anchor="start" x="244" y="-573.9" font-family="Arial" font-size="14.00" fill="#000000">task_id </text>
<text text-anchor="start" x="292.2356" y="-573.9" font-family="Arial" font-size="14.00" fill="#666666">[char(26)]</text>
<polygon fill="none" stroke="#000000" points="237,-532.5 237,-562.5 464,-562.5 464,-532.5 237,-532.5"/>
<text text-anchor="start" x="244" y="-543.9" font-family="Arial" font-size="14.00" fill="#000000">tag_id </text>
<text text-anchor="start" x="286.0182" y="-543.9" font-family="Arial" font-size="14.00" fill="#666666">[char(26)]</text>
<polygon fill="none" stroke="#000000" points="237,-502.5 237,-532.5 464,-532.5 464,-502.5 237,-502.5"/>
<text text-anchor="start" x="244" y="-513.9" font-family="Arial" font-size="14.00" fill="#000000">created_at </text>
<text text-anchor="start" x="314.028" y="-513.9" font-family="Arial" font-size="14.00" fill="#666666">[datetime]</text>
<polygon fill="none" stroke="#000000" stroke-width="3" points="235,-501.5 235,-629.5 465,-629.5 465,-501.5 235,-501.5"/>
</g>
<!-- tasks -->
<g id="node2" class="node">
<title>tasks</title>
<polygon fill="#efefef" stroke="transparent" points="108,-342.5 108,-377.5 303,-377.5 303,-342.5 108,-342.5"/>
<polygon fill="none" stroke="#000000" points="108,-342.5 108,-377.5 303,-377.5 303,-342.5 108,-342.5"/>
<text text-anchor="start" x="120.7118" y="-355.3" font-family="Arial Bold" font-size="18.00" fill="#000000">tasks</text>
<text text-anchor="start" x="162.7202" y="-355.3" font-family="Arial" font-size="14.00" fill="#000000">    </text>
<text text-anchor="start" x="196.925" y="-355.3" font-family="Arial" font-size="14.00" fill="#666666">[BASE TABLE]</text>
<polygon fill="none" stroke="#000000" points="108,-312.5 108,-342.5 303,-342.5 303,-312.5 108,-312.5"/>
<text text-anchor="start" x="115" y="-323.9" font-family="Arial" font-size="14.00" fill="#000000">id    </text>
<text text-anchor="start" x="160.094" y="-323.9" font-family="Arial" font-size="14.00" fill="#666666">[char(26)]</text>
<polygon fill="none" stroke="#000000" points="108,-282.5 108,-312.5 303,-312.5 303,-282.5 108,-282.5"/>
<text text-anchor="start" x="115" y="-293.9" font-family="Arial" font-size="14.00" fill="#000000">user_id    </text>
<text text-anchor="start" x="195.1024" y="-293.9" font-family="Arial" font-size="14.00" fill="#666666">[char(26)]</text>
<polygon fill="none" stroke="#000000" points="108,-252.5 108,-282.5 303,-282.5 303,-252.5 108,-252.5"/>
<text text-anchor="start" x="115" y="-263.9" font-family="Arial" font-size="14.00" fill="#000000">project_id    </text>
<text text-anchor="start" x="209.8822" y="-263.9" font-family="Arial" font-size="14.00" fill="#666666">[char(26)]</text>
<polygon fill="none" stroke="#000000" points="108,-222.5 108,-252.5 303,-252.5 303,-222.5 108,-222.5"/>
<text text-anchor="start" x="115" y="-233.9" font-family="Arial" font-size="14.00" fill="#000000">title    </text>
<text text-anchor="start" x="170.9818" y="-233.9" font-family="Arial" font-size="14.00" fill="#666666">[varchar(80)]</text>
<polygon fill="none" stroke="#000000" points="108,-192.5 108,-222.5 303,-222.5 303,-192.5 108,-192.5"/>
<text text-anchor="start" x="115" y="-203.9" font-family="Arial" font-size="14.00" fill="#000000">content    </text>
<text text-anchor="start" x="195.1164" y="-203.9" font-family="Arial" font-size="14.00" fill="#666666">[varchar(300)]</text>
<polygon fill="none" stroke="#000000" points="108,-162.5 108,-192.5 303,-192.5 303,-162.5 108,-162.5"/>
<text text-anchor="start" x="114.8857" y="-173.9" font-family="Arial" font-size="14.00" fill="#000000">priority    </text>
<text text-anchor="start" x="191.0807" y="-173.9" font-family="Arial" font-size="14.00" fill="#666666">[tinyint unsigned]</text>
<polygon fill="none" stroke="#000000" points="108,-132.5 108,-162.5 303,-162.5 303,-132.5 108,-132.5"/>
<text text-anchor="start" x="115" y="-143.9" font-family="Arial" font-size="14.00" fill="#000000">due_on    </text>
<text text-anchor="start" x="195.9004" y="-143.9" font-family="Arial" font-size="14.00" fill="#666666">[date]</text>
<polygon fill="none" stroke="#000000" points="108,-102.5 108,-132.5 303,-132.5 303,-102.5 108,-102.5"/>
<text text-anchor="start" x="115" y="-113.9" font-family="Arial" font-size="14.00" fill="#000000">completed_at    </text>
<text text-anchor="start" x="233.2314" y="-113.9" font-family="Arial" font-size="14.00" fill="#666666">[datetime]</text>
<polygon fill="none" stroke="#000000" points="108,-72.5 108,-102.5 303,-102.5 303,-72.5 108,-72.5"/>
<text text-anchor="start" x="115" y="-83.9" font-family="Arial" font-size="14.00" fill="#000000">created_at    </text>
<text text-anchor="start" x="215.3422" y="-83.9" font-family="Arial" font-size="14.00" fill="#666666">[datetime]</text>
<polygon fill="none" stroke="#000000" points="108,-42.5 108,-72.5 303,-72.5 303,-42.5 108,-42.5"/>
<text text-anchor="start" x="115" y="-53.9" font-family="Arial" font-size="14.00" fill="#000000">updated_at    </text>
<text text-anchor="start" x="219.2468" y="-53.9" font-family="Arial" font-size="14.00" fill="#666666">[datetime]</text>
</g>
<!-- tasks_tags&#45;&gt;tasks -->
<g id="edge1" class="edge">
<title>tasks_tags:task_id&#45;&gt;tasks:id</title>
<path fill="none" stroke="#000000" d="M226.8589,-576.4316C187.1368,-567.1712 211.584,-499.8143 237,-457 254.0563,-428.268 285.9437,-449.732 303,-421 324.2126,-385.2664 344.5556,-327.5 303,-327.5"/>
<polygon fill="#000000" stroke="#000000" points="227.055,-576.4521 236.5285,-581.9752 232.0275,-576.9761 237,-577.5 237,-577.5 237,-577.5 232.0275,-576.9761 237.4715,-573.0248 227.055,-576.4521 227.055,-576.4521"/>
<text text-anchor="start" x="7.054" y="-587.5" font-family="Arial" font-size="10.00" fill="#000000">FOREIGN KEY (task_id) REFERENCES tasks (id)</text>
</g>
<!-- tags -->
<g id="node3" class="node">
<title>tags</title>
<polygon fill="#efefef" stroke="transparent" points="407,-267.5 407,-302.5 586,-302.5 586,-267.5 407,-267.5"/>
<polygon fill="none" stroke="#000000" points="407,-267.5 407,-302.5 586,-302.5 586,-267.5 407,-267.5"/>
<text text-anchor="start" x="415.7087" y="-280.3" font-family="Arial Bold" font-size="18.00" fill="#000000">tags</text>
<text text-anchor="start" x="449.7233" y="-280.3" font-family="Arial" font-size="14.00" fill="#000000">    </text>
<text text-anchor="start" x="483.9281" y="-280.3" font-family="Arial" font-size="14.00" fill="#666666">[BASE TABLE]</text>
<polygon fill="none" stroke="#000000" points="407,-237.5 407,-267.5 586,-267.5 586,-237.5 407,-237.5"/>
<text text-anchor="start" x="414" y="-248.9" font-family="Arial" font-size="14.00" fill="#000000">id    </text>
<text text-anchor="start" x="459.094" y="-248.9" font-family="Arial" font-size="14.00" fill="#666666">[char(26)]</text>
<polygon fill="none" stroke="#000000" points="407,-207.5 407,-237.5 586,-237.5 586,-207.5 407,-207.5"/>
<text text-anchor="start" x="414" y="-218.9" font-family="Arial" font-size="14.00" fill="#000000">user_id    </text>
<text text-anchor="start" x="494.1024" y="-218.9" font-family="Arial" font-size="14.00" fill="#666666">[char(26)]</text>
<polygon fill="none" stroke="#000000" points="407,-177.5 407,-207.5 586,-207.5 586,-177.5 407,-177.5"/>
<text text-anchor="start" x="414" y="-188.9" font-family="Arial" font-size="14.00" fill="#000000">name    </text>
<text text-anchor="start" x="483.2132" y="-188.9" font-family="Arial" font-size="14.00" fill="#666666">[varchar(20)]</text>
<polygon fill="none" stroke="#000000" points="407,-147.5 407,-177.5 586,-177.5 586,-147.5 407,-147.5"/>
<text text-anchor="start" x="414" y="-158.9" font-family="Arial" font-size="14.00" fill="#000000">created_at    </text>
<text text-anchor="start" x="514.3422" y="-158.9" font-family="Arial" font-size="14.00" fill="#666666">[datetime]</text>
<polygon fill="none" stroke="#000000" points="407,-117.5 407,-147.5 586,-147.5 586,-117.5 407,-117.5"/>
<text text-anchor="start" x="413.6466" y="-128.9" font-family="Arial" font-size="14.00" fill="#000000">updated_at    </text>
<text text-anchor="start" x="517.8934" y="-128.9" font-family="Arial" font-size="14.00" fill="#666666">[datetime]</text>
</g>
<!-- tasks_tags&#45;&gt;tags -->
<g id="edge2" class="edge">
<title>tasks_tags:tag_id&#45;&gt;tags:id</title>
<path fill="none" stroke="#000000" d="M474.2651,-546.8036C579.5475,-531.0276 277.2456,-252.5 407,-252.5"/>
<polygon fill="#000000" stroke="#000000" points="473.9771,-546.823 463.6954,-543.0103 468.9885,-547.1615 464,-547.5 464,-547.5 464,-547.5 468.9885,-547.1615 464.3046,-551.9897 473.9771,-546.823 473.9771,-546.823"/>
<text text-anchor="start" x="471.495" y="-557.5" font-family="Arial" font-size="10.00" fill="#000000">FOREIGN KEY (tag_id) REFERENCES tags (id)</text>
</g>
</g>
</svg>
