<?xml version="1.0" encoding="UTF-8" standalone="no"?>
<!DOCTYPE svg PUBLIC "-//W3C//DTD SVG 1.1//EN"
 "http://www.w3.org/Graphics/SVG/1.1/DTD/svg11.dtd">
<!-- Generated by graphviz version 12.1.2 (20240928.0832)
 -->
<!-- Title: tasks Pages: 1 -->
<svg width="686pt" height="1191pt"
 viewBox="0.00 0.00 685.93 1191.20" xmlns="http://www.w3.org/2000/svg" xmlns:xlink="http://www.w3.org/1999/xlink">
<g id="graph0" class="graph" transform="scale(1 1) rotate(0) translate(4 1187.2)">
<title>tasks</title>
<polygon fill="white" stroke="none" points="-4,4 -4,-1187.2 681.93,-1187.2 681.93,4 -4,4"/>
<!-- tasks -->
<g id="node1" class="node">
<title>tasks</title>
<polygon fill="#efefef" stroke="none" points="241.16,-727.8 241.16,-763.4 415.65,-763.4 415.65,-727.8 241.16,-727.8"/>
<polygon fill="none" stroke="black" points="241.16,-727.8 241.16,-763.4 415.65,-763.4 415.65,-727.8 241.16,-727.8"/>
<text text-anchor="start" x="248.16" y="-741.2" font-family="Arial Bold" font-size="18.00">tasks</text>
<text text-anchor="start" x="284.16" y="-741.2" font-family="Arial" font-size="14.00">    </text>
<text text-anchor="start" x="315.27" y="-741.2" font-family="Arial" font-size="14.00" fill="#666666">[BASE TABLE]</text>
<polygon fill="none" stroke="black" points="241.16,-697 241.16,-727.8 415.65,-727.8 415.65,-697 241.16,-697"/>
<text text-anchor="start" x="248.16" y="-709.2" font-family="Arial" font-size="14.00">id </text>
<text text-anchor="start" x="262.94" y="-709.2" font-family="Arial" font-size="14.00" fill="#666666">[char(26)]</text>
<polygon fill="none" stroke="black" points="241.16,-666.2 241.16,-697 415.65,-697 415.65,-666.2 241.16,-666.2"/>
<text text-anchor="start" x="248.16" y="-678.4" font-family="Arial" font-size="14.00">user_id </text>
<text text-anchor="start" x="297.96" y="-678.4" font-family="Arial" font-size="14.00" fill="#666666">[char(26)]</text>
<polygon fill="none" stroke="black" points="241.16,-635.4 241.16,-666.2 415.65,-666.2 415.65,-635.4 241.16,-635.4"/>
<text text-anchor="start" x="248.16" y="-647.6" font-family="Arial" font-size="14.00">project_id </text>
<text text-anchor="start" x="312.75" y="-647.6" font-family="Arial" font-size="14.00" fill="#666666">[char(26)]</text>
<polygon fill="none" stroke="black" points="241.16,-604.6 241.16,-635.4 415.65,-635.4 415.65,-604.6 241.16,-604.6"/>
<text text-anchor="start" x="248.16" y="-616.8" font-family="Arial" font-size="14.00">name </text>
<text text-anchor="start" x="287.07" y="-616.8" font-family="Arial" font-size="14.00" fill="#666666">[varchar(80)]</text>
<polygon fill="none" stroke="black" points="241.16,-573.8 241.16,-604.6 415.65,-604.6 415.65,-573.8 241.16,-573.8"/>
<text text-anchor="start" x="248.16" y="-586" font-family="Arial" font-size="14.00">content </text>
<text text-anchor="start" x="297.97" y="-586" font-family="Arial" font-size="14.00" fill="#666666">[varchar(300)]</text>
<polygon fill="none" stroke="black" points="241.16,-543 241.16,-573.8 415.65,-573.8 415.65,-543 241.16,-543"/>
<text text-anchor="start" x="248.16" y="-555.2" font-family="Arial" font-size="14.00">priority </text>
<text text-anchor="start" x="294.05" y="-555.2" font-family="Arial" font-size="14.00" fill="#666666">[tinyint unsigned]</text>
<polygon fill="none" stroke="black" points="241.16,-512.2 241.16,-543 415.65,-543 415.65,-512.2 241.16,-512.2"/>
<text text-anchor="start" x="248.16" y="-524.4" font-family="Arial" font-size="14.00">due_on </text>
<text text-anchor="start" x="298.76" y="-524.4" font-family="Arial" font-size="14.00" fill="#666666">[date]</text>
<polygon fill="none" stroke="black" points="241.16,-481.4 241.16,-512.2 415.65,-512.2 415.65,-481.4 241.16,-481.4"/>
<text text-anchor="start" x="248.16" y="-493.6" font-family="Arial" font-size="14.00">completed_at </text>
<text text-anchor="start" x="336.1" y="-493.6" font-family="Arial" font-size="14.00" fill="#666666">[datetime]</text>
<polygon fill="none" stroke="black" points="241.16,-450.6 241.16,-481.4 415.65,-481.4 415.65,-450.6 241.16,-450.6"/>
<text text-anchor="start" x="248.16" y="-462.8" font-family="Arial" font-size="14.00">created_at </text>
<text text-anchor="start" x="318.21" y="-462.8" font-family="Arial" font-size="14.00" fill="#666666">[datetime]</text>
<polygon fill="none" stroke="black" points="241.16,-419.8 241.16,-450.6 415.65,-450.6 415.65,-419.8 241.16,-419.8"/>
<text text-anchor="start" x="248.16" y="-432" font-family="Arial" font-size="14.00">updated_at </text>
<text text-anchor="start" x="322.12" y="-432" font-family="Arial" font-size="14.00" fill="#666666">[datetime]</text>
<polygon fill="none" stroke="black" stroke-width="3" points="239.66,-418.3 239.66,-764.9 417.15,-764.9 417.15,-418.3 239.66,-418.3"/>
</g>
<!-- users -->
<g id="node4" class="node">
<title>users</title>
<polygon fill="#efefef" stroke="none" points="95.66,-243.4 95.66,-279 271.14,-279 271.14,-243.4 95.66,-243.4"/>
<polygon fill="none" stroke="black" points="95.66,-243.4 95.66,-279 271.14,-279 271.14,-243.4 95.66,-243.4"/>
<text text-anchor="start" x="102.66" y="-256.8" font-family="Arial Bold" font-size="18.00">users</text>
<text text-anchor="start" x="139.65" y="-256.8" font-family="Arial" font-size="14.00">    </text>
<text text-anchor="start" x="170.77" y="-256.8" font-family="Arial" font-size="14.00" fill="#666666">[BASE TABLE]</text>
<polygon fill="none" stroke="black" points="95.66,-212.6 95.66,-243.4 271.14,-243.4 271.14,-212.6 95.66,-212.6"/>
<text text-anchor="start" x="102.66" y="-224.8" font-family="Arial" font-size="14.00">id </text>
<text text-anchor="start" x="117.45" y="-224.8" font-family="Arial" font-size="14.00" fill="#666666">[char(26)]</text>
<polygon fill="none" stroke="black" points="95.66,-181.8 95.66,-212.6 271.14,-212.6 271.14,-181.8 95.66,-181.8"/>
<text text-anchor="start" x="102.66" y="-194" font-family="Arial" font-size="14.00">name </text>
<text text-anchor="start" x="141.57" y="-194" font-family="Arial" font-size="14.00" fill="#666666">[varchar(15)]</text>
<polygon fill="none" stroke="black" points="95.66,-151 95.66,-181.8 271.14,-181.8 271.14,-151 95.66,-151"/>
<text text-anchor="start" x="102.66" y="-163.2" font-family="Arial" font-size="14.00">email </text>
<text text-anchor="start" x="140.01" y="-163.2" font-family="Arial" font-size="14.00" fill="#666666">[varchar(254)]</text>
<polygon fill="none" stroke="black" points="95.66,-120.2 95.66,-151 271.14,-151 271.14,-120.2 95.66,-120.2"/>
<text text-anchor="start" x="102.66" y="-132.4" font-family="Arial" font-size="14.00">password </text>
<text text-anchor="start" x="166.47" y="-132.4" font-family="Arial" font-size="14.00" fill="#666666">[char(60)]</text>
<polygon fill="none" stroke="black" points="95.66,-89.4 95.66,-120.2 271.14,-120.2 271.14,-89.4 95.66,-89.4"/>
<text text-anchor="start" x="102.66" y="-101.6" font-family="Arial" font-size="14.00">created_at </text>
<text text-anchor="start" x="172.71" y="-101.6" font-family="Arial" font-size="14.00" fill="#666666">[datetime]</text>
<polygon fill="none" stroke="black" points="95.66,-58.6 95.66,-89.4 271.14,-89.4 271.14,-58.6 95.66,-58.6"/>
<text text-anchor="start" x="102.66" y="-70.8" font-family="Arial" font-size="14.00">updated_at </text>
<text text-anchor="start" x="176.62" y="-70.8" font-family="Arial" font-size="14.00" fill="#666666">[datetime]</text>
</g>
<!-- tasks&#45;&gt;users -->
<g id="edge3" class="edge">
<title>tasks:user_id&#45;&gt;users:id</title>
<path fill="none" stroke="black" d="M229.82,-681.24C108.6,-672.35 206.16,-502.2 241.16,-373.6 248.1,-348.08 264.1,-347.69 271.14,-322.2 282.29,-281.84 314.01,-228 272.14,-228"/>
<polygon fill="black" stroke="black" points="229.83,-681.24 239.67,-686.09 235.16,-681.42 239.49,-681.58 239.49,-681.58 239.49,-681.58 235.16,-681.42 239.98,-677.09 229.83,-681.24"/>
<text text-anchor="start" x="7" y="-691.6" font-family="Arial" font-size="10.00">FOREIGN KEY (user_id) REFERENCES users (id)</text>
</g>
<!-- projects -->
<g id="node5" class="node">
<title>projects</title>
<polygon fill="#efefef" stroke="none" points="375.67,-258.8 375.67,-294.4 571.14,-294.4 571.14,-258.8 375.67,-258.8"/>
<polygon fill="none" stroke="black" points="375.67,-258.8 375.67,-294.4 571.14,-294.4 571.14,-258.8 375.67,-258.8"/>
<text text-anchor="start" x="382.67" y="-272.2" font-family="Arial Bold" font-size="18.00">projects</text>
<text text-anchor="start" x="439.65" y="-272.2" font-family="Arial" font-size="14.00">    </text>
<text text-anchor="start" x="470.76" y="-272.2" font-family="Arial" font-size="14.00" fill="#666666">[BASE TABLE]</text>
<polygon fill="none" stroke="black" points="375.67,-228 375.67,-258.8 571.14,-258.8 571.14,-228 375.67,-228"/>
<text text-anchor="start" x="382.67" y="-240.2" font-family="Arial" font-size="14.00">id </text>
<text text-anchor="start" x="397.45" y="-240.2" font-family="Arial" font-size="14.00" fill="#666666">[char(26)]</text>
<polygon fill="none" stroke="black" points="375.67,-197.2 375.67,-228 571.14,-228 571.14,-197.2 375.67,-197.2"/>
<text text-anchor="start" x="382.67" y="-209.4" font-family="Arial" font-size="14.00">user_id </text>
<text text-anchor="start" x="432.47" y="-209.4" font-family="Arial" font-size="14.00" fill="#666666">[char(26)]</text>
<polygon fill="none" stroke="black" points="375.67,-166.4 375.67,-197.2 571.14,-197.2 571.14,-166.4 375.67,-166.4"/>
<text text-anchor="start" x="382.67" y="-178.6" font-family="Arial" font-size="14.00">name </text>
<text text-anchor="start" x="421.58" y="-178.6" font-family="Arial" font-size="14.00" fill="#666666">[varchar(20)]</text>
<polygon fill="none" stroke="black" points="375.67,-135.6 375.67,-166.4 571.14,-166.4 571.14,-135.6 375.67,-135.6"/>
<text text-anchor="start" x="382.67" y="-147.8" font-family="Arial" font-size="14.00">color </text>
<text text-anchor="start" x="416.9" y="-147.8" font-family="Arial" font-size="14.00" fill="#666666">[char(7)]</text>
<polygon fill="none" stroke="black" points="375.67,-104.8 375.67,-135.6 571.14,-135.6 571.14,-104.8 375.67,-104.8"/>
<text text-anchor="start" x="382.67" y="-117" font-family="Arial" font-size="14.00">is_archived </text>
<text text-anchor="start" x="457.37" y="-117" font-family="Arial" font-size="14.00" fill="#666666">[tinyint(1)]</text>
<polygon fill="none" stroke="black" points="375.67,-74 375.67,-104.8 571.14,-104.8 571.14,-74 375.67,-74"/>
<text text-anchor="start" x="382.67" y="-86.2" font-family="Arial" font-size="14.00">created_at </text>
<text text-anchor="start" x="452.72" y="-86.2" font-family="Arial" font-size="14.00" fill="#666666">[datetime]</text>
<polygon fill="none" stroke="black" points="375.67,-43.2 375.67,-74 571.14,-74 571.14,-43.2 375.67,-43.2"/>
<text text-anchor="start" x="382.67" y="-55.4" font-family="Arial" font-size="14.00">updated_at </text>
<text text-anchor="start" x="456.63" y="-55.4" font-family="Arial" font-size="14.00" fill="#666666">[datetime]</text>
</g>
<!-- tasks&#45;&gt;projects -->
<g id="edge4" class="edge">
<title>tasks:project_id&#45;&gt;projects:id</title>
<path fill="none" stroke="black" d="M426.97,-650.38C535.54,-641.19 464.48,-482.77 415.65,-373.6 405.88,-351.77 385.51,-359.39 375.67,-337.6 358.44,-299.44 332.8,-243.4 374.67,-243.4"/>
<polygon fill="black" stroke="black" points="426.97,-650.38 416.8,-646.29 421.64,-650.6 417.31,-650.77 417.31,-650.77 417.31,-650.77 421.64,-650.6 417.16,-655.28 426.97,-650.38"/>
<text text-anchor="start" x="423.65" y="-660.8" font-family="Arial" font-size="10.00">FOREIGN KEY (project_id) REFERENCES projects (id)</text>
</g>
<!-- steps -->
<g id="node2" class="node">
<title>steps</title>
<polygon fill="#efefef" stroke="none" points="92.16,-1104.4 92.16,-1140 266.65,-1140 266.65,-1104.4 92.16,-1104.4"/>
<polygon fill="none" stroke="black" points="92.16,-1104.4 92.16,-1140 266.65,-1140 266.65,-1104.4 92.16,-1104.4"/>
<text text-anchor="start" x="99.16" y="-1117.8" font-family="Arial Bold" font-size="18.00">steps</text>
<text text-anchor="start" x="135.16" y="-1117.8" font-family="Arial" font-size="14.00">    </text>
<text text-anchor="start" x="166.27" y="-1117.8" font-family="Arial" font-size="14.00" fill="#666666">[BASE TABLE]</text>
<polygon fill="none" stroke="black" points="92.16,-1073.6 92.16,-1104.4 266.65,-1104.4 266.65,-1073.6 92.16,-1073.6"/>
<text text-anchor="start" x="99.16" y="-1085.8" font-family="Arial" font-size="14.00">id </text>
<text text-anchor="start" x="113.94" y="-1085.8" font-family="Arial" font-size="14.00" fill="#666666">[char(26)]</text>
<polygon fill="none" stroke="black" points="92.16,-1042.8 92.16,-1073.6 266.65,-1073.6 266.65,-1042.8 92.16,-1042.8"/>
<text text-anchor="start" x="99.16" y="-1055" font-family="Arial" font-size="14.00">user_id </text>
<text text-anchor="start" x="148.96" y="-1055" font-family="Arial" font-size="14.00" fill="#666666">[char(26)]</text>
<polygon fill="none" stroke="black" points="92.16,-1012 92.16,-1042.8 266.65,-1042.8 266.65,-1012 92.16,-1012"/>
<text text-anchor="start" x="99.16" y="-1024.2" font-family="Arial" font-size="14.00">task_id </text>
<text text-anchor="start" x="147.41" y="-1024.2" font-family="Arial" font-size="14.00" fill="#666666">[char(26)]</text>
<polygon fill="none" stroke="black" points="92.16,-981.2 92.16,-1012 266.65,-1012 266.65,-981.2 92.16,-981.2"/>
<text text-anchor="start" x="99.16" y="-993.4" font-family="Arial" font-size="14.00">name </text>
<text text-anchor="start" x="138.07" y="-993.4" font-family="Arial" font-size="14.00" fill="#666666">[varchar(80)]</text>
<polygon fill="none" stroke="black" points="92.16,-950.4 92.16,-981.2 266.65,-981.2 266.65,-950.4 92.16,-950.4"/>
<text text-anchor="start" x="99.16" y="-962.6" font-family="Arial" font-size="14.00">completed_at </text>
<text text-anchor="start" x="187.1" y="-962.6" font-family="Arial" font-size="14.00" fill="#666666">[datetime]</text>
<polygon fill="none" stroke="black" points="92.16,-919.6 92.16,-950.4 266.65,-950.4 266.65,-919.6 92.16,-919.6"/>
<text text-anchor="start" x="99.16" y="-931.8" font-family="Arial" font-size="14.00">created_at </text>
<text text-anchor="start" x="169.21" y="-931.8" font-family="Arial" font-size="14.00" fill="#666666">[datetime]</text>
<polygon fill="none" stroke="black" points="92.16,-888.8 92.16,-919.6 266.65,-919.6 266.65,-888.8 92.16,-888.8"/>
<text text-anchor="start" x="99.16" y="-901" font-family="Arial" font-size="14.00">updated_at </text>
<text text-anchor="start" x="173.12" y="-901" font-family="Arial" font-size="14.00" fill="#666666">[datetime]</text>
</g>
<!-- steps&#45;&gt;tasks -->
<g id="edge1" class="edge">
<title>steps:task_id&#45;&gt;tasks:id</title>
<path fill="none" stroke="black" d="M277.72,-1026.78C343.38,-1018.03 290.25,-919.07 266.65,-845.6 260.65,-826.93 247.2,-828.25 241.16,-809.6 227.85,-768.5 196.95,-712.4 240.16,-712.4"/>
<polygon fill="black" stroke="black" points="277.96,-1026.76 267.7,-1022.89 272.64,-1027.09 268.31,-1027.36 268.31,-1027.36 268.31,-1027.36 272.64,-1027.09 268.26,-1031.87 277.96,-1026.76"/>
<text text-anchor="start" x="36.72" y="-1037.4" font-family="Arial" font-size="10.00">FOREIGN KEY (task_id) REFERENCES tasks (id)</text>
</g>
<!-- tasks_tags -->
<g id="node3" class="node">
<title>tasks_tags</title>
<polygon fill="#efefef" stroke="none" points="371.16,-1042.8 371.16,-1078.4 583.64,-1078.4 583.64,-1042.8 371.16,-1042.8"/>
<polygon fill="none" stroke="black" points="371.16,-1042.8 371.16,-1078.4 583.64,-1078.4 583.64,-1042.8 371.16,-1042.8"/>
<text text-anchor="start" x="378.16" y="-1056.2" font-family="Arial Bold" font-size="18.00">tasks_tags</text>
<text text-anchor="start" x="452.15" y="-1056.2" font-family="Arial" font-size="14.00">    </text>
<text text-anchor="start" x="483.27" y="-1056.2" font-family="Arial" font-size="14.00" fill="#666666">[BASE TABLE]</text>
<polygon fill="none" stroke="black" points="371.16,-1012 371.16,-1042.8 583.64,-1042.8 583.64,-1012 371.16,-1012"/>
<text text-anchor="start" x="378.16" y="-1024.2" font-family="Arial" font-size="14.00">task_id </text>
<text text-anchor="start" x="426.41" y="-1024.2" font-family="Arial" font-size="14.00" fill="#666666">[char(26)]</text>
<polygon fill="none" stroke="black" points="371.16,-981.2 371.16,-1012 583.64,-1012 583.64,-981.2 371.16,-981.2"/>
<text text-anchor="start" x="378.16" y="-993.4" font-family="Arial" font-size="14.00">tag_id </text>
<text text-anchor="start" x="420.19" y="-993.4" font-family="Arial" font-size="14.00" fill="#666666">[char(26)]</text>
<polygon fill="none" stroke="black" points="371.16,-950.4 371.16,-981.2 583.64,-981.2 583.64,-950.4 371.16,-950.4"/>
<text text-anchor="start" x="378.16" y="-962.6" font-family="Arial" font-size="14.00">created_at </text>
<text text-anchor="start" x="448.21" y="-962.6" font-family="Arial" font-size="14.00" fill="#666666">[datetime]</text>
</g>
<!-- tasks_tags&#45;&gt;tasks -->
<g id="edge2" class="edge">
<title>tasks_tags:task_id&#45;&gt;tasks:id</title>
<path fill="none" stroke="black" d="M360.05,-1026.36C289.76,-1010.43 414.2,-816.12 415.65,-809.6 425.03,-767.43 459.85,-712.4 416.65,-712.4"/>
<polygon fill="black" stroke="black" points="359.88,-1026.35 369.37,-1031.84 365.19,-1026.89 369.49,-1027.33 369.49,-1027.33 369.49,-1027.33 365.19,-1026.89 370.29,-1022.89 359.88,-1026.35"/>
<text text-anchor="start" x="317.68" y="-1011.4" font-family="Arial" font-size="10.00">FOREIGN KEY (task_id) REFERENCES tasks (id)</text>
</g>
</g>
</svg>
