<?xml version="1.0" encoding="UTF-8" standalone="no"?>
<!DOCTYPE svg PUBLIC "-//W3C//DTD SVG 1.1//EN"
 "http://www.w3.org/Graphics/SVG/1.1/DTD/svg11.dtd">
<!-- Generated by graphviz version 12.1.2 (20240928.0832)
 -->
<!-- Title: tasks_tags Pages: 1 -->
<svg width="689pt" height="694pt"
 viewBox="0.00 0.00 689.47 694.40" xmlns="http://www.w3.org/2000/svg" xmlns:xlink="http://www.w3.org/1999/xlink">
<g id="graph0" class="graph" transform="scale(1 1) rotate(0) translate(4 690.4)">
<title>tasks_tags</title>
<polygon fill="white" stroke="none" points="-4,4 -4,-690.4 685.47,-690.4 685.47,4 -4,4"/>
<!-- tasks_tags -->
<g id="node1" class="node">
<title>tasks_tags</title>
<polygon fill="#efefef" stroke="none" points="238.93,-604.6 238.93,-640.2 451.42,-640.2 451.42,-604.6 238.93,-604.6"/>
<polygon fill="none" stroke="black" points="238.93,-604.6 238.93,-640.2 451.42,-640.2 451.42,-604.6 238.93,-604.6"/>
<text text-anchor="start" x="245.93" y="-618" font-family="Arial Bold" font-size="18.00">tasks_tags</text>
<text text-anchor="start" x="319.93" y="-618" font-family="Arial" font-size="14.00">    </text>
<text text-anchor="start" x="351.04" y="-618" font-family="Arial" font-size="14.00" fill="#666666">[BASE TABLE]</text>
<polygon fill="none" stroke="black" points="238.93,-573.8 238.93,-604.6 451.42,-604.6 451.42,-573.8 238.93,-573.8"/>
<text text-anchor="start" x="245.93" y="-586" font-family="Arial" font-size="14.00">task_id </text>
<text text-anchor="start" x="294.18" y="-586" font-family="Arial" font-size="14.00" fill="#666666">[char(26)]</text>
<polygon fill="none" stroke="black" points="238.93,-543 238.93,-573.8 451.42,-573.8 451.42,-543 238.93,-543"/>
<text text-anchor="start" x="245.93" y="-555.2" font-family="Arial" font-size="14.00">tag_id </text>
<text text-anchor="start" x="287.96" y="-555.2" font-family="Arial" font-size="14.00" fill="#666666">[char(26)]</text>
<polygon fill="none" stroke="black" points="238.93,-512.2 238.93,-543 451.42,-543 451.42,-512.2 238.93,-512.2"/>
<text text-anchor="start" x="245.93" y="-524.4" font-family="Arial" font-size="14.00">created_at </text>
<text text-anchor="start" x="315.98" y="-524.4" font-family="Arial" font-size="14.00" fill="#666666">[datetime]</text>
<polygon fill="none" stroke="black" stroke-width="3" points="237.43,-510.7 237.43,-641.7 452.92,-641.7 452.92,-510.7 237.43,-510.7"/>
</g>
<!-- tasks -->
<g id="node2" class="node">
<title>tasks</title>
<polygon fill="#efefef" stroke="none" points="120.93,-351.2 120.93,-386.8 295.42,-386.8 295.42,-351.2 120.93,-351.2"/>
<polygon fill="none" stroke="black" points="120.93,-351.2 120.93,-386.8 295.42,-386.8 295.42,-351.2 120.93,-351.2"/>
<text text-anchor="start" x="127.93" y="-364.6" font-family="Arial Bold" font-size="18.00">tasks</text>
<text text-anchor="start" x="163.93" y="-364.6" font-family="Arial" font-size="14.00">    </text>
<text text-anchor="start" x="195.05" y="-364.6" font-family="Arial" font-size="14.00" fill="#666666">[BASE TABLE]</text>
<polygon fill="none" stroke="black" points="120.93,-320.4 120.93,-351.2 295.42,-351.2 295.42,-320.4 120.93,-320.4"/>
<text text-anchor="start" x="127.93" y="-332.6" font-family="Arial" font-size="14.00">id </text>
<text text-anchor="start" x="142.71" y="-332.6" font-family="Arial" font-size="14.00" fill="#666666">[char(26)]</text>
<polygon fill="none" stroke="black" points="120.93,-289.6 120.93,-320.4 295.42,-320.4 295.42,-289.6 120.93,-289.6"/>
<text text-anchor="start" x="127.93" y="-301.8" font-family="Arial" font-size="14.00">user_id </text>
<text text-anchor="start" x="177.73" y="-301.8" font-family="Arial" font-size="14.00" fill="#666666">[char(26)]</text>
<polygon fill="none" stroke="black" points="120.93,-258.8 120.93,-289.6 295.42,-289.6 295.42,-258.8 120.93,-258.8"/>
<text text-anchor="start" x="127.93" y="-271" font-family="Arial" font-size="14.00">project_id </text>
<text text-anchor="start" x="192.52" y="-271" font-family="Arial" font-size="14.00" fill="#666666">[char(26)]</text>
<polygon fill="none" stroke="black" points="120.93,-228 120.93,-258.8 295.42,-258.8 295.42,-228 120.93,-228"/>
<text text-anchor="start" x="127.93" y="-240.2" font-family="Arial" font-size="14.00">name </text>
<text text-anchor="start" x="166.84" y="-240.2" font-family="Arial" font-size="14.00" fill="#666666">[varchar(80)]</text>
<polygon fill="none" stroke="black" points="120.93,-197.2 120.93,-228 295.42,-228 295.42,-197.2 120.93,-197.2"/>
<text text-anchor="start" x="127.93" y="-209.4" font-family="Arial" font-size="14.00">content </text>
<text text-anchor="start" x="177.74" y="-209.4" font-family="Arial" font-size="14.00" fill="#666666">[varchar(300)]</text>
<polygon fill="none" stroke="black" points="120.93,-166.4 120.93,-197.2 295.42,-197.2 295.42,-166.4 120.93,-166.4"/>
<text text-anchor="start" x="127.93" y="-178.6" font-family="Arial" font-size="14.00">priority </text>
<text text-anchor="start" x="173.82" y="-178.6" font-family="Arial" font-size="14.00" fill="#666666">[tinyint unsigned]</text>
<polygon fill="none" stroke="black" points="120.93,-135.6 120.93,-166.4 295.42,-166.4 295.42,-135.6 120.93,-135.6"/>
<text text-anchor="start" x="127.93" y="-147.8" font-family="Arial" font-size="14.00">due_on </text>
<text text-anchor="start" x="178.53" y="-147.8" font-family="Arial" font-size="14.00" fill="#666666">[date]</text>
<polygon fill="none" stroke="black" points="120.93,-104.8 120.93,-135.6 295.42,-135.6 295.42,-104.8 120.93,-104.8"/>
<text text-anchor="start" x="127.93" y="-117" font-family="Arial" font-size="14.00">completed_at </text>
<text text-anchor="start" x="215.87" y="-117" font-family="Arial" font-size="14.00" fill="#666666">[datetime]</text>
<polygon fill="none" stroke="black" points="120.93,-74 120.93,-104.8 295.42,-104.8 295.42,-74 120.93,-74"/>
<text text-anchor="start" x="127.93" y="-86.2" font-family="Arial" font-size="14.00">created_at </text>
<text text-anchor="start" x="197.98" y="-86.2" font-family="Arial" font-size="14.00" fill="#666666">[datetime]</text>
<polygon fill="none" stroke="black" points="120.93,-43.2 120.93,-74 295.42,-74 295.42,-43.2 120.93,-43.2"/>
<text text-anchor="start" x="127.93" y="-55.4" font-family="Arial" font-size="14.00">updated_at </text>
<text text-anchor="start" x="201.89" y="-55.4" font-family="Arial" font-size="14.00" fill="#666666">[datetime]</text>
</g>
<!-- tasks_tags&#45;&gt;tasks -->
<g id="edge1" class="edge">
<title>tasks_tags:task_id&#45;&gt;tasks:id</title>
<path fill="none" stroke="black" d="M227.6,-588.12C187.27,-578.75 214.27,-510.53 238.93,-466 253.35,-439.96 280.96,-456.03 295.42,-430 315.75,-393.4 338.29,-335.8 296.42,-335.8"/>
<polygon fill="black" stroke="black" points="227.65,-588.12 237.13,-593.64 232.96,-588.68 237.27,-589.13 237.27,-589.13 237.27,-589.13 232.96,-588.68 238.07,-584.69 227.65,-588.12"/>
<text text-anchor="start" x="7" y="-599.2" font-family="Arial" font-size="10.00">FOREIGN KEY (task_id) REFERENCES tasks (id)</text>
</g>
<!-- tags -->
<g id="node3" class="node">
<title>tags</title>
<polygon fill="#efefef" stroke="none" points="399.43,-274.2 399.43,-309.8 566.92,-309.8 566.92,-274.2 399.43,-274.2"/>
<polygon fill="none" stroke="black" points="399.43,-274.2 399.43,-309.8 566.92,-309.8 566.92,-274.2 399.43,-274.2"/>
<text text-anchor="start" x="406.43" y="-287.6" font-family="Arial Bold" font-size="18.00">tags</text>
<text text-anchor="start" x="435.43" y="-287.6" font-family="Arial" font-size="14.00">    </text>
<text text-anchor="start" x="466.54" y="-287.6" font-family="Arial" font-size="14.00" fill="#666666">[BASE TABLE]</text>
<polygon fill="none" stroke="black" points="399.43,-243.4 399.43,-274.2 566.92,-274.2 566.92,-243.4 399.43,-243.4"/>
<text text-anchor="start" x="406.43" y="-255.6" font-family="Arial" font-size="14.00">id </text>
<text text-anchor="start" x="421.22" y="-255.6" font-family="Arial" font-size="14.00" fill="#666666">[char(26)]</text>
<polygon fill="none" stroke="black" points="399.43,-212.6 399.43,-243.4 566.92,-243.4 566.92,-212.6 399.43,-212.6"/>
<text text-anchor="start" x="406.43" y="-224.8" font-family="Arial" font-size="14.00">user_id </text>
<text text-anchor="start" x="456.24" y="-224.8" font-family="Arial" font-size="14.00" fill="#666666">[char(26)]</text>
<polygon fill="none" stroke="black" points="399.43,-181.8 399.43,-212.6 566.92,-212.6 566.92,-181.8 399.43,-181.8"/>
<text text-anchor="start" x="406.43" y="-194" font-family="Arial" font-size="14.00">name </text>
<text text-anchor="start" x="445.34" y="-194" font-family="Arial" font-size="14.00" fill="#666666">[varchar(20)]</text>
<polygon fill="none" stroke="black" points="399.43,-151 399.43,-181.8 566.92,-181.8 566.92,-151 399.43,-151"/>
<text text-anchor="start" x="406.43" y="-163.2" font-family="Arial" font-size="14.00">created_at </text>
<text text-anchor="start" x="476.48" y="-163.2" font-family="Arial" font-size="14.00" fill="#666666">[datetime]</text>
<polygon fill="none" stroke="black" points="399.43,-120.2 399.43,-151 566.92,-151 566.92,-120.2 399.43,-120.2"/>
<text text-anchor="start" x="406.43" y="-132.4" font-family="Arial" font-size="14.00">updated_at </text>
<text text-anchor="start" x="480.39" y="-132.4" font-family="Arial" font-size="14.00" fill="#666666">[datetime]</text>
</g>
<!-- tasks_tags&#45;&gt;tags -->
<g id="edge2" class="edge">
<title>tasks_tags:tag_id&#45;&gt;tags:id</title>
<path fill="none" stroke="black" d="M462.82,-557.69C569.7,-541.67 266.96,-258.8 398.43,-258.8"/>
<polygon fill="black" stroke="black" points="462.73,-557.7 452.44,-553.89 457.4,-558.06 453.08,-558.35 453.08,-558.35 453.08,-558.35 457.4,-558.06 453.05,-562.87 462.73,-557.7"/>
<text text-anchor="start" x="459.42" y="-568.4" font-family="Arial" font-size="10.00">FOREIGN KEY (tag_id) REFERENCES tags (id)</text>
</g>
</g>
</svg>
