<?xml version="1.0" encoding="UTF-8" standalone="no"?>
<!DOCTYPE svg PUBLIC "-//W3C//DTD SVG 1.1//EN"
 "http://www.w3.org/Graphics/SVG/1.1/DTD/svg11.dtd">
<!-- Generated by graphviz version 2.40.1 (20161225.0304)
 -->
<!-- Title: users Pages: 1 -->
<svg width="1178pt" height="772pt"
 viewBox="0.00 0.00 1177.50 772.00" xmlns="http://www.w3.org/2000/svg" xmlns:xlink="http://www.w3.org/1999/xlink">
<g id="graph0" class="graph" transform="scale(1 1) rotate(0) translate(4 768)">
<title>users</title>
<polygon fill="#ffffff" stroke="transparent" points="-4,4 -4,-768 1173.5,-768 1173.5,4 -4,4"/>
<!-- users -->
<g id="node1" class="node">
<title>users</title>
<polygon fill="#efefef" stroke="transparent" points="501,-225.5 501,-260.5 686,-260.5 686,-225.5 501,-225.5"/>
<polygon fill="none" stroke="#000000" points="501,-225.5 501,-260.5 686,-260.5 686,-225.5 501,-225.5"/>
<text text-anchor="start" x="507.7137" y="-238.3" font-family="Arial Bold" font-size="18.00" fill="#000000">users</text>
<text text-anchor="start" x="551.7183" y="-238.3" font-family="Arial" font-size="14.00" fill="#000000">    </text>
<text text-anchor="start" x="585.9231" y="-238.3" font-family="Arial" font-size="14.00" fill="#666666">[BASE TABLE]</text>
<polygon fill="none" stroke="#000000" points="501,-195.5 501,-225.5 686,-225.5 686,-195.5 501,-195.5"/>
<text text-anchor="start" x="508" y="-206.9" font-family="Arial" font-size="14.00" fill="#000000">id </text>
<text text-anchor="start" x="522.7798" y="-206.9" font-family="Arial" font-size="14.00" fill="#666666">[char(26)]</text>
<polygon fill="none" stroke="#000000" points="501,-165.5 501,-195.5 686,-195.5 686,-165.5 501,-165.5"/>
<text text-anchor="start" x="508" y="-176.9" font-family="Arial" font-size="14.00" fill="#000000">name </text>
<text text-anchor="start" x="546.899" y="-176.9" font-family="Arial" font-size="14.00" fill="#666666">[varchar(15)]</text>
<polygon fill="none" stroke="#000000" points="501,-135.5 501,-165.5 686,-165.5 686,-135.5 501,-135.5"/>
<text text-anchor="start" x="508" y="-146.9" font-family="Arial" font-size="14.00" fill="#000000">email </text>
<text text-anchor="start" x="545.3296" y="-146.9" font-family="Arial" font-size="14.00" fill="#666666">[varchar(254)]</text>
<polygon fill="none" stroke="#000000" points="501,-105.5 501,-135.5 686,-135.5 686,-105.5 501,-105.5"/>
<text text-anchor="start" x="508" y="-116.9" font-family="Arial" font-size="14.00" fill="#000000">password </text>
<text text-anchor="start" x="571.7882" y="-116.9" font-family="Arial" font-size="14.00" fill="#666666">[char(60)]</text>
<polygon fill="none" stroke="#000000" points="501,-75.5 501,-105.5 686,-105.5 686,-75.5 501,-75.5"/>
<text text-anchor="start" x="508" y="-86.9" font-family="Arial" font-size="14.00" fill="#000000">created_at </text>
<text text-anchor="start" x="578.028" y="-86.9" font-family="Arial" font-size="14.00" fill="#666666">[datetime]</text>
<polygon fill="none" stroke="#000000" points="501,-45.5 501,-75.5 686,-75.5 686,-45.5 501,-45.5"/>
<text text-anchor="start" x="508" y="-56.9" font-family="Arial" font-size="14.00" fill="#000000">updated_at </text>
<text text-anchor="start" x="581.9326" y="-56.9" font-family="Arial" font-size="14.00" fill="#666666">[datetime]</text>
<polygon fill="none" stroke="#000000" stroke-width="3" points="499,-44.5 499,-262.5 687,-262.5 687,-44.5 499,-44.5"/>
</g>
<!-- projects -->
<g id="node2" class="node">
<title>projects</title>
<polygon fill="#efefef" stroke="transparent" points="43,-640.5 43,-675.5 247,-675.5 247,-640.5 43,-640.5"/>
<polygon fill="none" stroke="#000000" points="43,-640.5 43,-675.5 247,-675.5 247,-640.5 43,-640.5"/>
<text text-anchor="start" x="49.7124" y="-653.3" font-family="Arial Bold" font-size="18.00" fill="#000000">projects</text>
<text text-anchor="start" x="112.7196" y="-653.3" font-family="Arial" font-size="14.00" fill="#000000">    </text>
<text text-anchor="start" x="146.9244" y="-653.3" font-family="Arial" font-size="14.00" fill="#666666">[BASE TABLE]</text>
<polygon fill="none" stroke="#000000" points="43,-610.5 43,-640.5 247,-640.5 247,-610.5 43,-610.5"/>
<text text-anchor="start" x="50" y="-621.9" font-family="Arial" font-size="14.00" fill="#000000">id    </text>
<text text-anchor="start" x="95.094" y="-621.9" font-family="Arial" font-size="14.00" fill="#666666">[char(26)]</text>
<polygon fill="none" stroke="#000000" points="43,-580.5 43,-610.5 247,-610.5 247,-580.5 43,-580.5"/>
<text text-anchor="start" x="50" y="-591.9" font-family="Arial" font-size="14.00" fill="#000000">user_id    </text>
<text text-anchor="start" x="130.1024" y="-591.9" font-family="Arial" font-size="14.00" fill="#666666">[char(26)]</text>
<polygon fill="none" stroke="#000000" points="43,-550.5 43,-580.5 247,-580.5 247,-550.5 43,-550.5"/>
<text text-anchor="start" x="50" y="-561.9" font-family="Arial" font-size="14.00" fill="#000000">name    </text>
<text text-anchor="start" x="119.2132" y="-561.9" font-family="Arial" font-size="14.00" fill="#666666">[varchar(20)]</text>
<polygon fill="none" stroke="#000000" points="43,-520.5 43,-550.5 247,-550.5 247,-520.5 43,-520.5"/>
<text text-anchor="start" x="50" y="-531.9" font-family="Arial" font-size="14.00" fill="#000000">color    </text>
<text text-anchor="start" x="114.5372" y="-531.9" font-family="Arial" font-size="14.00" fill="#666666">[char(7)]</text>
<polygon fill="none" stroke="#000000" points="43,-490.5 43,-520.5 247,-520.5 247,-490.5 43,-490.5"/>
<text text-anchor="start" x="50" y="-501.9" font-family="Arial" font-size="14.00" fill="#000000">is_archived    </text>
<text text-anchor="start" x="154.9916" y="-501.9" font-family="Arial" font-size="14.00" fill="#666666">[tinyint(1)]</text>
<polygon fill="none" stroke="#000000" points="43,-460.5 43,-490.5 247,-490.5 247,-460.5 43,-460.5"/>
<text text-anchor="start" x="50" y="-471.9" font-family="Arial" font-size="14.00" fill="#000000">created_at    </text>
<text text-anchor="start" x="150.3422" y="-471.9" font-family="Arial" font-size="14.00" fill="#666666">[datetime]</text>
<polygon fill="none" stroke="#000000" points="43,-430.5 43,-460.5 247,-460.5 247,-430.5 43,-430.5"/>
<text text-anchor="start" x="50" y="-441.9" font-family="Arial" font-size="14.00" fill="#000000">updated_at    </text>
<text text-anchor="start" x="154.2468" y="-441.9" font-family="Arial" font-size="14.00" fill="#666666">[datetime]</text>
</g>
<!-- projects&#45;&gt;users -->
<g id="edge1" class="edge">
<title>projects:user_id&#45;&gt;users:id</title>
<path fill="none" stroke="#000000" d="M257.0472,-595.0447C353.8292,-585.7039 236.6311,-434.8172 299,-343 359.33,-254.1843 393.6317,-210.5 501,-210.5"/>
<polygon fill="#000000" stroke="#000000" points="256.9897,-595.0472 246.7962,-591.0046 251.9949,-595.2736 247,-595.5 247,-595.5 247,-595.5 251.9949,-595.2736 247.2038,-599.9954 256.9897,-595.0472 256.9897,-595.0472"/>
<text text-anchor="start" x="133.945" y="-579.5" font-family="Arial" font-size="10.00" fill="#000000">FOREIGN KEY (user_id) REFERENCES users (id)</text>
</g>
<!-- steps -->
<g id="node3" class="node">
<title>steps</title>
<polygon fill="#efefef" stroke="transparent" points="352,-640.5 352,-675.5 545,-675.5 545,-640.5 352,-640.5"/>
<polygon fill="none" stroke="#000000" points="352,-640.5 352,-675.5 545,-675.5 545,-640.5 352,-640.5"/>
<text text-anchor="start" x="363.2087" y="-653.3" font-family="Arial Bold" font-size="18.00" fill="#000000">steps</text>
<text text-anchor="start" x="406.2233" y="-653.3" font-family="Arial" font-size="14.00" fill="#000000">    </text>
<text text-anchor="start" x="440.4281" y="-653.3" font-family="Arial" font-size="14.00" fill="#666666">[BASE TABLE]</text>
<polygon fill="none" stroke="#000000" points="352,-610.5 352,-640.5 545,-640.5 545,-610.5 352,-610.5"/>
<text text-anchor="start" x="359" y="-621.9" font-family="Arial" font-size="14.00" fill="#000000">id    </text>
<text text-anchor="start" x="404.094" y="-621.9" font-family="Arial" font-size="14.00" fill="#666666">[char(26)]</text>
<polygon fill="none" stroke="#000000" points="352,-580.5 352,-610.5 545,-610.5 545,-580.5 352,-580.5"/>
<text text-anchor="start" x="359" y="-591.9" font-family="Arial" font-size="14.00" fill="#000000">user_id    </text>
<text text-anchor="start" x="439.1024" y="-591.9" font-family="Arial" font-size="14.00" fill="#666666">[char(26)]</text>
<polygon fill="none" stroke="#000000" points="352,-550.5 352,-580.5 545,-580.5 545,-550.5 352,-550.5"/>
<text text-anchor="start" x="359" y="-561.9" font-family="Arial" font-size="14.00" fill="#000000">task_id    </text>
<text text-anchor="start" x="437.5498" y="-561.9" font-family="Arial" font-size="14.00" fill="#666666">[char(26)]</text>
<polygon fill="none" stroke="#000000" points="352,-520.5 352,-550.5 545,-550.5 545,-520.5 352,-520.5"/>
<text text-anchor="start" x="359" y="-531.9" font-family="Arial" font-size="14.00" fill="#000000">name    </text>
<text text-anchor="start" x="428.2132" y="-531.9" font-family="Arial" font-size="14.00" fill="#666666">[varchar(80)]</text>
<polygon fill="none" stroke="#000000" points="352,-490.5 352,-520.5 545,-520.5 545,-490.5 352,-490.5"/>
<text text-anchor="start" x="358.6543" y="-501.9" font-family="Arial" font-size="14.00" fill="#000000">completed_at    </text>
<text text-anchor="start" x="476.8857" y="-501.9" font-family="Arial" font-size="14.00" fill="#666666">[datetime]</text>
<polygon fill="none" stroke="#000000" points="352,-460.5 352,-490.5 545,-490.5 545,-460.5 352,-460.5"/>
<text text-anchor="start" x="359" y="-471.9" font-family="Arial" font-size="14.00" fill="#000000">created_at    </text>
<text text-anchor="start" x="459.3422" y="-471.9" font-family="Arial" font-size="14.00" fill="#666666">[datetime]</text>
<polygon fill="none" stroke="#000000" points="352,-430.5 352,-460.5 545,-460.5 545,-430.5 352,-430.5"/>
<text text-anchor="start" x="359" y="-441.9" font-family="Arial" font-size="14.00" fill="#000000">updated_at    </text>
<text text-anchor="start" x="463.2468" y="-441.9" font-family="Arial" font-size="14.00" fill="#666666">[datetime]</text>
</g>
<!-- steps&#45;&gt;users -->
<g id="edge2" class="edge">
<title>steps:user_id&#45;&gt;users:id</title>
<path fill="none" stroke="#000000" d="M555.0794,-594.9681C631.863,-586.3159 566.8225,-473.8909 545,-388 534.9116,-348.293 511.0884,-346.707 501,-307 490.4387,-265.4318 458.1111,-210.5 501,-210.5"/>
<polygon fill="#000000" stroke="#000000" points="554.9861,-594.9729 544.7628,-591.0063 549.9931,-595.2364 545,-595.5 545,-595.5 545,-595.5 549.9931,-595.2364 545.2372,-599.9937 554.9861,-594.9729 554.9861,-594.9729"/>
<text text-anchor="start" x="551.945" y="-605.5" font-family="Arial" font-size="10.00" fill="#000000">FOREIGN KEY (user_id) REFERENCES users (id)</text>
</g>
<!-- tags -->
<g id="node4" class="node">
<title>tags</title>
<polygon fill="#efefef" stroke="transparent" points="649,-610.5 649,-645.5 828,-645.5 828,-610.5 649,-610.5"/>
<polygon fill="none" stroke="#000000" points="649,-610.5 649,-645.5 828,-645.5 828,-610.5 649,-610.5"/>
<text text-anchor="start" x="657.7087" y="-623.3" font-family="Arial Bold" font-size="18.00" fill="#000000">tags</text>
<text text-anchor="start" x="691.7233" y="-623.3" font-family="Arial" font-size="14.00" fill="#000000">    </text>
<text text-anchor="start" x="725.9281" y="-623.3" font-family="Arial" font-size="14.00" fill="#666666">[BASE TABLE]</text>
<polygon fill="none" stroke="#000000" points="649,-580.5 649,-610.5 828,-610.5 828,-580.5 649,-580.5"/>
<text text-anchor="start" x="656" y="-591.9" font-family="Arial" font-size="14.00" fill="#000000">id    </text>
<text text-anchor="start" x="701.094" y="-591.9" font-family="Arial" font-size="14.00" fill="#666666">[char(26)]</text>
<polygon fill="none" stroke="#000000" points="649,-550.5 649,-580.5 828,-580.5 828,-550.5 649,-550.5"/>
<text text-anchor="start" x="656" y="-561.9" font-family="Arial" font-size="14.00" fill="#000000">user_id    </text>
<text text-anchor="start" x="736.1024" y="-561.9" font-family="Arial" font-size="14.00" fill="#666666">[char(26)]</text>
<polygon fill="none" stroke="#000000" points="649,-520.5 649,-550.5 828,-550.5 828,-520.5 649,-520.5"/>
<text text-anchor="start" x="656" y="-531.9" font-family="Arial" font-size="14.00" fill="#000000">name    </text>
<text text-anchor="start" x="725.2132" y="-531.9" font-family="Arial" font-size="14.00" fill="#666666">[varchar(20)]</text>
<polygon fill="none" stroke="#000000" points="649,-490.5 649,-520.5 828,-520.5 828,-490.5 649,-490.5"/>
<text text-anchor="start" x="656" y="-501.9" font-family="Arial" font-size="14.00" fill="#000000">created_at    </text>
<text text-anchor="start" x="756.3422" y="-501.9" font-family="Arial" font-size="14.00" fill="#666666">[datetime]</text>
<polygon fill="none" stroke="#000000" points="649,-460.5 649,-490.5 828,-490.5 828,-460.5 649,-460.5"/>
<text text-anchor="start" x="655.6466" y="-471.9" font-family="Arial" font-size="14.00" fill="#000000">updated_at    </text>
<text text-anchor="start" x="759.8934" y="-471.9" font-family="Arial" font-size="14.00" fill="#666666">[datetime]</text>
</g>
<!-- tags&#45;&gt;users -->
<g id="edge3" class="edge">
<title>tags:user_id&#45;&gt;users:id</title>
<path fill="none" stroke="#000000" d="M638.8422,-565.0836C541.2314,-556.5325 667.9902,-417.9811 686,-307 692.87,-264.6649 728.8889,-210.5 686,-210.5"/>
<polygon fill="#000000" stroke="#000000" points="639.0084,-565.0903 648.8156,-569.9962 644.0042,-565.2952 649,-565.5 649,-565.5 649,-565.5 644.0042,-565.2952 649.1844,-561.0038 639.0084,-565.0903 639.0084,-565.0903"/>
<text text-anchor="start" x="655.945" y="-575.5" font-family="Arial" font-size="10.00" fill="#000000">FOREIGN KEY (user_id) REFERENCES users (id)</text>
</g>
<!-- tasks -->
<g id="node5" class="node">
<title>tasks</title>
<polygon fill="#efefef" stroke="transparent" points="932,-685.5 932,-720.5 1127,-720.5 1127,-685.5 932,-685.5"/>
<polygon fill="none" stroke="#000000" points="932,-685.5 932,-720.5 1127,-720.5 1127,-685.5 932,-685.5"/>
<text text-anchor="start" x="944.7118" y="-698.3" font-family="Arial Bold" font-size="18.00" fill="#000000">tasks</text>
<text text-anchor="start" x="986.7202" y="-698.3" font-family="Arial" font-size="14.00" fill="#000000">    </text>
<text text-anchor="start" x="1020.925" y="-698.3" font-family="Arial" font-size="14.00" fill="#666666">[BASE TABLE]</text>
<polygon fill="none" stroke="#000000" points="932,-655.5 932,-685.5 1127,-685.5 1127,-655.5 932,-655.5"/>
<text text-anchor="start" x="939" y="-666.9" font-family="Arial" font-size="14.00" fill="#000000">id    </text>
<text text-anchor="start" x="984.094" y="-666.9" font-family="Arial" font-size="14.00" fill="#666666">[char(26)]</text>
<polygon fill="none" stroke="#000000" points="932,-625.5 932,-655.5 1127,-655.5 1127,-625.5 932,-625.5"/>
<text text-anchor="start" x="939" y="-636.9" font-family="Arial" font-size="14.00" fill="#000000">user_id    </text>
<text text-anchor="start" x="1019.1024" y="-636.9" font-family="Arial" font-size="14.00" fill="#666666">[char(26)]</text>
<polygon fill="none" stroke="#000000" points="932,-595.5 932,-625.5 1127,-625.5 1127,-595.5 932,-595.5"/>
<text text-anchor="start" x="939" y="-606.9" font-family="Arial" font-size="14.00" fill="#000000">project_id    </text>
<text text-anchor="start" x="1033.8822" y="-606.9" font-family="Arial" font-size="14.00" fill="#666666">[char(26)]</text>
<polygon fill="none" stroke="#000000" points="932,-565.5 932,-595.5 1127,-595.5 1127,-565.5 932,-565.5"/>
<text text-anchor="start" x="939" y="-576.9" font-family="Arial" font-size="14.00" fill="#000000">name    </text>
<text text-anchor="start" x="1008.2132" y="-576.9" font-family="Arial" font-size="14.00" fill="#666666">[varchar(80)]</text>
<polygon fill="none" stroke="#000000" points="932,-535.5 932,-565.5 1127,-565.5 1127,-535.5 932,-535.5"/>
<text text-anchor="start" x="939" y="-546.9" font-family="Arial" font-size="14.00" fill="#000000">content    </text>
<text text-anchor="start" x="1019.1164" y="-546.9" font-family="Arial" font-size="14.00" fill="#666666">[varchar(300)]</text>
<polygon fill="none" stroke="#000000" points="932,-505.5 932,-535.5 1127,-535.5 1127,-505.5 932,-505.5"/>
<text text-anchor="start" x="938.8857" y="-516.9" font-family="Arial" font-size="14.00" fill="#000000">priority    </text>
<text text-anchor="start" x="1015.0807" y="-516.9" font-family="Arial" font-size="14.00" fill="#666666">[tinyint unsigned]</text>
<polygon fill="none" stroke="#000000" points="932,-475.5 932,-505.5 1127,-505.5 1127,-475.5 932,-475.5"/>
<text text-anchor="start" x="939" y="-486.9" font-family="Arial" font-size="14.00" fill="#000000">due_on    </text>
<text text-anchor="start" x="1019.9004" y="-486.9" font-family="Arial" font-size="14.00" fill="#666666">[date]</text>
<polygon fill="none" stroke="#000000" points="932,-445.5 932,-475.5 1127,-475.5 1127,-445.5 932,-445.5"/>
<text text-anchor="start" x="939" y="-456.9" font-family="Arial" font-size="14.00" fill="#000000">completed_at    </text>
<text text-anchor="start" x="1057.2314" y="-456.9" font-family="Arial" font-size="14.00" fill="#666666">[datetime]</text>
<polygon fill="none" stroke="#000000" points="932,-415.5 932,-445.5 1127,-445.5 1127,-415.5 932,-415.5"/>
<text text-anchor="start" x="939" y="-426.9" font-family="Arial" font-size="14.00" fill="#000000">created_at    </text>
<text text-anchor="start" x="1039.3422" y="-426.9" font-family="Arial" font-size="14.00" fill="#666666">[datetime]</text>
<polygon fill="none" stroke="#000000" points="932,-385.5 932,-415.5 1127,-415.5 1127,-385.5 932,-385.5"/>
<text text-anchor="start" x="939" y="-396.9" font-family="Arial" font-size="14.00" fill="#000000">updated_at    </text>
<text text-anchor="start" x="1043.2468" y="-396.9" font-family="Arial" font-size="14.00" fill="#666666">[datetime]</text>
</g>
<!-- tasks&#45;&gt;users -->
<g id="edge4" class="edge">
<title>tasks:user_id&#45;&gt;users:id</title>
<path fill="none" stroke="#000000" d="M922.0193,-638.4066C870.2525,-614.684 914.3592,-396.3336 880,-343 823.4522,-255.2246 790.4135,-210.5 686,-210.5"/>
<polygon fill="#000000" stroke="#000000" points="922.213,-638.4472 931.0762,-644.9042 927.1065,-639.4736 932,-640.5 932,-640.5 932,-640.5 927.1065,-639.4736 932.9238,-636.0958 922.213,-638.4472 922.213,-638.4472"/>
<text text-anchor="start" x="698.945" y="-650.5" font-family="Arial" font-size="10.00" fill="#000000">FOREIGN KEY (user_id) REFERENCES users (id)</text>
</g>
</g>
</svg>
