<?xml version="1.0" encoding="UTF-8" standalone="no"?>
<!DOCTYPE svg PUBLIC "-//W3C//DTD SVG 1.1//EN"
 "http://www.w3.org/Graphics/SVG/1.1/DTD/svg11.dtd">
<!-- Generated by graphviz version 12.1.2 (20240928.0832)
 -->
<!-- Title: users Pages: 1 -->
<svg width="1140pt" height="787pt"
 viewBox="0.00 0.00 1139.85 786.80" xmlns="http://www.w3.org/2000/svg" xmlns:xlink="http://www.w3.org/1999/xlink">
<g id="graph0" class="graph" transform="scale(1 1) rotate(0) translate(4 782.8)">
<title>users</title>
<polygon fill="white" stroke="none" points="-4,4 -4,-782.8 1135.85,-782.8 1135.85,4 -4,4"/>
<!-- users -->
<g id="node1" class="node">
<title>users</title>
<polygon fill="#efefef" stroke="none" points="479.19,-231 479.19,-266.6 654.68,-266.6 654.68,-231 479.19,-231"/>
<polygon fill="none" stroke="black" points="479.19,-231 479.19,-266.6 654.68,-266.6 654.68,-231 479.19,-231"/>
<text text-anchor="start" x="486.19" y="-244.4" font-family="Arial Bold" font-size="18.00">users</text>
<text text-anchor="start" x="523.19" y="-244.4" font-family="Arial" font-size="14.00">    </text>
<text text-anchor="start" x="554.3" y="-244.4" font-family="Arial" font-size="14.00" fill="#666666">[BASE TABLE]</text>
<polygon fill="none" stroke="black" points="479.19,-200.2 479.19,-231 654.68,-231 654.68,-200.2 479.19,-200.2"/>
<text text-anchor="start" x="486.19" y="-212.4" font-family="Arial" font-size="14.00">id </text>
<text text-anchor="start" x="500.98" y="-212.4" font-family="Arial" font-size="14.00" fill="#666666">[char(26)]</text>
<polygon fill="none" stroke="black" points="479.19,-169.4 479.19,-200.2 654.68,-200.2 654.68,-169.4 479.19,-169.4"/>
<text text-anchor="start" x="486.19" y="-181.6" font-family="Arial" font-size="14.00">name </text>
<text text-anchor="start" x="525.1" y="-181.6" font-family="Arial" font-size="14.00" fill="#666666">[varchar(15)]</text>
<polygon fill="none" stroke="black" points="479.19,-138.6 479.19,-169.4 654.68,-169.4 654.68,-138.6 479.19,-138.6"/>
<text text-anchor="start" x="486.19" y="-150.8" font-family="Arial" font-size="14.00">email </text>
<text text-anchor="start" x="523.54" y="-150.8" font-family="Arial" font-size="14.00" fill="#666666">[varchar(254)]</text>
<polygon fill="none" stroke="black" points="479.19,-107.8 479.19,-138.6 654.68,-138.6 654.68,-107.8 479.19,-107.8"/>
<text text-anchor="start" x="486.19" y="-120" font-family="Arial" font-size="14.00">password </text>
<text text-anchor="start" x="550" y="-120" font-family="Arial" font-size="14.00" fill="#666666">[char(60)]</text>
<polygon fill="none" stroke="black" points="479.19,-77 479.19,-107.8 654.68,-107.8 654.68,-77 479.19,-77"/>
<text text-anchor="start" x="486.19" y="-89.2" font-family="Arial" font-size="14.00">created_at </text>
<text text-anchor="start" x="556.24" y="-89.2" font-family="Arial" font-size="14.00" fill="#666666">[datetime]</text>
<polygon fill="none" stroke="black" points="479.19,-46.2 479.19,-77 654.68,-77 654.68,-46.2 479.19,-46.2"/>
<text text-anchor="start" x="486.19" y="-58.4" font-family="Arial" font-size="14.00">updated_at </text>
<text text-anchor="start" x="560.15" y="-58.4" font-family="Arial" font-size="14.00" fill="#666666">[datetime]</text>
<polygon fill="none" stroke="black" stroke-width="3" points="477.69,-44.7 477.69,-268.1 656.18,-268.1 656.18,-44.7 477.69,-44.7"/>
</g>
<!-- projects -->
<g id="node2" class="node">
<title>projects</title>
<polygon fill="#efefef" stroke="none" points="43.2,-653.8 43.2,-689.4 238.67,-689.4 238.67,-653.8 43.2,-653.8"/>
<polygon fill="none" stroke="black" points="43.2,-653.8 43.2,-689.4 238.67,-689.4 238.67,-653.8 43.2,-653.8"/>
<text text-anchor="start" x="50.2" y="-667.2" font-family="Arial Bold" font-size="18.00">projects</text>
<text text-anchor="start" x="107.18" y="-667.2" font-family="Arial" font-size="14.00">    </text>
<text text-anchor="start" x="138.3" y="-667.2" font-family="Arial" font-size="14.00" fill="#666666">[BASE TABLE]</text>
<polygon fill="none" stroke="black" points="43.2,-623 43.2,-653.8 238.67,-653.8 238.67,-623 43.2,-623"/>
<text text-anchor="start" x="50.2" y="-635.2" font-family="Arial" font-size="14.00">id </text>
<text text-anchor="start" x="64.99" y="-635.2" font-family="Arial" font-size="14.00" fill="#666666">[char(26)]</text>
<polygon fill="none" stroke="black" points="43.2,-592.2 43.2,-623 238.67,-623 238.67,-592.2 43.2,-592.2"/>
<text text-anchor="start" x="50.2" y="-604.4" font-family="Arial" font-size="14.00">user_id </text>
<text text-anchor="start" x="100.01" y="-604.4" font-family="Arial" font-size="14.00" fill="#666666">[char(26)]</text>
<polygon fill="none" stroke="black" points="43.2,-561.4 43.2,-592.2 238.67,-592.2 238.67,-561.4 43.2,-561.4"/>
<text text-anchor="start" x="50.2" y="-573.6" font-family="Arial" font-size="14.00">name </text>
<text text-anchor="start" x="89.11" y="-573.6" font-family="Arial" font-size="14.00" fill="#666666">[varchar(20)]</text>
<polygon fill="none" stroke="black" points="43.2,-530.6 43.2,-561.4 238.67,-561.4 238.67,-530.6 43.2,-530.6"/>
<text text-anchor="start" x="50.2" y="-542.8" font-family="Arial" font-size="14.00">color </text>
<text text-anchor="start" x="84.43" y="-542.8" font-family="Arial" font-size="14.00" fill="#666666">[char(7)]</text>
<polygon fill="none" stroke="black" points="43.2,-499.8 43.2,-530.6 238.67,-530.6 238.67,-499.8 43.2,-499.8"/>
<text text-anchor="start" x="50.2" y="-512" font-family="Arial" font-size="14.00">is_archived </text>
<text text-anchor="start" x="124.9" y="-512" font-family="Arial" font-size="14.00" fill="#666666">[tinyint(1)]</text>
<polygon fill="none" stroke="black" points="43.2,-469 43.2,-499.8 238.67,-499.8 238.67,-469 43.2,-469"/>
<text text-anchor="start" x="50.2" y="-481.2" font-family="Arial" font-size="14.00">created_at </text>
<text text-anchor="start" x="120.25" y="-481.2" font-family="Arial" font-size="14.00" fill="#666666">[datetime]</text>
<polygon fill="none" stroke="black" points="43.2,-438.2 43.2,-469 238.67,-469 238.67,-438.2 43.2,-438.2"/>
<text text-anchor="start" x="50.2" y="-450.4" font-family="Arial" font-size="14.00">updated_at </text>
<text text-anchor="start" x="124.16" y="-450.4" font-family="Arial" font-size="14.00" fill="#666666">[datetime]</text>
</g>
<!-- projects&#45;&gt;users -->
<g id="edge1" class="edge">
<title>projects:user_id&#45;&gt;users:id</title>
<path fill="none" stroke="black" d="M249.56,-605.23C293.67,-582.03 261.09,-394.95 290.93,-348.8 346.4,-263.04 376.06,-215.6 478.19,-215.6"/>
<polygon fill="black" stroke="black" points="249.72,-605.2 238.95,-603.15 244.53,-606.44 240.32,-607.44 240.32,-607.44 240.32,-607.44 244.53,-606.44 241.04,-611.9 249.72,-605.2"/>
<text text-anchor="start" x="126.59" y="-591.6" font-family="Arial" font-size="10.00">FOREIGN KEY (user_id) REFERENCES users (id)</text>
</g>
<!-- steps -->
<g id="node3" class="node">
<title>steps</title>
<polygon fill="#efefef" stroke="none" points="342.69,-653.8 342.69,-689.4 517.18,-689.4 517.18,-653.8 342.69,-653.8"/>
<polygon fill="none" stroke="black" points="342.69,-653.8 342.69,-689.4 517.18,-689.4 517.18,-653.8 342.69,-653.8"/>
<text text-anchor="start" x="349.69" y="-667.2" font-family="Arial Bold" font-size="18.00">steps</text>
<text text-anchor="start" x="385.69" y="-667.2" font-family="Arial" font-size="14.00">    </text>
<text text-anchor="start" x="416.81" y="-667.2" font-family="Arial" font-size="14.00" fill="#666666">[BASE TABLE]</text>
<polygon fill="none" stroke="black" points="342.69,-623 342.69,-653.8 517.18,-653.8 517.18,-623 342.69,-623"/>
<text text-anchor="start" x="349.69" y="-635.2" font-family="Arial" font-size="14.00">id </text>
<text text-anchor="start" x="364.48" y="-635.2" font-family="Arial" font-size="14.00" fill="#666666">[char(26)]</text>
<polygon fill="none" stroke="black" points="342.69,-592.2 342.69,-623 517.18,-623 517.18,-592.2 342.69,-592.2"/>
<text text-anchor="start" x="349.69" y="-604.4" font-family="Arial" font-size="14.00">user_id </text>
<text text-anchor="start" x="399.5" y="-604.4" font-family="Arial" font-size="14.00" fill="#666666">[char(26)]</text>
<polygon fill="none" stroke="black" points="342.69,-561.4 342.69,-592.2 517.18,-592.2 517.18,-561.4 342.69,-561.4"/>
<text text-anchor="start" x="349.69" y="-573.6" font-family="Arial" font-size="14.00">task_id </text>
<text text-anchor="start" x="397.94" y="-573.6" font-family="Arial" font-size="14.00" fill="#666666">[char(26)]</text>
<polygon fill="none" stroke="black" points="342.69,-530.6 342.69,-561.4 517.18,-561.4 517.18,-530.6 342.69,-530.6"/>
<text text-anchor="start" x="349.69" y="-542.8" font-family="Arial" font-size="14.00">name </text>
<text text-anchor="start" x="388.6" y="-542.8" font-family="Arial" font-size="14.00" fill="#666666">[varchar(80)]</text>
<polygon fill="none" stroke="black" points="342.69,-499.8 342.69,-530.6 517.18,-530.6 517.18,-499.8 342.69,-499.8"/>
<text text-anchor="start" x="349.69" y="-512" font-family="Arial" font-size="14.00">completed_at </text>
<text text-anchor="start" x="437.63" y="-512" font-family="Arial" font-size="14.00" fill="#666666">[datetime]</text>
<polygon fill="none" stroke="black" points="342.69,-469 342.69,-499.8 517.18,-499.8 517.18,-469 342.69,-469"/>
<text text-anchor="start" x="349.69" y="-481.2" font-family="Arial" font-size="14.00">created_at </text>
<text text-anchor="start" x="419.74" y="-481.2" font-family="Arial" font-size="14.00" fill="#666666">[datetime]</text>
<polygon fill="none" stroke="black" points="342.69,-438.2 342.69,-469 517.18,-469 517.18,-438.2 342.69,-438.2"/>
<text text-anchor="start" x="349.69" y="-450.4" font-family="Arial" font-size="14.00">updated_at </text>
<text text-anchor="start" x="423.65" y="-450.4" font-family="Arial" font-size="14.00" fill="#666666">[datetime]</text>
</g>
<!-- steps&#45;&gt;users -->
<g id="edge2" class="edge">
<title>steps:user_id&#45;&gt;users:id</title>
<path fill="none" stroke="black" d="M528.49,-607.06C606.89,-598.24 536.89,-483.63 517.18,-395 508.44,-355.71 488.04,-352.06 479.19,-312.8 469.7,-270.65 434.99,-215.6 478.19,-215.6"/>
<polygon fill="black" stroke="black" points="528.5,-607.06 518.28,-603.09 523.17,-607.34 518.85,-607.56 518.85,-607.56 518.85,-607.56 523.17,-607.34 518.75,-612.08 528.5,-607.06"/>
<text text-anchor="start" x="525.18" y="-617.6" font-family="Arial" font-size="10.00">FOREIGN KEY (user_id) REFERENCES users (id)</text>
</g>
<!-- tags -->
<g id="node4" class="node">
<title>tags</title>
<polygon fill="#efefef" stroke="none" points="621.19,-623 621.19,-658.6 788.68,-658.6 788.68,-623 621.19,-623"/>
<polygon fill="none" stroke="black" points="621.19,-623 621.19,-658.6 788.68,-658.6 788.68,-623 621.19,-623"/>
<text text-anchor="start" x="628.19" y="-636.4" font-family="Arial Bold" font-size="18.00">tags</text>
<text text-anchor="start" x="657.19" y="-636.4" font-family="Arial" font-size="14.00">    </text>
<text text-anchor="start" x="688.3" y="-636.4" font-family="Arial" font-size="14.00" fill="#666666">[BASE TABLE]</text>
<polygon fill="none" stroke="black" points="621.19,-592.2 621.19,-623 788.68,-623 788.68,-592.2 621.19,-592.2"/>
<text text-anchor="start" x="628.19" y="-604.4" font-family="Arial" font-size="14.00">id </text>
<text text-anchor="start" x="642.98" y="-604.4" font-family="Arial" font-size="14.00" fill="#666666">[char(26)]</text>
<polygon fill="none" stroke="black" points="621.19,-561.4 621.19,-592.2 788.68,-592.2 788.68,-561.4 621.19,-561.4"/>
<text text-anchor="start" x="628.19" y="-573.6" font-family="Arial" font-size="14.00">user_id </text>
<text text-anchor="start" x="678" y="-573.6" font-family="Arial" font-size="14.00" fill="#666666">[char(26)]</text>
<polygon fill="none" stroke="black" points="621.19,-530.6 621.19,-561.4 788.68,-561.4 788.68,-530.6 621.19,-530.6"/>
<text text-anchor="start" x="628.19" y="-542.8" font-family="Arial" font-size="14.00">name </text>
<text text-anchor="start" x="667.1" y="-542.8" font-family="Arial" font-size="14.00" fill="#666666">[varchar(20)]</text>
<polygon fill="none" stroke="black" points="621.19,-499.8 621.19,-530.6 788.68,-530.6 788.68,-499.8 621.19,-499.8"/>
<text text-anchor="start" x="628.19" y="-512" font-family="Arial" font-size="14.00">created_at </text>
<text text-anchor="start" x="698.24" y="-512" font-family="Arial" font-size="14.00" fill="#666666">[datetime]</text>
<polygon fill="none" stroke="black" points="621.19,-469 621.19,-499.8 788.68,-499.8 788.68,-469 621.19,-469"/>
<text text-anchor="start" x="628.19" y="-481.2" font-family="Arial" font-size="14.00">updated_at </text>
<text text-anchor="start" x="702.15" y="-481.2" font-family="Arial" font-size="14.00" fill="#666666">[datetime]</text>
</g>
<!-- tags&#45;&gt;users -->
<g id="edge3" class="edge">
<title>tags:user_id&#45;&gt;users:id</title>
<path fill="none" stroke="black" d="M609.83,-576.37C510.2,-567.64 637.64,-426.16 654.68,-312.8 661.1,-270.08 698.88,-215.6 655.68,-215.6"/>
<polygon fill="black" stroke="black" points="609.87,-576.38 619.67,-581.28 615.2,-576.59 619.52,-576.77 619.52,-576.77 619.52,-576.77 615.2,-576.59 620.04,-572.29 609.87,-576.38"/>
<text text-anchor="start" x="627.19" y="-586.8" font-family="Arial" font-size="10.00">FOREIGN KEY (user_id) REFERENCES users (id)</text>
</g>
<!-- tasks -->
<g id="node5" class="node">
<title>tasks</title>
<polygon fill="#efefef" stroke="none" points="892.69,-700 892.69,-735.6 1067.18,-735.6 1067.18,-700 892.69,-700"/>
<polygon fill="none" stroke="black" points="892.69,-700 892.69,-735.6 1067.18,-735.6 1067.18,-700 892.69,-700"/>
<text text-anchor="start" x="899.69" y="-713.4" font-family="Arial Bold" font-size="18.00">tasks</text>
<text text-anchor="start" x="935.69" y="-713.4" font-family="Arial" font-size="14.00">    </text>
<text text-anchor="start" x="966.81" y="-713.4" font-family="Arial" font-size="14.00" fill="#666666">[BASE TABLE]</text>
<polygon fill="none" stroke="black" points="892.69,-669.2 892.69,-700 1067.18,-700 1067.18,-669.2 892.69,-669.2"/>
<text text-anchor="start" x="899.69" y="-681.4" font-family="Arial" font-size="14.00">id </text>
<text text-anchor="start" x="914.48" y="-681.4" font-family="Arial" font-size="14.00" fill="#666666">[char(26)]</text>
<polygon fill="none" stroke="black" points="892.69,-638.4 892.69,-669.2 1067.18,-669.2 1067.18,-638.4 892.69,-638.4"/>
<text text-anchor="start" x="899.69" y="-650.6" font-family="Arial" font-size="14.00">user_id </text>
<text text-anchor="start" x="949.5" y="-650.6" font-family="Arial" font-size="14.00" fill="#666666">[char(26)]</text>
<polygon fill="none" stroke="black" points="892.69,-607.6 892.69,-638.4 1067.18,-638.4 1067.18,-607.6 892.69,-607.6"/>
<text text-anchor="start" x="899.69" y="-619.8" font-family="Arial" font-size="14.00">project_id </text>
<text text-anchor="start" x="964.28" y="-619.8" font-family="Arial" font-size="14.00" fill="#666666">[char(26)]</text>
<polygon fill="none" stroke="black" points="892.69,-576.8 892.69,-607.6 1067.18,-607.6 1067.18,-576.8 892.69,-576.8"/>
<text text-anchor="start" x="899.69" y="-589" font-family="Arial" font-size="14.00">name </text>
<text text-anchor="start" x="938.6" y="-589" font-family="Arial" font-size="14.00" fill="#666666">[varchar(80)]</text>
<polygon fill="none" stroke="black" points="892.69,-546 892.69,-576.8 1067.18,-576.8 1067.18,-546 892.69,-546"/>
<text text-anchor="start" x="899.69" y="-558.2" font-family="Arial" font-size="14.00">content </text>
<text text-anchor="start" x="949.5" y="-558.2" font-family="Arial" font-size="14.00" fill="#666666">[varchar(300)]</text>
<polygon fill="none" stroke="black" points="892.69,-515.2 892.69,-546 1067.18,-546 1067.18,-515.2 892.69,-515.2"/>
<text text-anchor="start" x="899.69" y="-527.4" font-family="Arial" font-size="14.00">priority </text>
<text text-anchor="start" x="945.59" y="-527.4" font-family="Arial" font-size="14.00" fill="#666666">[tinyint unsigned]</text>
<polygon fill="none" stroke="black" points="892.69,-484.4 892.69,-515.2 1067.18,-515.2 1067.18,-484.4 892.69,-484.4"/>
<text text-anchor="start" x="899.69" y="-496.6" font-family="Arial" font-size="14.00">due_on </text>
<text text-anchor="start" x="950.3" y="-496.6" font-family="Arial" font-size="14.00" fill="#666666">[date]</text>
<polygon fill="none" stroke="black" points="892.69,-453.6 892.69,-484.4 1067.18,-484.4 1067.18,-453.6 892.69,-453.6"/>
<text text-anchor="start" x="899.69" y="-465.8" font-family="Arial" font-size="14.00">completed_at </text>
<text text-anchor="start" x="987.63" y="-465.8" font-family="Arial" font-size="14.00" fill="#666666">[datetime]</text>
<polygon fill="none" stroke="black" points="892.69,-422.8 892.69,-453.6 1067.18,-453.6 1067.18,-422.8 892.69,-422.8"/>
<text text-anchor="start" x="899.69" y="-435" font-family="Arial" font-size="14.00">created_at </text>
<text text-anchor="start" x="969.74" y="-435" font-family="Arial" font-size="14.00" fill="#666666">[datetime]</text>
<polygon fill="none" stroke="black" points="892.69,-392 892.69,-422.8 1067.18,-422.8 1067.18,-392 892.69,-392"/>
<text text-anchor="start" x="899.69" y="-404.2" font-family="Arial" font-size="14.00">updated_at </text>
<text text-anchor="start" x="973.65" y="-404.2" font-family="Arial" font-size="14.00" fill="#666666">[datetime]</text>
</g>
<!-- tasks&#45;&gt;users -->
<g id="edge4" class="edge">
<title>tasks:user_id&#45;&gt;users:id</title>
<path fill="none" stroke="black" d="M881.49,-651.66C828.64,-627.39 875.22,-403.96 840.93,-348.8 787.4,-262.67 757.09,-215.6 655.68,-215.6"/>
<polygon fill="black" stroke="black" points="881.58,-651.68 890.44,-658.14 886.8,-652.77 891.04,-653.66 891.04,-653.66 891.04,-653.66 886.8,-652.77 892.29,-649.33 881.58,-651.68"/>
<text text-anchor="start" x="898.69" y="-663.8" font-family="Arial" font-size="10.00">FOREIGN KEY (user_id) REFERENCES users (id)</text>
</g>
</g>
</svg>
